<ttFont>
<head>
    <!-- Most of this table will be recalculated by the compiler -->
    <tableVersion value="1.0"/>
    <fontRevision value="1.106"/>
    <checkSumAdjustment value="0x51c6ab80"/>
    <magicNumber value="0x5f0f3cf5"/>
    <flags value="00000000 00000001"/>
    <unitsPerEm value="1000"/>
    <created value="Mon Sep 16 15:13:15 2019"/>
    <modified value="Mon Sep 16 15:22:46 2019"/>
    <xMin value="-235"/>
    <yMin value="-326"/>
    <xMax value="1971"/>
    <yMax value="1339"/>
    <macStyle value="00000000 00000000"/>
    <lowestRecPPEM value="6"/>
    <fontDirectionHint value="2"/>
    <indexToLocFormat value="0"/>
    <glyphDataFormat value="0"/>
  </head>
    <TTGlyph name=".notdef" xMin="-1" yMin="-180" xMax="449" yMax="720">
      <contour>
        <pt x="-1" y="-180" on="1"/>
        <pt x="-1" y="720" on="1"/>
        <pt x="449" y="720" on="1"/>
        <pt x="449" y="-180" on="1"/>
      </contour>
      <contour>
        <pt x="224" y="324" on="1"/>
        <pt x="385" y="675" on="1"/>
        <pt x="63" y="675" on="1"/>
      </contour>
      <contour>
        <pt x="44" y="-68" on="1"/>
        <pt x="199" y="270" on="1"/>
        <pt x="44" y="608" on="1"/>
      </contour>
      <contour>
        <pt x="404" y="-68" on="1"/>
        <pt x="404" y="608" on="1"/>
        <pt x="249" y="270" on="1"/>
      </contour>
      <contour>
        <pt x="63" y="-135" on="1"/>
        <pt x="385" y="-135" on="1"/>
        <pt x="224" y="216" on="1"/>
      </contour>
    </TTGlyph>
    <TTGlyph name="A" xMin="12" yMin="0" xMax="874" yMax="700">
      <contour>
        <pt x="12" y="0" on="1"/>
        <pt x="228" y="700" on="1"/>
        <pt x="658" y="700" on="1"/>
        <pt x="874" y="0" on="1"/>
        <pt x="601" y="0" on="1"/>
        <pt x="564" y="125" on="1"/>
        <pt x="319" y="125" on="1"/>
        <pt x="281" y="0" on="1"/>
      </contour>
      <contour>
        <pt x="422" y="491" on="1"/>
        <pt x="366" y="303" on="1"/>
        <pt x="516" y="303" on="1"/>
        <pt x="460" y="491" on="1"/>
      </contour>
    </TTGlyph>
    <TTGlyph name="A.sc" xMin="19" yMin="0" xMax="798" yMax="608">
      <component glyphName="a.sc" x="0" y="0" flags="0x204"/>
    </TTGlyph>
    <TTGlyph name="AE" xMin="-12" yMin="0" xMax="1240" yMax="700">
      <contour>
        <pt x="581" y="0" on="1"/>
        <pt x="581" y="125" on="1"/>
        <pt x="338" y="125" on="1"/>
        <pt x="274" y="0" on="1"/>
        <pt x="-12" y="0" on="1"/>
        <pt x="363" y="700" on="1"/>
        <pt x="1219" y="700" on="1"/>
        <pt x="1230" y="502" on="1"/>
        <pt x="841" y="502" on="1"/>
        <pt x="841" y="436" on="1"/>
        <pt x="1140" y="436" on="1"/>
        <pt x="1140" y="266" on="1"/>
        <pt x="841" y="266" on="1"/>
        <pt x="841" y="198" on="1"/>
        <pt x="1240" y="198" on="1"/>
        <pt x="1229" y="0" on="1"/>
      </contour>
      <contour>
        <pt x="531" y="501" on="1"/>
        <pt x="429" y="301" on="1"/>
        <pt x="581" y="301" on="1"/>
        <pt x="581" y="501" on="1"/>
      </contour>
    </TTGlyph>
    <TTGlyph name="AE.sc" xMin="-14" yMin="0" xMax="1098" yMax="608">
      <component glyphName="ae.sc" x="0" y="0" flags="0x204"/>
    </TTGlyph>
    <TTGlyph name="AEacute" xMin="-12" yMin="0" xMax="1240" yMax="957">
      <component glyphName="AE" x="0" y="0" flags="0x204"/>
      <component glyphName="acute" x="514" y="136" flags="0x4"/>
    </TTGlyph>
    <TTGlyph name="AEacute.sc" xMin="-14" yMin="0" xMax="1098" yMax="865">
      <component glyphName="aeacute.sc" x="0" y="0" flags="0x204"/>
    </TTGlyph>
    <TTGlyph name="Aacute" xMin="12" yMin="0" xMax="874" yMax="957">
      <component glyphName="A" x="0" y="0" flags="0x204"/>
      <component glyphName="acute" x="244" y="136" flags="0x4"/>
    </TTGlyph>
    <TTGlyph name="Aacute.sc" xMin="19" yMin="0" xMax="798" yMax="865">
      <component glyphName="aacute.sc" x="0" y="0" flags="0x204"/>
    </TTGlyph>
    <TTGlyph name="Abreve" xMin="12" yMin="0" xMax="874" yMax="993">
      <component glyphName="A" x="0" y="0" flags="0x204"/>
      <component glyphName="breve" x="191" y="136" flags="0x4"/>
    </TTGlyph>
    <TTGlyph name="Abreve.sc" xMin="19" yMin="0" xMax="798" yMax="901">
      <component glyphName="abreve.sc" x="0" y="0" flags="0x204"/>
    </TTGlyph>
    <TTGlyph name="Acircumflex" xMin="12" yMin="0" xMax="874" yMax="975">
      <component glyphName="A" x="0" y="0" flags="0x204"/>
      <component glyphName="circumflex" x="191" y="136" flags="0x4"/>
    </TTGlyph>
    <TTGlyph name="Acircumflex.sc" xMin="19" yMin="0" xMax="798" yMax="883">
      <component glyphName="acircumflex.sc" x="0" y="0" flags="0x204"/>
    </TTGlyph>
    <TTGlyph name="Adieresis" xMin="12" yMin="0" xMax="874" yMax="974">
      <component glyphName="A" x="0" y="0" flags="0x204"/>
      <component glyphName="dieresis" x="191" y="136" flags="0x4"/>
    </TTGlyph>
    <TTGlyph name="Adieresis.sc" xMin="19" yMin="0" xMax="798" yMax="882">
      <component glyphName="adieresis.sc" x="0" y="0" flags="0x204"/>
    </TTGlyph>
    <TTGlyph name="Agrave" xMin="12" yMin="0" xMax="874" yMax="957">
      <component glyphName="A" x="0" y="0" flags="0x204"/>
      <component glyphName="grave" x="139" y="136" flags="0x4"/>
    </TTGlyph>
    <TTGlyph name="Agrave.sc" xMin="19" yMin="0" xMax="798" yMax="865">
      <component glyphName="agrave.sc" x="0" y="0" flags="0x204"/>
    </TTGlyph>
    <TTGlyph name="Amacron" xMin="12" yMin="0" xMax="874" yMax="944">
      <component glyphName="A" x="0" y="0" flags="0x204"/>
      <component glyphName="macron" x="191" y="136" flags="0x4"/>
    </TTGlyph>
    <TTGlyph name="Amacron.sc" xMin="19" yMin="0" xMax="798" yMax="852">
      <component glyphName="amacron.sc" x="0" y="0" flags="0x204"/>
    </TTGlyph>
    <TTGlyph name="Aogonek" xMin="12" yMin="-326" xMax="900" yMax="700">
      <component glyphName="A" x="0" y="0" flags="0x204"/>
      <component glyphName="ogonek" x="472" y="0" flags="0x4"/>
    </TTGlyph>
    <TTGlyph name="Aogonek.sc" xMin="19" yMin="-326" xMax="824" yMax="608">
      <component glyphName="aogonek.sc" x="0" y="0" flags="0x204"/>
    </TTGlyph>
    <TTGlyph name="Aring" xMin="12" yMin="0" xMax="874" yMax="1097">
      <component glyphName="A" x="0" y="0" flags="0x204"/>
      <component glyphName="ring" x="135" y="136" flags="0x4"/>
    </TTGlyph>
    <TTGlyph name="Aring.sc" xMin="19" yMin="0" xMax="798" yMax="1005">
      <component glyphName="aring.sc" x="0" y="0" flags="0x204"/>
    </TTGlyph>
    <TTGlyph name="Aringacute" xMin="12" yMin="0" xMax="874" yMax="1339">
      <component glyphName="A" x="0" y="0" flags="0x204"/>
      <component glyphName="ring" x="135" y="136" flags="0x4"/>
      <component glyphName="acute" x="244" y="518" flags="0x4"/>
    </TTGlyph>
    <TTGlyph name="Aringacute.sc" xMin="19" yMin="0" xMax="798" yMax="1247">
      <component glyphName="aringacute.sc" x="0" y="0" flags="0x204"/>
    </TTGlyph>
    <TTGlyph name="Atilde" xMin="12" yMin="0" xMax="874" yMax="991">
      <component glyphName="A" x="0" y="0" flags="0x204"/>
      <component glyphName="tilde" x="197" y="136" flags="0x4"/>
    </TTGlyph>
    <TTGlyph name="Atilde.sc" xMin="19" yMin="0" xMax="798" yMax="899">
      <component glyphName="atilde.sc" x="0" y="0" flags="0x204"/>
    </TTGlyph>
    <TTGlyph name="B" xMin="69" yMin="0" xMax="804" yMax="700">
      <contour>
        <pt x="69" y="0" on="1"/>
        <pt x="69" y="700" on="1"/>
        <pt x="552" y="700" on="1"/>
        <pt x="662" y="700" on="0"/>
        <pt x="789" y="611" on="0"/>
        <pt x="789" y="524" on="1"/>
        <pt x="789" y="466" on="0"/>
        <pt x="736" y="385" on="0"/>
        <pt x="672" y="363" on="1"/>
        <pt x="738" y="336" on="0"/>
        <pt x="804" y="259" on="0"/>
        <pt x="804" y="197" on="1"/>
        <pt x="804" y="143" on="0"/>
        <pt x="764" y="67" on="0"/>
        <pt x="693" y="21" on="0"/>
        <pt x="594" y="0" on="0"/>
        <pt x="536" y="0" on="1"/>
      </contour>
      <contour>
        <pt x="329" y="422" on="1"/>
        <pt x="460" y="422" on="1"/>
        <pt x="497" y="422" on="0"/>
        <pt x="530" y="446" on="0"/>
        <pt x="530" y="473" on="1"/>
        <pt x="530" y="498" on="0"/>
        <pt x="495" y="522" on="0"/>
        <pt x="460" y="522" on="1"/>
        <pt x="329" y="522" on="1"/>
      </contour>
      <contour>
        <pt x="329" y="179" on="1"/>
        <pt x="472" y="179" on="1"/>
        <pt x="510" y="179" on="0"/>
        <pt x="544" y="204" on="0"/>
        <pt x="544" y="232" on="1"/>
        <pt x="544" y="259" on="0"/>
        <pt x="509" y="284" on="0"/>
        <pt x="472" y="284" on="1"/>
        <pt x="329" y="284" on="1"/>
      </contour>
    </TTGlyph>
    <TTGlyph name="B.sc" xMin="66" yMin="0" xMax="735" yMax="608">
      <component glyphName="b.sc" x="0" y="0" flags="0x204"/>
    </TTGlyph>
    <TTGlyph name="C" xMin="31" yMin="-20" xMax="718" yMax="720">
      <contour>
        <pt x="443" y="-20" on="1"/>
        <pt x="348" y="-20" on="0"/>
        <pt x="194" y="29" on="0"/>
        <pt x="88" y="123" on="0"/>
        <pt x="31" y="261" on="0"/>
        <pt x="31" y="348" on="1"/>
        <pt x="31" y="435" on="0"/>
        <pt x="91" y="574" on="0"/>
        <pt x="200" y="669" on="0"/>
        <pt x="353" y="720" on="0"/>
        <pt x="445" y="720" on="1"/>
        <pt x="535" y="720" on="0"/>
        <pt x="668" y="681" on="0"/>
        <pt x="718" y="653" on="1"/>
        <pt x="718" y="417" on="1"/>
        <pt x="716" y="417" on="1"/>
        <pt x="655" y="458" on="0"/>
        <pt x="541" y="504" on="0"/>
        <pt x="475" y="504" on="1"/>
        <pt x="396" y="504" on="0"/>
        <pt x="293" y="424" on="0"/>
        <pt x="293" y="350" on="1"/>
        <pt x="293" y="274" on="0"/>
        <pt x="397" y="197" on="0"/>
        <pt x="474" y="197" on="1"/>
        <pt x="542" y="197" on="0"/>
        <pt x="658" y="242" on="0"/>
        <pt x="716" y="285" on="1"/>
        <pt x="718" y="285" on="1"/>
        <pt x="718" y="46" on="1"/>
        <pt x="677" y="22" on="0"/>
        <pt x="535" y="-20" on="0"/>
      </contour>
    </TTGlyph>
    <TTGlyph name="C.sc" xMin="37" yMin="-19" xMax="631" yMax="627">
      <component glyphName="c.sc" x="0" y="0" flags="0x204"/>
    </TTGlyph>
    <TTGlyph name="Cacute" xMin="31" yMin="-20" xMax="718" yMax="977">
      <component glyphName="C" x="0" y="0" flags="0x204"/>
      <component glyphName="acute" x="238" y="156" flags="0x4"/>
    </TTGlyph>
    <TTGlyph name="Cacute.sc" xMin="37" yMin="-19" xMax="664" yMax="884">
      <component glyphName="cacute.sc" x="0" y="0" flags="0x204"/>
    </TTGlyph>
    <TTGlyph name="Ccaron" xMin="31" yMin="-20" xMax="718" yMax="995">
      <component glyphName="C" x="0" y="0" flags="0x204"/>
      <component glyphName="caron" x="185" y="156" flags="0x4"/>
    </TTGlyph>
    <TTGlyph name="Ccaron.sc" xMin="37" yMin="-19" xMax="653" yMax="902">
      <component glyphName="ccaron.sc" x="0" y="0" flags="0x204"/>
    </TTGlyph>
    <TTGlyph name="Ccedilla" xMin="31" yMin="-205" xMax="718" yMax="720">
      <contour>
        <pt x="718" y="46" on="1"/>
        <pt x="684" y="27" on="0"/>
        <pt x="578" y="-10" on="0"/>
        <pt x="510" y="-17" on="1"/>
        <pt x="437" y="-205" on="1"/>
        <pt x="164" y="-205" on="1"/>
        <pt x="164" y="-178" on="1"/>
        <pt x="323" y="-9" on="1"/>
        <pt x="186" y="19" on="0"/>
        <pt x="31" y="202" on="0"/>
        <pt x="31" y="348" on="1"/>
        <pt x="31" y="435" on="0"/>
        <pt x="91" y="574" on="0"/>
        <pt x="200" y="669" on="0"/>
        <pt x="353" y="720" on="0"/>
        <pt x="445" y="720" on="1"/>
        <pt x="535" y="720" on="0"/>
        <pt x="668" y="681" on="0"/>
        <pt x="718" y="653" on="1"/>
        <pt x="718" y="417" on="1"/>
        <pt x="716" y="417" on="1"/>
        <pt x="655" y="458" on="0"/>
        <pt x="541" y="504" on="0"/>
        <pt x="475" y="504" on="1"/>
        <pt x="396" y="504" on="0"/>
        <pt x="293" y="424" on="0"/>
        <pt x="293" y="350" on="1"/>
        <pt x="293" y="274" on="0"/>
        <pt x="397" y="197" on="0"/>
        <pt x="474" y="197" on="1"/>
        <pt x="542" y="197" on="0"/>
        <pt x="658" y="242" on="0"/>
        <pt x="716" y="285" on="1"/>
        <pt x="718" y="285" on="1"/>
      </contour>
    </TTGlyph>
    <TTGlyph name="Ccedilla.sc" xMin="37" yMin="-203" xMax="631" yMax="627">
      <component glyphName="ccedilla.sc" x="0" y="0" flags="0x204"/>
    </TTGlyph>
    <TTGlyph name="Cdotaccent" xMin="31" yMin="-20" xMax="718" yMax="998">
      <component glyphName="C" x="0" y="0" flags="0x204"/>
      <component glyphName="dotaccent" x="187" y="156" flags="0x4"/>
    </TTGlyph>
    <TTGlyph name="Cdotaccent.sc" xMin="37" yMin="-19" xMax="631" yMax="905">
      <component glyphName="cdotaccent.sc" x="0" y="0" flags="0x204"/>
    </TTGlyph>
    <TTGlyph name="D" xMin="69" yMin="0" xMax="829" yMax="700">
      <contour>
        <pt x="69" y="0" on="1"/>
        <pt x="69" y="700" on="1"/>
        <pt x="478" y="700" on="1"/>
        <pt x="641" y="700" on="0"/>
        <pt x="829" y="521" on="0"/>
        <pt x="829" y="350" on="1"/>
        <pt x="829" y="179" on="0"/>
        <pt x="641" y="0" on="0"/>
        <pt x="478" y="0" on="1"/>
      </contour>
      <contour>
        <pt x="331" y="205" on="1"/>
        <pt x="435" y="205" on="1"/>
        <pt x="495" y="205" on="0"/>
        <pt x="568" y="271" on="0"/>
        <pt x="568" y="350" on="1"/>
        <pt x="568" y="429" on="0"/>
        <pt x="495" y="495" on="0"/>
        <pt x="435" y="495" on="1"/>
        <pt x="331" y="495" on="1"/>
      </contour>
    </TTGlyph>
    <TTGlyph name="D.sc" xMin="66" yMin="0" xMax="747" yMax="608">
      <component glyphName="d.sc" x="0" y="0" flags="0x204"/>
    </TTGlyph>
    <TTGlyph name="Dcaron" xMin="69" yMin="0" xMax="829" yMax="975">
      <component glyphName="D" x="0" y="0" flags="0x204"/>
      <component glyphName="caron" x="169" y="136" flags="0x4"/>
    </TTGlyph>
    <TTGlyph name="Dcaron.sc" xMin="66" yMin="0" xMax="747" yMax="883">
      <component glyphName="dcaron.sc" x="0" y="0" flags="0x204"/>
    </TTGlyph>
    <TTGlyph name="Dcroat" xMin="27" yMin="0" xMax="894" yMax="700">
      <component glyphName="Eth" x="0" y="0" flags="0x204"/>
    </TTGlyph>
    <TTGlyph name="Dcroat.sc" xMin="29" yMin="0" xMax="808" yMax="608">
      <component glyphName="dcroat.sc" x="0" y="0" flags="0x204"/>
    </TTGlyph>
    <TTGlyph name="E" xMin="69" yMin="0" xMax="728" yMax="700">
      <contour>
        <pt x="69" y="0" on="1"/>
        <pt x="69" y="700" on="1"/>
        <pt x="707" y="700" on="1"/>
        <pt x="718" y="502" on="1"/>
        <pt x="329" y="502" on="1"/>
        <pt x="329" y="436" on="1"/>
        <pt x="628" y="436" on="1"/>
        <pt x="628" y="266" on="1"/>
        <pt x="329" y="266" on="1"/>
        <pt x="329" y="198" on="1"/>
        <pt x="728" y="198" on="1"/>
        <pt x="717" y="0" on="1"/>
      </contour>
    </TTGlyph>
    <TTGlyph name="E.sc" xMin="66" yMin="0" xMax="651" yMax="608">
      <component glyphName="e.sc" x="0" y="0" flags="0x204"/>
    </TTGlyph>
    <TTGlyph name="Eacute" xMin="69" yMin="0" xMax="728" yMax="957">
      <component glyphName="E" x="0" y="0" flags="0x204"/>
      <component glyphName="acute" x="193" y="136" flags="0x4"/>
    </TTGlyph>
    <TTGlyph name="Eacute.sc" xMin="66" yMin="0" xMax="651" yMax="865">
      <component glyphName="eacute.sc" x="0" y="0" flags="0x204"/>
    </TTGlyph>
    <TTGlyph name="Ebreve" xMin="69" yMin="0" xMax="728" yMax="993">
      <component glyphName="E" x="0" y="0" flags="0x204"/>
      <component glyphName="breve" x="140" y="136" flags="0x4"/>
    </TTGlyph>
    <TTGlyph name="Ebreve.sc" xMin="66" yMin="0" xMax="651" yMax="901">
      <component glyphName="ebreve.sc" x="0" y="0" flags="0x204"/>
    </TTGlyph>
    <TTGlyph name="Ecaron" xMin="69" yMin="0" xMax="728" yMax="975">
      <component glyphName="E" x="0" y="0" flags="0x204"/>
      <component glyphName="caron" x="140" y="136" flags="0x4"/>
    </TTGlyph>
    <TTGlyph name="Ecaron.sc" xMin="66" yMin="0" xMax="651" yMax="883">
      <component glyphName="ecaron.sc" x="0" y="0" flags="0x204"/>
    </TTGlyph>
    <TTGlyph name="Ecircumflex" xMin="69" yMin="0" xMax="728" yMax="975">
      <component glyphName="E" x="0" y="0" flags="0x204"/>
      <component glyphName="circumflex" x="140" y="136" flags="0x4"/>
    </TTGlyph>
    <TTGlyph name="Ecircumflex.sc" xMin="66" yMin="0" xMax="651" yMax="883">
      <component glyphName="ecircumflex.sc" x="0" y="0" flags="0x204"/>
    </TTGlyph>
    <TTGlyph name="Edieresis" xMin="69" yMin="0" xMax="728" yMax="974">
      <component glyphName="E" x="0" y="0" flags="0x204"/>
      <component glyphName="dieresis" x="140" y="136" flags="0x4"/>
    </TTGlyph>
    <TTGlyph name="Edieresis.sc" xMin="66" yMin="0" xMax="651" yMax="882">
      <component glyphName="edieresis.sc" x="0" y="0" flags="0x204"/>
    </TTGlyph>
    <TTGlyph name="Edotaccent" xMin="69" yMin="0" xMax="728" yMax="978">
      <component glyphName="E" x="0" y="0" flags="0x204"/>
      <component glyphName="dotaccent" x="142" y="136" flags="0x4"/>
    </TTGlyph>
    <TTGlyph name="Edotaccent.sc" xMin="66" yMin="0" xMax="651" yMax="886">
      <component glyphName="edotaccent.sc" x="0" y="0" flags="0x204"/>
    </TTGlyph>
    <TTGlyph name="Egrave" xMin="69" yMin="0" xMax="728" yMax="957">
      <component glyphName="E" x="0" y="0" flags="0x204"/>
      <component glyphName="grave" x="88" y="136" flags="0x4"/>
    </TTGlyph>
    <TTGlyph name="Egrave.sc" xMin="66" yMin="0" xMax="651" yMax="865">
      <component glyphName="egrave.sc" x="0" y="0" flags="0x204"/>
    </TTGlyph>
    <TTGlyph name="Emacron" xMin="69" yMin="0" xMax="728" yMax="944">
      <component glyphName="E" x="0" y="0" flags="0x204"/>
      <component glyphName="macron" x="140" y="136" flags="0x4"/>
    </TTGlyph>
    <TTGlyph name="Emacron.sc" xMin="66" yMin="0" xMax="651" yMax="852">
      <component glyphName="emacron.sc" x="0" y="0" flags="0x204"/>
    </TTGlyph>
    <TTGlyph name="Eogonek" xMin="69" yMin="-326" xMax="743" yMax="700">
      <component glyphName="E" x="0" y="0" flags="0x204"/>
      <component glyphName="ogonek" x="315" y="0" flags="0x4"/>
    </TTGlyph>
    <TTGlyph name="Eogonek.sc" xMin="66" yMin="-326" xMax="666" yMax="608">
      <component glyphName="eogonek.sc" x="0" y="0" flags="0x204"/>
    </TTGlyph>
    <TTGlyph name="Eth" xMin="27" yMin="0" xMax="894" yMax="700">
      <contour>
        <pt x="134" y="0" on="1"/>
        <pt x="134" y="265" on="1"/>
        <pt x="27" y="265" on="1"/>
        <pt x="38" y="438" on="1"/>
        <pt x="134" y="438" on="1"/>
        <pt x="134" y="700" on="1"/>
        <pt x="543" y="700" on="1"/>
        <pt x="706" y="700" on="0"/>
        <pt x="894" y="521" on="0"/>
        <pt x="894" y="350" on="1"/>
        <pt x="894" y="179" on="0"/>
        <pt x="706" y="0" on="0"/>
        <pt x="543" y="0" on="1"/>
      </contour>
      <contour>
        <pt x="394" y="203" on="1"/>
        <pt x="500" y="203" on="1"/>
        <pt x="560" y="203" on="0"/>
        <pt x="633" y="269" on="0"/>
        <pt x="633" y="350" on="1"/>
        <pt x="633" y="431" on="0"/>
        <pt x="560" y="497" on="0"/>
        <pt x="500" y="497" on="1"/>
        <pt x="394" y="497" on="1"/>
        <pt x="394" y="426" on="1"/>
        <pt x="528" y="426" on="1"/>
        <pt x="528" y="276" on="1"/>
        <pt x="394" y="276" on="1"/>
      </contour>
    </TTGlyph>
    <TTGlyph name="Eth.sc" xMin="29" yMin="0" xMax="808" yMax="608">
      <component glyphName="eth.sc" x="0" y="0" flags="0x204"/>
    </TTGlyph>
    <TTGlyph name="Euro" xMin="40" yMin="-24" xMax="750" yMax="724">
      <contour>
        <pt x="40" y="192" on="1"/>
        <pt x="54" y="329" on="1"/>
        <pt x="143" y="329" on="1"/>
        <pt x="143" y="332" on="0"/>
        <pt x="143" y="339" on="0"/>
        <pt x="143" y="342" on="1"/>
        <pt x="143" y="351" on="0"/>
        <pt x="143" y="369" on="0"/>
        <pt x="144" y="377" on="1"/>
        <pt x="58" y="377" on="1"/>
        <pt x="72" y="514" on="1"/>
        <pt x="177" y="514" on="1"/>
        <pt x="217" y="608" on="0"/>
        <pt x="402" y="724" on="0"/>
        <pt x="542" y="724" on="1"/>
        <pt x="596" y="724" on="0"/>
        <pt x="701" y="702" on="0"/>
        <pt x="750" y="678" on="1"/>
        <pt x="750" y="490" on="1"/>
        <pt x="749" y="490" on="1"/>
        <pt x="706" y="509" on="0"/>
        <pt x="617" y="536" on="0"/>
        <pt x="568" y="536" on="1"/>
        <pt x="514" y="536" on="0"/>
        <pt x="436" y="509" on="0"/>
        <pt x="413" y="480" on="1"/>
        <pt x="623" y="480" on="1"/>
        <pt x="623" y="377" on="1"/>
        <pt x="377" y="377" on="1"/>
        <pt x="376" y="370" on="0"/>
        <pt x="376" y="355" on="0"/>
        <pt x="376" y="347" on="1"/>
        <pt x="376" y="343" on="0"/>
        <pt x="376" y="333" on="0"/>
        <pt x="376" y="329" on="1"/>
        <pt x="623" y="329" on="1"/>
        <pt x="623" y="226" on="1"/>
        <pt x="405" y="226" on="1"/>
        <pt x="427" y="194" on="0"/>
        <pt x="507" y="163" on="0"/>
        <pt x="567" y="163" on="1"/>
        <pt x="616" y="163" on="0"/>
        <pt x="706" y="188" on="0"/>
        <pt x="749" y="207" on="1"/>
        <pt x="750" y="207" on="1"/>
        <pt x="750" y="18" on="1"/>
        <pt x="702" y="-4" on="0"/>
        <pt x="589" y="-24" on="0"/>
        <pt x="537" y="-24" on="1"/>
        <pt x="385" y="-24" on="0"/>
        <pt x="203" y="94" on="0"/>
        <pt x="167" y="192" on="1"/>
      </contour>
    </TTGlyph>
    <TTGlyph name="Euro.tab" xMin="11" yMin="-25" xMax="696" yMax="725">
      <contour>
        <pt x="11" y="192" on="1"/>
        <pt x="23" y="329" on="1"/>
        <pt x="109" y="329" on="1"/>
        <pt x="109" y="332" on="0"/>
        <pt x="109" y="339" on="0"/>
        <pt x="109" y="342" on="1"/>
        <pt x="109" y="351" on="0"/>
        <pt x="109" y="369" on="0"/>
        <pt x="110" y="377" on="1"/>
        <pt x="27" y="377" on="1"/>
        <pt x="41" y="514" on="1"/>
        <pt x="141" y="514" on="1"/>
        <pt x="181" y="609" on="0"/>
        <pt x="358" y="725" on="0"/>
        <pt x="494" y="725" on="1"/>
        <pt x="545" y="725" on="0"/>
        <pt x="650" y="702" on="0"/>
        <pt x="696" y="677" on="1"/>
        <pt x="696" y="492" on="1"/>
        <pt x="695" y="492" on="1"/>
        <pt x="657" y="511" on="0"/>
        <pt x="569" y="539" on="0"/>
        <pt x="518" y="539" on="1"/>
        <pt x="465" y="539" on="0"/>
        <pt x="390" y="512" on="0"/>
        <pt x="368" y="482" on="1"/>
        <pt x="574" y="482" on="1"/>
        <pt x="574" y="377" on="1"/>
        <pt x="335" y="377" on="1"/>
        <pt x="334" y="370" on="0"/>
        <pt x="334" y="355" on="0"/>
        <pt x="334" y="347" on="1"/>
        <pt x="334" y="343" on="0"/>
        <pt x="334" y="333" on="0"/>
        <pt x="334" y="329" on="1"/>
        <pt x="574" y="329" on="1"/>
        <pt x="574" y="224" on="1"/>
        <pt x="362" y="224" on="1"/>
        <pt x="382" y="191" on="0"/>
        <pt x="459" y="160" on="0"/>
        <pt x="517" y="160" on="1"/>
        <pt x="567" y="160" on="0"/>
        <pt x="656" y="186" on="0"/>
        <pt x="695" y="205" on="1"/>
        <pt x="696" y="205" on="1"/>
        <pt x="696" y="19" on="1"/>
        <pt x="650" y="-4" on="0"/>
        <pt x="540" y="-25" on="0"/>
        <pt x="490" y="-25" on="1"/>
        <pt x="342" y="-25" on="0"/>
        <pt x="166" y="93" on="0"/>
        <pt x="132" y="192" on="1"/>
      </contour>
    </TTGlyph>
    <TTGlyph name="F" xMin="69" yMin="0" xMax="704" yMax="700">
      <contour>
        <pt x="69" y="0" on="1"/>
        <pt x="69" y="700" on="1"/>
        <pt x="693" y="700" on="1"/>
        <pt x="704" y="500" on="1"/>
        <pt x="331" y="500" on="1"/>
        <pt x="331" y="405" on="1"/>
        <pt x="630" y="405" on="1"/>
        <pt x="630" y="223" on="1"/>
        <pt x="331" y="223" on="1"/>
        <pt x="331" y="0" on="1"/>
      </contour>
    </TTGlyph>
    <TTGlyph name="F.sc" xMin="66" yMin="0" xMax="634" yMax="608">
      <component glyphName="f.sc" x="0" y="0" flags="0x204"/>
    </TTGlyph>
    <TTGlyph name="G" xMin="30" yMin="-24" xMax="837" yMax="723">
      <contour>
        <pt x="446" y="-24" on="1"/>
        <pt x="349" y="-24" on="0"/>
        <pt x="194" y="25" on="0"/>
        <pt x="87" y="118" on="0"/>
        <pt x="30" y="253" on="0"/>
        <pt x="30" y="338" on="1"/>
        <pt x="30" y="421" on="0"/>
        <pt x="91" y="563" on="0"/>
        <pt x="205" y="665" on="0"/>
        <pt x="374" y="723" on="0"/>
        <pt x="481" y="723" on="1"/>
        <pt x="556" y="723" on="0"/>
        <pt x="700" y="694" on="0"/>
        <pt x="751" y="667" on="1"/>
        <pt x="751" y="453" on="1"/>
        <pt x="750" y="453" on="1"/>
        <pt x="683" y="483" on="0"/>
        <pt x="565" y="512" on="0"/>
        <pt x="500" y="512" on="1"/>
        <pt x="400" y="512" on="0"/>
        <pt x="295" y="421" on="0"/>
        <pt x="295" y="334" on="1"/>
        <pt x="295" y="256" on="0"/>
        <pt x="388" y="174" on="0"/>
        <pt x="475" y="174" on="1"/>
        <pt x="523" y="174" on="0"/>
        <pt x="602" y="210" on="0"/>
        <pt x="606" y="252" on="1"/>
        <pt x="423" y="252" on="1"/>
        <pt x="423" y="418" on="1"/>
        <pt x="832" y="418" on="1"/>
        <pt x="834" y="396" on="0"/>
        <pt x="837" y="346" on="0"/>
        <pt x="837" y="321" on="1"/>
        <pt x="837" y="236" on="0"/>
        <pt x="783" y="106" on="0"/>
        <pt x="682" y="20" on="0"/>
        <pt x="537" y="-24" on="0"/>
      </contour>
    </TTGlyph>
    <TTGlyph name="G.sc" xMin="37" yMin="-23" xMax="741" yMax="627">
      <component glyphName="g.sc" x="0" y="0" flags="0x204"/>
    </TTGlyph>
    <TTGlyph name="Gbreve" xMin="30" yMin="-24" xMax="837" yMax="1016">
      <component glyphName="G" x="0" y="0" flags="0x204"/>
      <component glyphName="breve" x="220" y="159" flags="0x4"/>
    </TTGlyph>
    <TTGlyph name="Gbreve.sc" xMin="37" yMin="-23" xMax="741" yMax="920">
      <component glyphName="gbreve.sc" x="0" y="0" flags="0x204"/>
    </TTGlyph>
    <TTGlyph name="Gdotaccent" xMin="30" yMin="-24" xMax="837" yMax="1001">
      <component glyphName="G" x="0" y="0" flags="0x204"/>
      <component glyphName="dotaccent" x="222" y="159" flags="0x4"/>
    </TTGlyph>
    <TTGlyph name="Gdotaccent.sc" xMin="37" yMin="-23" xMax="741" yMax="905">
      <component glyphName="gdotaccent.sc" x="0" y="0" flags="0x204"/>
    </TTGlyph>
    <TTGlyph name="H" xMin="69" yMin="0" xMax="831" yMax="700">
      <contour>
        <pt x="69" y="0" on="1"/>
        <pt x="69" y="700" on="1"/>
        <pt x="331" y="700" on="1"/>
        <pt x="331" y="460" on="1"/>
        <pt x="569" y="460" on="1"/>
        <pt x="569" y="700" on="1"/>
        <pt x="831" y="700" on="1"/>
        <pt x="831" y="0" on="1"/>
        <pt x="569" y="0" on="1"/>
        <pt x="569" y="248" on="1"/>
        <pt x="331" y="248" on="1"/>
        <pt x="331" y="0" on="1"/>
      </contour>
    </TTGlyph>
    <TTGlyph name="H.sc" xMin="66" yMin="0" xMax="750" yMax="608">
      <component glyphName="h.sc" x="0" y="0" flags="0x204"/>
    </TTGlyph>
    <TTGlyph name="Hbar" xMin="27" yMin="0" xMax="1003" yMax="700">
      <contour>
        <pt x="134" y="0" on="1"/>
        <pt x="134" y="463" on="1"/>
        <pt x="27" y="463" on="1"/>
        <pt x="38" y="636" on="1"/>
        <pt x="134" y="636" on="1"/>
        <pt x="134" y="700" on="1"/>
        <pt x="394" y="700" on="1"/>
        <pt x="394" y="625" on="1"/>
        <pt x="636" y="625" on="1"/>
        <pt x="636" y="700" on="1"/>
        <pt x="896" y="700" on="1"/>
        <pt x="896" y="636" on="1"/>
        <pt x="992" y="636" on="1"/>
        <pt x="1003" y="463" on="1"/>
        <pt x="896" y="463" on="1"/>
        <pt x="896" y="0" on="1"/>
        <pt x="636" y="0" on="1"/>
        <pt x="636" y="197" on="1"/>
        <pt x="394" y="197" on="1"/>
        <pt x="394" y="0" on="1"/>
      </contour>
      <contour>
        <pt x="394" y="409" on="1"/>
        <pt x="636" y="409" on="1"/>
        <pt x="636" y="473" on="1"/>
        <pt x="394" y="473" on="1"/>
      </contour>
    </TTGlyph>
    <TTGlyph name="Hbar.sc" xMin="29" yMin="0" xMax="908" yMax="608">
      <component glyphName="hbar.sc" x="0" y="0" flags="0x204"/>
    </TTGlyph>
    <TTGlyph name="I" xMin="70" yMin="0" xMax="332" yMax="700">
      <contour>
        <pt x="70" y="0" on="1"/>
        <pt x="70" y="700" on="1"/>
        <pt x="332" y="700" on="1"/>
        <pt x="332" y="0" on="1"/>
      </contour>
    </TTGlyph>
    <TTGlyph name="I.sc" xMin="67" yMin="0" xMax="324" yMax="608">
      <component glyphName="i.sc" x="0" y="0" flags="0x204"/>
    </TTGlyph>
    <TTGlyph name="Iacute" xMin="70" yMin="0" xMax="488" yMax="957">
      <component glyphName="I" x="0" y="0" flags="0x204"/>
      <component glyphName="acute" x="18" y="136" flags="0x4"/>
    </TTGlyph>
    <TTGlyph name="Iacute.sc" xMin="67" yMin="0" xMax="482" yMax="865">
      <component glyphName="iacute.sc" x="0" y="0" flags="0x204"/>
    </TTGlyph>
    <TTGlyph name="Ibreve" xMin="-32" yMin="0" xMax="434" yMax="993">
      <component glyphName="I" x="0" y="0" flags="0x204"/>
      <component glyphName="breve" x="-49" y="136" flags="0x4"/>
    </TTGlyph>
    <TTGlyph name="Ibreve.sc" xMin="-38" yMin="0" xMax="428" yMax="901">
      <component glyphName="ibreve.sc" x="0" y="0" flags="0x204"/>
    </TTGlyph>
    <TTGlyph name="Icircumflex" xMin="-61" yMin="0" xMax="463" yMax="975">
      <component glyphName="I" x="0" y="0" flags="0x204"/>
      <component glyphName="circumflex" x="-49" y="136" flags="0x4"/>
    </TTGlyph>
    <TTGlyph name="Icircumflex.sc" xMin="-67" yMin="0" xMax="457" yMax="883">
      <component glyphName="icircumflex.sc" x="0" y="0" flags="0x204"/>
    </TTGlyph>
    <TTGlyph name="Idieresis" xMin="-55" yMin="0" xMax="458" yMax="974">
      <component glyphName="I" x="0" y="0" flags="0x204"/>
      <component glyphName="dieresis" x="-49" y="136" flags="0x4"/>
    </TTGlyph>
    <TTGlyph name="Idieresis.sc" xMin="-61" yMin="0" xMax="452" yMax="882">
      <component glyphName="idieresis.sc" x="0" y="0" flags="0x204"/>
    </TTGlyph>
    <TTGlyph name="Idotaccent" xMin="55" yMin="0" xMax="346" yMax="978">
      <component glyphName="I" x="0" y="0" flags="0x204"/>
      <component glyphName="dotaccent" x="-48" y="136" flags="0x4"/>
    </TTGlyph>
    <TTGlyph name="Idotaccent.sc" xMin="50" yMin="0" xMax="341" yMax="886">
      <component glyphName="idotaccent.sc" x="0" y="0" flags="0x204"/>
    </TTGlyph>
    <TTGlyph name="Igrave" xMin="-83" yMin="0" xMax="332" yMax="957">
      <component glyphName="I" x="0" y="0" flags="0x204"/>
      <component glyphName="grave" x="-115" y="136" flags="0x4"/>
    </TTGlyph>
    <TTGlyph name="Igrave.sc" xMin="-89" yMin="0" xMax="324" yMax="865">
      <component glyphName="igrave.sc" x="0" y="0" flags="0x204"/>
    </TTGlyph>
    <TTGlyph name="Imacron" xMin="-19" yMin="0" xMax="422" yMax="944">
      <component glyphName="I" x="0" y="0" flags="0x204"/>
      <component glyphName="macron" x="-49" y="136" flags="0x4"/>
    </TTGlyph>
    <TTGlyph name="Imacron.sc" xMin="-25" yMin="0" xMax="416" yMax="852">
      <component glyphName="imacron.sc" x="0" y="0" flags="0x204"/>
    </TTGlyph>
    <TTGlyph name="Iogonek" xMin="11" yMin="-326" xMax="358" yMax="700">
      <component glyphName="I" x="0" y="0" flags="0x204"/>
      <component glyphName="ogonek" x="-70" y="0" flags="0x4"/>
    </TTGlyph>
    <TTGlyph name="Iogonek.sc" xMin="3" yMin="-326" xMax="350" yMax="608">
      <component glyphName="iogonek.sc" x="0" y="0" flags="0x204"/>
    </TTGlyph>
    <TTGlyph name="J" xMin="40" yMin="-20" xMax="648" yMax="700">
      <contour>
        <pt x="309" y="-20" on="1"/>
        <pt x="233" y="-20" on="0"/>
        <pt x="100" y="12" on="0"/>
        <pt x="40" y="44" on="1"/>
        <pt x="40" y="266" on="1"/>
        <pt x="41" y="266" on="1"/>
        <pt x="95" y="232" on="0"/>
        <pt x="206" y="198" on="0"/>
        <pt x="255" y="198" on="1"/>
        <pt x="315" y="198" on="0"/>
        <pt x="386" y="245" on="0"/>
        <pt x="386" y="306" on="1"/>
        <pt x="386" y="502" on="1"/>
        <pt x="149" y="502" on="1"/>
        <pt x="160" y="700" on="1"/>
        <pt x="648" y="700" on="1"/>
        <pt x="648" y="260" on="1"/>
        <pt x="648" y="116" on="0"/>
        <pt x="469" y="-20" on="0"/>
      </contour>
    </TTGlyph>
    <TTGlyph name="J.sc" xMin="43" yMin="-19" xMax="588" yMax="608">
      <component glyphName="j.sc" x="0" y="0" flags="0x204"/>
    </TTGlyph>
    <TTGlyph name="K" xMin="69" yMin="0" xMax="873" yMax="700">
      <contour>
        <pt x="69" y="0" on="1"/>
        <pt x="69" y="700" on="1"/>
        <pt x="331" y="700" on="1"/>
        <pt x="331" y="456" on="1"/>
        <pt x="389" y="456" on="1"/>
        <pt x="567" y="700" on="1"/>
        <pt x="856" y="700" on="1"/>
        <pt x="858" y="699" on="1"/>
        <pt x="611" y="363" on="1"/>
        <pt x="873" y="1" on="1"/>
        <pt x="871" y="0" on="1"/>
        <pt x="573" y="0" on="1"/>
        <pt x="391" y="251" on="1"/>
        <pt x="331" y="251" on="1"/>
        <pt x="331" y="0" on="1"/>
      </contour>
    </TTGlyph>
    <TTGlyph name="K.sc" xMin="66" yMin="0" xMax="803" yMax="608">
      <component glyphName="k.sc" x="0" y="0" flags="0x204"/>
    </TTGlyph>
    <TTGlyph name="L" xMin="69" yMin="0" xMax="676" yMax="700">
      <contour>
        <pt x="69" y="0" on="1"/>
        <pt x="69" y="700" on="1"/>
        <pt x="331" y="700" on="1"/>
        <pt x="331" y="216" on="1"/>
        <pt x="676" y="216" on="1"/>
        <pt x="665" y="0" on="1"/>
      </contour>
    </TTGlyph>
    <TTGlyph name="L.sc" xMin="66" yMin="0" xMax="616" yMax="608">
      <component glyphName="l.sc" x="0" y="0" flags="0x204"/>
    </TTGlyph>
    <TTGlyph name="Lacute" xMin="69" yMin="0" xMax="676" yMax="957">
      <component glyphName="L" x="0" y="0" flags="0x204"/>
      <component glyphName="acute" x="16" y="136" flags="0x4"/>
    </TTGlyph>
    <TTGlyph name="Lacute.sc" xMin="66" yMin="0" xMax="616" yMax="865">
      <component glyphName="lacute.sc" x="0" y="0" flags="0x204"/>
    </TTGlyph>
    <TTGlyph name="Lcaron" xMin="69" yMin="0" xMax="676" yMax="701">
      <component glyphName="L" x="0" y="0" flags="0x204"/>
      <component glyphName="caron.alt" x="210" y="-91" flags="0x4"/>
    </TTGlyph>
    <TTGlyph name="Lcaron.sc" xMin="66" yMin="0" xMax="616" yMax="608">
      <component glyphName="lcaron.sc" x="0" y="0" flags="0x204"/>
    </TTGlyph>
    <TTGlyph name="Ldot" xMin="69" yMin="0" xMax="676" yMax="700">
      <contour>
        <pt x="69" y="0" on="1"/>
        <pt x="69" y="700" on="1"/>
        <pt x="331" y="700" on="1"/>
        <pt x="331" y="216" on="1"/>
        <pt x="676" y="216" on="1"/>
        <pt x="665" y="0" on="1"/>
      </contour>
      <contour>
        <pt x="551" y="330" on="1"/>
        <pt x="498" y="330" on="0"/>
        <pt x="434" y="390" on="0"/>
        <pt x="434" y="442" on="1"/>
        <pt x="434" y="493" on="0"/>
        <pt x="498" y="553" on="0"/>
        <pt x="551" y="553" on="1"/>
        <pt x="604" y="553" on="0"/>
        <pt x="668" y="493" on="0"/>
        <pt x="668" y="442" on="1"/>
        <pt x="668" y="390" on="0"/>
        <pt x="604" y="330" on="0"/>
      </contour>
    </TTGlyph>
    <TTGlyph name="Ldot.sc" xMin="66" yMin="0" xMax="633" yMax="608">
      <component glyphName="ldot.sc" x="0" y="0" flags="0x204"/>
    </TTGlyph>
    <TTGlyph name="Lslash" xMin="27" yMin="0" xMax="734" yMax="700">
      <contour>
        <pt x="127" y="0" on="1"/>
        <pt x="127" y="210" on="1"/>
        <pt x="27" y="168" on="1"/>
        <pt x="27" y="354" on="1"/>
        <pt x="127" y="396" on="1"/>
        <pt x="127" y="700" on="1"/>
        <pt x="389" y="700" on="1"/>
        <pt x="389" y="506" on="1"/>
        <pt x="586" y="588" on="1"/>
        <pt x="586" y="402" on="1"/>
        <pt x="389" y="319" on="1"/>
        <pt x="389" y="216" on="1"/>
        <pt x="734" y="216" on="1"/>
        <pt x="723" y="0" on="1"/>
      </contour>
    </TTGlyph>
    <TTGlyph name="Lslash.sc" xMin="27" yMin="0" xMax="668" yMax="608">
      <component glyphName="lslash.sc" x="0" y="0" flags="0x204"/>
    </TTGlyph>
    <TTGlyph name="M" xMin="69" yMin="0" xMax="974" yMax="700">
      <contour>
        <pt x="69" y="0" on="1"/>
        <pt x="69" y="700" on="1"/>
        <pt x="379" y="700" on="1"/>
        <pt x="526" y="436" on="1"/>
        <pt x="668" y="700" on="1"/>
        <pt x="974" y="700" on="1"/>
        <pt x="974" y="0" on="1"/>
        <pt x="723" y="0" on="1"/>
        <pt x="723" y="376" on="1"/>
        <pt x="721" y="376" on="1"/>
        <pt x="526" y="46" on="1"/>
        <pt x="514" y="46" on="1"/>
        <pt x="322" y="374" on="1"/>
        <pt x="320" y="374" on="1"/>
        <pt x="320" y="0" on="1"/>
      </contour>
    </TTGlyph>
    <TTGlyph name="M.sc" xMin="66" yMin="0" xMax="845" yMax="608">
      <component glyphName="m.sc" x="0" y="0" flags="0x204"/>
    </TTGlyph>
    <TTGlyph name="N" xMin="69" yMin="0" xMax="833" yMax="700">
      <contour>
        <pt x="69" y="0" on="1"/>
        <pt x="69" y="700" on="1"/>
        <pt x="331" y="700" on="1"/>
        <pt x="585" y="365" on="1"/>
        <pt x="587" y="365" on="1"/>
        <pt x="587" y="700" on="1"/>
        <pt x="833" y="700" on="1"/>
        <pt x="833" y="0" on="1"/>
        <pt x="574" y="0" on="1"/>
        <pt x="317" y="340" on="1"/>
        <pt x="315" y="340" on="1"/>
        <pt x="315" y="0" on="1"/>
      </contour>
    </TTGlyph>
    <TTGlyph name="N.sc" xMin="66" yMin="0" xMax="747" yMax="608">
      <component glyphName="n.sc" x="0" y="0" flags="0x204"/>
    </TTGlyph>
    <TTGlyph name="Nacute" xMin="69" yMin="0" xMax="833" yMax="932">
      <component glyphName="N" x="0" y="0" flags="0x204"/>
      <component glyphName="acute" x="275" y="111" flags="0x4"/>
    </TTGlyph>
    <TTGlyph name="Nacute.sc" xMin="66" yMin="0" xMax="747" yMax="839">
      <component glyphName="nacute.sc" x="0" y="0" flags="0x204"/>
    </TTGlyph>
    <TTGlyph name="Ncaron" xMin="69" yMin="0" xMax="833" yMax="950">
      <component glyphName="N" x="0" y="0" flags="0x204"/>
      <component glyphName="caron" x="222" y="111" flags="0x4"/>
    </TTGlyph>
    <TTGlyph name="Ncaron.sc" xMin="66" yMin="0" xMax="747" yMax="857">
      <component glyphName="ncaron.sc" x="0" y="0" flags="0x204"/>
    </TTGlyph>
    <TTGlyph name="Ntilde" xMin="69" yMin="0" xMax="833" yMax="991">
      <component glyphName="N" x="0" y="0" flags="0x204"/>
      <component glyphName="tilde" x="228" y="136" flags="0x4"/>
    </TTGlyph>
    <TTGlyph name="Ntilde.sc" xMin="66" yMin="0" xMax="747" yMax="899">
      <component glyphName="ntilde.sc" x="0" y="0" flags="0x204"/>
    </TTGlyph>
    <TTGlyph name="O" xMin="31" yMin="-26" xMax="859" yMax="726">
      <contour>
        <pt x="445" y="-26" on="1"/>
        <pt x="350" y="-26" on="0"/>
        <pt x="196" y="26" on="0"/>
        <pt x="89" y="123" on="0"/>
        <pt x="31" y="263" on="0"/>
        <pt x="31" y="350" on="1"/>
        <pt x="31" y="437" on="0"/>
        <pt x="89" y="577" on="0"/>
        <pt x="196" y="674" on="0"/>
        <pt x="350" y="726" on="0"/>
        <pt x="445" y="726" on="1"/>
        <pt x="540" y="726" on="0"/>
        <pt x="694" y="674" on="0"/>
        <pt x="801" y="577" on="0"/>
        <pt x="859" y="437" on="0"/>
        <pt x="859" y="350" on="1"/>
        <pt x="859" y="263" on="0"/>
        <pt x="801" y="123" on="0"/>
        <pt x="694" y="26" on="0"/>
        <pt x="540" y="-26" on="0"/>
      </contour>
      <contour>
        <pt x="445" y="188" on="1"/>
        <pt x="519" y="188" on="0"/>
        <pt x="604" y="273" on="0"/>
        <pt x="604" y="350" on="1"/>
        <pt x="604" y="427" on="0"/>
        <pt x="519" y="512" on="0"/>
        <pt x="445" y="512" on="1"/>
        <pt x="371" y="512" on="0"/>
        <pt x="287" y="427" on="0"/>
        <pt x="287" y="350" on="1"/>
        <pt x="287" y="273" on="0"/>
        <pt x="371" y="188" on="0"/>
      </contour>
    </TTGlyph>
    <TTGlyph name="O.sc" xMin="37" yMin="-23" xMax="767" yMax="631">
      <component glyphName="o.sc" x="0" y="0" flags="0x204"/>
    </TTGlyph>
    <TTGlyph name="OE" xMin="31" yMin="0" xMax="1188" yMax="700">
      <contour>
        <pt x="31" y="350" on="1"/>
        <pt x="31" y="521" on="0"/>
        <pt x="219" y="700" on="0"/>
        <pt x="382" y="700" on="1"/>
        <pt x="1167" y="700" on="1"/>
        <pt x="1178" y="502" on="1"/>
        <pt x="789" y="502" on="1"/>
        <pt x="789" y="436" on="1"/>
        <pt x="1088" y="436" on="1"/>
        <pt x="1088" y="266" on="1"/>
        <pt x="789" y="266" on="1"/>
        <pt x="789" y="198" on="1"/>
        <pt x="1188" y="198" on="1"/>
        <pt x="1177" y="0" on="1"/>
        <pt x="382" y="0" on="1"/>
        <pt x="219" y="0" on="0"/>
        <pt x="31" y="179" on="0"/>
      </contour>
      <contour>
        <pt x="529" y="495" on="1"/>
        <pt x="425" y="495" on="1"/>
        <pt x="365" y="495" on="0"/>
        <pt x="292" y="429" on="0"/>
        <pt x="292" y="350" on="1"/>
        <pt x="292" y="271" on="0"/>
        <pt x="365" y="205" on="0"/>
        <pt x="425" y="205" on="1"/>
        <pt x="529" y="205" on="1"/>
      </contour>
    </TTGlyph>
    <TTGlyph name="OE.sc" xMin="37" yMin="0" xMax="1047" yMax="608">
      <component glyphName="oe.sc" x="0" y="0" flags="0x204"/>
    </TTGlyph>
    <TTGlyph name="Oacute" xMin="31" yMin="-26" xMax="859" yMax="983">
      <component glyphName="O" x="0" y="0" flags="0x204"/>
      <component glyphName="acute" x="248" y="162" flags="0x4"/>
    </TTGlyph>
    <TTGlyph name="Oacute.sc" xMin="37" yMin="-23" xMax="767" yMax="888">
      <component glyphName="oacute.sc" x="0" y="0" flags="0x204"/>
    </TTGlyph>
    <TTGlyph name="Obreve" xMin="31" yMin="-26" xMax="859" yMax="1019">
      <component glyphName="O" x="0" y="0" flags="0x204"/>
      <component glyphName="breve" x="195" y="162" flags="0x4"/>
    </TTGlyph>
    <TTGlyph name="Obreve.sc" xMin="37" yMin="-23" xMax="767" yMax="924">
      <component glyphName="obreve.sc" x="0" y="0" flags="0x204"/>
    </TTGlyph>
    <TTGlyph name="Ocircumflex" xMin="31" yMin="-26" xMax="859" yMax="1001">
      <component glyphName="O" x="0" y="0" flags="0x204"/>
      <component glyphName="circumflex" x="195" y="162" flags="0x4"/>
    </TTGlyph>
    <TTGlyph name="Ocircumflex.sc" xMin="37" yMin="-23" xMax="767" yMax="906">
      <component glyphName="ocircumflex.sc" x="0" y="0" flags="0x204"/>
    </TTGlyph>
    <TTGlyph name="Odieresis" xMin="31" yMin="-26" xMax="859" yMax="1000">
      <component glyphName="O" x="0" y="0" flags="0x204"/>
      <component glyphName="dieresis" x="195" y="162" flags="0x4"/>
    </TTGlyph>
    <TTGlyph name="Odieresis.sc" xMin="37" yMin="-23" xMax="767" yMax="905">
      <component glyphName="odieresis.sc" x="0" y="0" flags="0x204"/>
    </TTGlyph>
    <TTGlyph name="Ograve" xMin="31" yMin="-26" xMax="859" yMax="983">
      <component glyphName="O" x="0" y="0" flags="0x204"/>
      <component glyphName="grave" x="143" y="162" flags="0x4"/>
    </TTGlyph>
    <TTGlyph name="Ograve.sc" xMin="37" yMin="-23" xMax="767" yMax="888">
      <component glyphName="ograve.sc" x="0" y="0" flags="0x204"/>
    </TTGlyph>
    <TTGlyph name="Ohungarumlaut" xMin="31" yMin="-26" xMax="859" yMax="983">
      <component glyphName="O" x="0" y="0" flags="0x204"/>
      <component glyphName="hungarumlaut" x="268" y="162" flags="0x4"/>
    </TTGlyph>
    <TTGlyph name="Ohungarumlaut.sc" xMin="37" yMin="-23" xMax="791" yMax="888">
      <component glyphName="ohungarumlaut.sc" x="0" y="0" flags="0x204"/>
    </TTGlyph>
    <TTGlyph name="Omacron" xMin="31" yMin="-26" xMax="859" yMax="970">
      <component glyphName="O" x="0" y="0" flags="0x204"/>
      <component glyphName="macron" x="195" y="162" flags="0x4"/>
    </TTGlyph>
    <TTGlyph name="Omacron.sc" xMin="37" yMin="-23" xMax="767" yMax="875">
      <component glyphName="omacron.sc" x="0" y="0" flags="0x204"/>
    </TTGlyph>
    <TTGlyph name="Oslash" xMin="-1" yMin="-58" xMax="891" yMax="758">
      <contour>
        <pt x="-1" y="-58" on="1"/>
        <pt x="118" y="100" on="1"/>
        <pt x="76" y="147" on="0"/>
        <pt x="31" y="273" on="0"/>
        <pt x="31" y="350" on="1"/>
        <pt x="31" y="437" on="0"/>
        <pt x="89" y="577" on="0"/>
        <pt x="196" y="674" on="0"/>
        <pt x="350" y="726" on="0"/>
        <pt x="445" y="726" on="1"/>
        <pt x="494" y="726" on="0"/>
        <pt x="581" y="712" on="0"/>
        <pt x="620" y="699" on="1"/>
        <pt x="666" y="758" on="1"/>
        <pt x="891" y="758" on="1"/>
        <pt x="772" y="600" on="1"/>
        <pt x="814" y="553" on="0"/>
        <pt x="859" y="427" on="0"/>
        <pt x="859" y="350" on="1"/>
        <pt x="859" y="263" on="0"/>
        <pt x="801" y="123" on="0"/>
        <pt x="694" y="26" on="0"/>
        <pt x="540" y="-26" on="0"/>
        <pt x="445" y="-26" on="1"/>
        <pt x="396" y="-26" on="0"/>
        <pt x="309" y="-12" on="0"/>
        <pt x="270" y="1" on="1"/>
        <pt x="224" y="-58" on="1"/>
      </contour>
      <contour>
        <pt x="277" y="350" on="1"/>
        <pt x="277" y="329" on="0"/>
        <pt x="283" y="292" on="0"/>
        <pt x="289" y="276" on="1"/>
        <pt x="478" y="518" on="1"/>
        <pt x="471" y="519" on="0"/>
        <pt x="454" y="520" on="0"/>
        <pt x="445" y="520" on="1"/>
        <pt x="367" y="520" on="0"/>
        <pt x="277" y="432" on="0"/>
      </contour>
      <contour>
        <pt x="444" y="180" on="1"/>
        <pt x="522" y="180" on="0"/>
        <pt x="612" y="268" on="0"/>
        <pt x="612" y="350" on="1"/>
        <pt x="612" y="370" on="0"/>
        <pt x="606" y="407" on="0"/>
        <pt x="601" y="423" on="1"/>
        <pt x="412" y="182" on="1"/>
        <pt x="419" y="181" on="0"/>
        <pt x="436" y="180" on="0"/>
      </contour>
    </TTGlyph>
    <TTGlyph name="Oslash.sc" xMin="-6" yMin="-55" xMax="810" yMax="663">
      <component glyphName="oslash.sc" x="0" y="0" flags="0x204"/>
    </TTGlyph>
    <TTGlyph name="Oslashacute" xMin="-1" yMin="-58" xMax="891" yMax="964">
      <component glyphName="Oslash" x="0" y="0" flags="0x204"/>
      <component glyphName="acute" x="249" y="143" flags="0x4"/>
    </TTGlyph>
    <TTGlyph name="Oslashacute.sc" xMin="-6" yMin="-55" xMax="810" yMax="868">
      <component glyphName="oslashacute.sc" x="0" y="0" flags="0x204"/>
    </TTGlyph>
    <TTGlyph name="Otilde" xMin="31" yMin="-26" xMax="859" yMax="1017">
      <component glyphName="O" x="0" y="0" flags="0x204"/>
      <component glyphName="tilde" x="201" y="162" flags="0x4"/>
    </TTGlyph>
    <TTGlyph name="Otilde.sc" xMin="37" yMin="-23" xMax="767" yMax="922">
      <component glyphName="otilde.sc" x="0" y="0" flags="0x204"/>
    </TTGlyph>
    <TTGlyph name="P" xMin="69" yMin="0" xMax="793" yMax="700">
      <contour>
        <pt x="69" y="0" on="1"/>
        <pt x="69" y="700" on="1"/>
        <pt x="522" y="700" on="1"/>
        <pt x="654" y="700" on="0"/>
        <pt x="793" y="556" on="0"/>
        <pt x="793" y="431" on="1"/>
        <pt x="793" y="361" on="0"/>
        <pt x="750" y="257" on="0"/>
        <pt x="674" y="189" on="0"/>
        <pt x="568" y="156" on="0"/>
        <pt x="506" y="156" on="1"/>
        <pt x="331" y="156" on="1"/>
        <pt x="331" y="0" on="1"/>
      </contour>
      <contour>
        <pt x="331" y="346" on="1"/>
        <pt x="463" y="346" on="1"/>
        <pt x="503" y="346" on="0"/>
        <pt x="539" y="391" on="0"/>
        <pt x="539" y="425" on="1"/>
        <pt x="539" y="463" on="0"/>
        <pt x="501" y="504" on="0"/>
        <pt x="461" y="504" on="1"/>
        <pt x="331" y="504" on="1"/>
      </contour>
    </TTGlyph>
    <TTGlyph name="P.sc" xMin="66" yMin="0" xMax="720" yMax="608">
      <component glyphName="p.sc" x="0" y="0" flags="0x204"/>
    </TTGlyph>
    <TTGlyph name="Q" xMin="31" yMin="-40" xMax="882" yMax="726">
      <contour>
        <pt x="445" y="726" on="1"/>
        <pt x="540" y="726" on="0"/>
        <pt x="694" y="674" on="0"/>
        <pt x="801" y="577" on="0"/>
        <pt x="859" y="437" on="0"/>
        <pt x="859" y="350" on="1"/>
        <pt x="859" y="310" on="0"/>
        <pt x="843" y="236" on="0"/>
        <pt x="827" y="204" on="1"/>
        <pt x="882" y="171" on="1"/>
        <pt x="882" y="-40" on="1"/>
        <pt x="881" y="-40" on="1"/>
        <pt x="719" y="58" on="1"/>
        <pt x="668" y="18" on="0"/>
        <pt x="529" y="-26" on="0"/>
        <pt x="445" y="-26" on="1"/>
        <pt x="350" y="-26" on="0"/>
        <pt x="196" y="26" on="0"/>
        <pt x="89" y="123" on="0"/>
        <pt x="31" y="263" on="0"/>
        <pt x="31" y="350" on="1"/>
        <pt x="31" y="437" on="0"/>
        <pt x="89" y="577" on="0"/>
        <pt x="196" y="674" on="0"/>
        <pt x="350" y="726" on="0"/>
      </contour>
      <contour>
        <pt x="454" y="512" on="1"/>
        <pt x="375" y="512" on="0"/>
        <pt x="287" y="421" on="0"/>
        <pt x="287" y="341" on="1"/>
        <pt x="287" y="261" on="0"/>
        <pt x="375" y="170" on="0"/>
        <pt x="454" y="170" on="1"/>
        <pt x="474" y="170" on="0"/>
        <pt x="511" y="176" on="0"/>
        <pt x="527" y="182" on="1"/>
        <pt x="404" y="251" on="1"/>
        <pt x="486" y="387" on="1"/>
        <pt x="620" y="312" on="1"/>
        <pt x="621" y="319" on="0"/>
        <pt x="622" y="334" on="0"/>
        <pt x="622" y="341" on="1"/>
        <pt x="622" y="421" on="0"/>
        <pt x="534" y="512" on="0"/>
      </contour>
    </TTGlyph>
    <TTGlyph name="Q.sc" xMin="37" yMin="-39" xMax="791" yMax="631">
      <component glyphName="q.sc" x="0" y="0" flags="0x204"/>
    </TTGlyph>
    <TTGlyph name="R" xMin="69" yMin="0" xMax="829" yMax="700">
      <contour>
        <pt x="69" y="0" on="1"/>
        <pt x="69" y="700" on="1"/>
        <pt x="510" y="700" on="1"/>
        <pt x="654" y="700" on="0"/>
        <pt x="797" y="566" on="0"/>
        <pt x="797" y="440" on="1"/>
        <pt x="797" y="359" on="0"/>
        <pt x="734" y="246" on="0"/>
        <pt x="674" y="216" on="1"/>
        <pt x="829" y="0" on="1"/>
        <pt x="539" y="0" on="1"/>
        <pt x="426" y="164" on="1"/>
        <pt x="331" y="164" on="1"/>
        <pt x="331" y="0" on="1"/>
      </contour>
      <contour>
        <pt x="331" y="353" on="1"/>
        <pt x="462" y="353" on="1"/>
        <pt x="505" y="353" on="0"/>
        <pt x="540" y="397" on="0"/>
        <pt x="540" y="429" on="1"/>
        <pt x="540" y="461" on="0"/>
        <pt x="505" y="504" on="0"/>
        <pt x="462" y="504" on="1"/>
        <pt x="331" y="504" on="1"/>
      </contour>
    </TTGlyph>
    <TTGlyph name="R.sc" xMin="66" yMin="0" xMax="757" yMax="608">
      <component glyphName="r.sc" x="0" y="0" flags="0x204"/>
    </TTGlyph>
    <TTGlyph name="R_p" xMin="70" yMin="-218" xMax="1510" yMax="700">
      <contour>
        <pt x="70" y="0" on="1"/>
        <pt x="70" y="700" on="1"/>
        <pt x="491" y="700" on="1"/>
        <pt x="630" y="700" on="0"/>
        <pt x="768" y="567" on="0"/>
        <pt x="768" y="441" on="1"/>
        <pt x="768" y="362" on="0"/>
        <pt x="711" y="250" on="0"/>
        <pt x="655" y="220" on="1"/>
        <pt x="808" y="0" on="1"/>
        <pt x="524" y="0" on="1"/>
        <pt x="414" y="166" on="1"/>
        <pt x="327" y="166" on="1"/>
        <pt x="327" y="0" on="1"/>
      </contour>
      <contour>
        <pt x="836" y="-218" on="1"/>
        <pt x="836" y="564" on="1"/>
        <pt x="1085" y="564" on="1"/>
        <pt x="1087" y="482" on="1"/>
        <pt x="1118" y="531" on="0"/>
        <pt x="1204" y="584" on="0"/>
        <pt x="1267" y="584" on="1"/>
        <pt x="1324" y="584" on="0"/>
        <pt x="1415" y="543" on="0"/>
        <pt x="1477" y="469" on="0"/>
        <pt x="1510" y="366" on="0"/>
        <pt x="1510" y="304" on="1"/>
        <pt x="1510" y="230" on="0"/>
        <pt x="1466" y="112" on="0"/>
        <pt x="1388" y="29" on="0"/>
        <pt x="1281" y="-15" on="0"/>
        <pt x="1219" y="-15" on="1"/>
        <pt x="1182" y="-15" on="0"/>
        <pt x="1121" y="-2" on="0"/>
        <pt x="1093" y="13" on="1"/>
        <pt x="1093" y="-218" on="1"/>
      </contour>
      <contour>
        <pt x="327" y="351" on="1"/>
        <pt x="439" y="351" on="1"/>
        <pt x="482" y="351" on="0"/>
        <pt x="515" y="397" on="0"/>
        <pt x="515" y="430" on="1"/>
        <pt x="515" y="463" on="0"/>
        <pt x="482" y="508" on="0"/>
        <pt x="439" y="508" on="1"/>
        <pt x="327" y="508" on="1"/>
      </contour>
      <contour>
        <pt x="1158" y="173" on="1"/>
        <pt x="1198" y="173" on="0"/>
        <pt x="1253" y="229" on="0"/>
        <pt x="1253" y="287" on="1"/>
        <pt x="1253" y="336" on="0"/>
        <pt x="1206" y="391" on="0"/>
        <pt x="1168" y="391" on="1"/>
        <pt x="1145" y="391" on="0"/>
        <pt x="1109" y="379" on="0"/>
        <pt x="1093" y="367" on="1"/>
        <pt x="1093" y="191" on="1"/>
        <pt x="1107" y="182" on="0"/>
        <pt x="1139" y="173" on="0"/>
      </contour>
    </TTGlyph>
    <TTGlyph name="Racute" xMin="69" yMin="0" xMax="829" yMax="957">
      <component glyphName="R" x="0" y="0" flags="0x204"/>
      <component glyphName="acute" x="222" y="136" flags="0x4"/>
    </TTGlyph>
    <TTGlyph name="Racute.sc" xMin="66" yMin="0" xMax="757" yMax="865">
      <component glyphName="racute.sc" x="0" y="0" flags="0x204"/>
    </TTGlyph>
    <TTGlyph name="Rcaron" xMin="69" yMin="0" xMax="829" yMax="975">
      <component glyphName="R" x="0" y="0" flags="0x204"/>
      <component glyphName="caron" x="169" y="136" flags="0x4"/>
    </TTGlyph>
    <TTGlyph name="Rcaron.sc" xMin="66" yMin="0" xMax="757" yMax="883">
      <component glyphName="rcaron.sc" x="0" y="0" flags="0x204"/>
    </TTGlyph>
    <TTGlyph name="S" xMin="55" yMin="-21" xMax="749" yMax="721">
      <contour>
        <pt x="390" y="-21" on="1"/>
        <pt x="306" y="-21" on="0"/>
        <pt x="153" y="7" on="0"/>
        <pt x="62" y="38" on="1"/>
        <pt x="62" y="262" on="1"/>
        <pt x="63" y="262" on="1"/>
        <pt x="163" y="214" on="0"/>
        <pt x="334" y="173" on="0"/>
        <pt x="409" y="173" on="1"/>
        <pt x="451" y="173" on="0"/>
        <pt x="493" y="187" on="0"/>
        <pt x="493" y="206" on="1"/>
        <pt x="493" y="215" on="0"/>
        <pt x="485" y="226" on="0"/>
        <pt x="455" y="236" on="0"/>
        <pt x="394" y="247" on="0"/>
        <pt x="342" y="255" on="1"/>
        <pt x="191" y="277" on="0"/>
        <pt x="55" y="380" on="0"/>
        <pt x="55" y="487" on="1"/>
        <pt x="55" y="594" on="0"/>
        <pt x="246" y="721" on="0"/>
        <pt x="418" y="721" on="1"/>
        <pt x="487" y="721" on="0"/>
        <pt x="624" y="699" on="0"/>
        <pt x="699" y="674" on="1"/>
        <pt x="699" y="454" on="1"/>
        <pt x="698" y="452" on="1"/>
        <pt x="666" y="469" on="0"/>
        <pt x="590" y="497" on="0"/>
        <pt x="512" y="516" on="0"/>
        <pt x="434" y="527" on="0"/>
        <pt x="401" y="527" on="1"/>
        <pt x="355" y="527" on="0"/>
        <pt x="315" y="513" on="0"/>
        <pt x="315" y="496" on="1"/>
        <pt x="315" y="487" on="0"/>
        <pt x="324" y="476" on="0"/>
        <pt x="355" y="466" on="0"/>
        <pt x="415" y="455" on="0"/>
        <pt x="465" y="447" on="1"/>
        <pt x="617" y="422" on="0"/>
        <pt x="749" y="322" on="0"/>
        <pt x="749" y="212" on="1"/>
        <pt x="749" y="105" on="0"/>
        <pt x="566" y="-21" on="0"/>
      </contour>
    </TTGlyph>
    <TTGlyph name="S.sc" xMin="54" yMin="-19" xMax="670" yMax="627">
      <component glyphName="s.sc" x="0" y="0" flags="0x204"/>
    </TTGlyph>
    <TTGlyph name="Sacute" xMin="55" yMin="-21" xMax="749" yMax="978">
      <component glyphName="S" x="0" y="0" flags="0x204"/>
      <component glyphName="acute" x="198" y="157" flags="0x4"/>
    </TTGlyph>
    <TTGlyph name="Sacute.sc" xMin="54" yMin="-19" xMax="670" yMax="884">
      <component glyphName="sacute.sc" x="0" y="0" flags="0x204"/>
    </TTGlyph>
    <TTGlyph name="Scaron" xMin="55" yMin="-21" xMax="749" yMax="996">
      <component glyphName="S" x="0" y="0" flags="0x204"/>
      <component glyphName="caron" x="145" y="157" flags="0x4"/>
    </TTGlyph>
    <TTGlyph name="Scaron.sc" xMin="54" yMin="-19" xMax="670" yMax="902">
      <component glyphName="scaron.sc" x="0" y="0" flags="0x204"/>
    </TTGlyph>
    <TTGlyph name="Scedilla" xMin="55" yMin="-206" xMax="749" yMax="721">
      <contour>
        <pt x="749" y="212" on="1"/>
        <pt x="749" y="122" on="0"/>
        <pt x="618" y="2" on="0"/>
        <pt x="490" y="-15" on="1"/>
        <pt x="416" y="-206" on="1"/>
        <pt x="143" y="-206" on="1"/>
        <pt x="143" y="-179" on="1"/>
        <pt x="295" y="-16" on="1"/>
        <pt x="240" y="-11" on="0"/>
        <pt x="126" y="16" on="0"/>
        <pt x="62" y="38" on="1"/>
        <pt x="62" y="262" on="1"/>
        <pt x="63" y="262" on="1"/>
        <pt x="163" y="214" on="0"/>
        <pt x="334" y="173" on="0"/>
        <pt x="409" y="173" on="1"/>
        <pt x="451" y="173" on="0"/>
        <pt x="493" y="187" on="0"/>
        <pt x="493" y="206" on="1"/>
        <pt x="493" y="215" on="0"/>
        <pt x="485" y="226" on="0"/>
        <pt x="455" y="236" on="0"/>
        <pt x="394" y="247" on="0"/>
        <pt x="342" y="255" on="1"/>
        <pt x="191" y="277" on="0"/>
        <pt x="55" y="380" on="0"/>
        <pt x="55" y="487" on="1"/>
        <pt x="55" y="594" on="0"/>
        <pt x="246" y="721" on="0"/>
        <pt x="418" y="721" on="1"/>
        <pt x="487" y="721" on="0"/>
        <pt x="624" y="699" on="0"/>
        <pt x="699" y="674" on="1"/>
        <pt x="699" y="454" on="1"/>
        <pt x="698" y="452" on="1"/>
        <pt x="666" y="469" on="0"/>
        <pt x="590" y="497" on="0"/>
        <pt x="512" y="516" on="0"/>
        <pt x="434" y="527" on="0"/>
        <pt x="401" y="527" on="1"/>
        <pt x="355" y="527" on="0"/>
        <pt x="315" y="513" on="0"/>
        <pt x="315" y="496" on="1"/>
        <pt x="315" y="487" on="0"/>
        <pt x="324" y="476" on="0"/>
        <pt x="355" y="466" on="0"/>
        <pt x="415" y="455" on="0"/>
        <pt x="465" y="447" on="1"/>
        <pt x="617" y="422" on="0"/>
        <pt x="749" y="322" on="0"/>
      </contour>
    </TTGlyph>
    <TTGlyph name="Scedilla.sc" xMin="54" yMin="-205" xMax="670" yMax="627">
      <component glyphName="scedilla.sc" x="0" y="0" flags="0x204"/>
    </TTGlyph>
    <TTGlyph name="T" xMin="25" yMin="0" xMax="763" yMax="700">
      <contour>
        <pt x="263" y="0" on="1"/>
        <pt x="263" y="486" on="1"/>
        <pt x="25" y="486" on="1"/>
        <pt x="36" y="700" on="1"/>
        <pt x="752" y="700" on="1"/>
        <pt x="763" y="486" on="1"/>
        <pt x="525" y="486" on="1"/>
        <pt x="525" y="0" on="1"/>
      </contour>
    </TTGlyph>
    <TTGlyph name="T.sc" xMin="27" yMin="0" xMax="690" yMax="608">
      <component glyphName="t.sc" x="0" y="0" flags="0x204"/>
    </TTGlyph>
    <TTGlyph name="Tcaron" xMin="25" yMin="0" xMax="763" yMax="975">
      <component glyphName="T" x="0" y="0" flags="0x204"/>
      <component glyphName="caron" x="144" y="136" flags="0x4"/>
    </TTGlyph>
    <TTGlyph name="Tcaron.sc" xMin="27" yMin="0" xMax="690" yMax="883">
      <component glyphName="tcaron.sc" x="0" y="0" flags="0x204"/>
    </TTGlyph>
    <TTGlyph name="Thorn" xMin="69" yMin="0" xMax="803" yMax="700">
      <contour>
        <pt x="69" y="0" on="1"/>
        <pt x="69" y="700" on="1"/>
        <pt x="331" y="700" on="1"/>
        <pt x="331" y="620" on="1"/>
        <pt x="532" y="620" on="1"/>
        <pt x="664" y="620" on="0"/>
        <pt x="803" y="478" on="0"/>
        <pt x="803" y="356" on="1"/>
        <pt x="803" y="287" on="0"/>
        <pt x="760" y="185" on="0"/>
        <pt x="684" y="119" on="0"/>
        <pt x="578" y="86" on="0"/>
        <pt x="516" y="86" on="1"/>
        <pt x="331" y="86" on="1"/>
        <pt x="331" y="0" on="1"/>
      </contour>
      <contour>
        <pt x="331" y="276" on="1"/>
        <pt x="473" y="276" on="1"/>
        <pt x="513" y="276" on="0"/>
        <pt x="549" y="319" on="0"/>
        <pt x="549" y="350" on="1"/>
        <pt x="549" y="386" on="0"/>
        <pt x="511" y="424" on="0"/>
        <pt x="471" y="424" on="1"/>
        <pt x="331" y="424" on="1"/>
      </contour>
    </TTGlyph>
    <TTGlyph name="Thorn.sc" xMin="66" yMin="0" xMax="728" yMax="608">
      <component glyphName="thorn.sc" x="0" y="0" flags="0x204"/>
    </TTGlyph>
    <TTGlyph name="U" xMin="62" yMin="-27" xMax="811" yMax="700">
      <contour>
        <pt x="436" y="-27" on="1"/>
        <pt x="350" y="-27" on="0"/>
        <pt x="211" y="5" on="0"/>
        <pt x="114" y="77" on="0"/>
        <pt x="62" y="194" on="0"/>
        <pt x="62" y="279" on="1"/>
        <pt x="62" y="700" on="1"/>
        <pt x="324" y="700" on="1"/>
        <pt x="324" y="303" on="1"/>
        <pt x="324" y="242" on="0"/>
        <pt x="388" y="199" on="0"/>
        <pt x="436" y="199" on="1"/>
        <pt x="485" y="199" on="0"/>
        <pt x="549" y="242" on="0"/>
        <pt x="549" y="302" on="1"/>
        <pt x="549" y="700" on="1"/>
        <pt x="811" y="700" on="1"/>
        <pt x="811" y="279" on="1"/>
        <pt x="811" y="194" on="0"/>
        <pt x="759" y="77" on="0"/>
        <pt x="662" y="5" on="0"/>
        <pt x="522" y="-27" on="0"/>
      </contour>
    </TTGlyph>
    <TTGlyph name="U.sc" xMin="61" yMin="-26" xMax="729" yMax="608">
      <component glyphName="u.sc" x="0" y="0" flags="0x204"/>
    </TTGlyph>
    <TTGlyph name="Uacute" xMin="62" yMin="-27" xMax="811" yMax="933">
      <component glyphName="U" x="0" y="0" flags="0x204"/>
      <component glyphName="acute" x="239" y="112" flags="0x4"/>
    </TTGlyph>
    <TTGlyph name="Uacute.sc" xMin="61" yMin="-26" xMax="729" yMax="840">
      <component glyphName="uacute.sc" x="0" y="0" flags="0x204"/>
    </TTGlyph>
    <TTGlyph name="Ubreve" xMin="62" yMin="-27" xMax="811" yMax="969">
      <component glyphName="U" x="0" y="0" flags="0x204"/>
      <component glyphName="breve" x="186" y="112" flags="0x4"/>
    </TTGlyph>
    <TTGlyph name="Ubreve.sc" xMin="61" yMin="-26" xMax="729" yMax="876">
      <component glyphName="ubreve.sc" x="0" y="0" flags="0x204"/>
    </TTGlyph>
    <TTGlyph name="Ucircumflex" xMin="62" yMin="-27" xMax="811" yMax="975">
      <component glyphName="U" x="0" y="0" flags="0x204"/>
      <component glyphName="circumflex" x="186" y="136" flags="0x4"/>
    </TTGlyph>
    <TTGlyph name="Ucircumflex.sc" xMin="61" yMin="-26" xMax="729" yMax="883">
      <component glyphName="ucircumflex.sc" x="0" y="0" flags="0x204"/>
    </TTGlyph>
    <TTGlyph name="Udieresis" xMin="62" yMin="-27" xMax="811" yMax="974">
      <component glyphName="U" x="0" y="0" flags="0x204"/>
      <component glyphName="dieresis" x="186" y="136" flags="0x4"/>
    </TTGlyph>
    <TTGlyph name="Udieresis.sc" xMin="61" yMin="-26" xMax="729" yMax="882">
      <component glyphName="udieresis.sc" x="0" y="0" flags="0x204"/>
    </TTGlyph>
    <TTGlyph name="Ugrave" xMin="62" yMin="-27" xMax="811" yMax="933">
      <component glyphName="U" x="0" y="0" flags="0x204"/>
      <component glyphName="grave" x="134" y="112" flags="0x4"/>
    </TTGlyph>
    <TTGlyph name="Ugrave.sc" xMin="61" yMin="-26" xMax="729" yMax="840">
      <component glyphName="ugrave.sc" x="0" y="0" flags="0x204"/>
    </TTGlyph>
    <TTGlyph name="Uhungarumlaut" xMin="62" yMin="-27" xMax="811" yMax="957">
      <component glyphName="U" x="0" y="0" flags="0x204"/>
      <component glyphName="hungarumlaut" x="237" y="136" flags="0x4"/>
    </TTGlyph>
    <TTGlyph name="Uhungarumlaut.sc" xMin="61" yMin="-26" xMax="784" yMax="865">
      <component glyphName="uhungarumlaut.sc" x="0" y="0" flags="0x204"/>
    </TTGlyph>
    <TTGlyph name="Umacron" xMin="62" yMin="-27" xMax="811" yMax="944">
      <component glyphName="U" x="0" y="0" flags="0x204"/>
      <component glyphName="macron" x="186" y="136" flags="0x4"/>
    </TTGlyph>
    <TTGlyph name="Umacron.sc" xMin="61" yMin="-26" xMax="729" yMax="852">
      <component glyphName="umacron.sc" x="0" y="0" flags="0x204"/>
    </TTGlyph>
    <TTGlyph name="Uogonek" xMin="62" yMin="-326" xMax="811" yMax="700">
      <contour>
        <pt x="621" y="-304" on="1"/>
        <pt x="586" y="-315" on="0"/>
        <pt x="526" y="-326" on="0"/>
        <pt x="487" y="-326" on="1"/>
        <pt x="421" y="-326" on="0"/>
        <pt x="338" y="-301" on="0"/>
        <pt x="291" y="-264" on="0"/>
        <pt x="274" y="-219" on="0"/>
        <pt x="274" y="-200" on="1"/>
        <pt x="274" y="-154" on="0"/>
        <pt x="335" y="-73" on="0"/>
        <pt x="411" y="-27" on="1"/>
        <pt x="250" y="-23" on="0"/>
        <pt x="62" y="116" on="0"/>
        <pt x="62" y="279" on="1"/>
        <pt x="62" y="700" on="1"/>
        <pt x="324" y="700" on="1"/>
        <pt x="324" y="303" on="1"/>
        <pt x="324" y="242" on="0"/>
        <pt x="388" y="199" on="0"/>
        <pt x="436" y="199" on="1"/>
        <pt x="485" y="199" on="0"/>
        <pt x="549" y="242" on="0"/>
        <pt x="549" y="302" on="1"/>
        <pt x="549" y="700" on="1"/>
        <pt x="811" y="700" on="1"/>
        <pt x="811" y="279" on="1"/>
        <pt x="811" y="148" on="0"/>
        <pt x="688" y="9" on="0"/>
        <pt x="580" y="-14" on="1"/>
        <pt x="544" y="-47" on="1"/>
        <pt x="508" y="-80" on="0"/>
        <pt x="481" y="-112" on="0"/>
        <pt x="481" y="-129" on="1"/>
        <pt x="481" y="-146" on="0"/>
        <pt x="508" y="-163" on="0"/>
        <pt x="538" y="-163" on="1"/>
        <pt x="554" y="-163" on="0"/>
        <pt x="598" y="-157" on="0"/>
        <pt x="621" y="-148" on="1"/>
      </contour>
    </TTGlyph>
    <TTGlyph name="Uogonek.sc" xMin="61" yMin="-325" xMax="729" yMax="608">
      <component glyphName="uogonek.sc" x="0" y="0" flags="0x204"/>
    </TTGlyph>
    <TTGlyph name="Uring" xMin="62" yMin="-27" xMax="811" yMax="1073">
      <component glyphName="U" x="0" y="0" flags="0x204"/>
      <component glyphName="ring" x="130" y="112" flags="0x4"/>
    </TTGlyph>
    <TTGlyph name="Uring.sc" xMin="61" yMin="-26" xMax="729" yMax="980">
      <component glyphName="uring.sc" x="0" y="0" flags="0x204"/>
    </TTGlyph>
    <TTGlyph name="V" xMin="10" yMin="0" xMax="869" yMax="700">
      <contour>
        <pt x="236" y="0" on="1"/>
        <pt x="10" y="700" on="1"/>
        <pt x="293" y="700" on="1"/>
        <pt x="431" y="235" on="1"/>
        <pt x="452" y="235" on="1"/>
        <pt x="589" y="700" on="1"/>
        <pt x="869" y="700" on="1"/>
        <pt x="643" y="0" on="1"/>
      </contour>
    </TTGlyph>
    <TTGlyph name="V.sc" xMin="12" yMin="0" xMax="782" yMax="608">
      <component glyphName="v.sc" x="0" y="0" flags="0x204"/>
    </TTGlyph>
    <TTGlyph name="W" xMin="20" yMin="0" xMax="1256" yMax="700">
      <contour>
        <pt x="195" y="0" on="1"/>
        <pt x="20" y="700" on="1"/>
        <pt x="299" y="700" on="1"/>
        <pt x="390" y="269" on="1"/>
        <pt x="400" y="269" on="1"/>
        <pt x="520" y="700" on="1"/>
        <pt x="775" y="700" on="1"/>
        <pt x="893" y="269" on="1"/>
        <pt x="902" y="269" on="1"/>
        <pt x="991" y="700" on="1"/>
        <pt x="1256" y="700" on="1"/>
        <pt x="1082" y="0" on="1"/>
        <pt x="747" y="0" on="1"/>
        <pt x="643" y="368" on="1"/>
        <pt x="636" y="368" on="1"/>
        <pt x="530" y="0" on="1"/>
      </contour>
    </TTGlyph>
    <TTGlyph name="W.sc" xMin="22" yMin="0" xMax="1064" yMax="608">
      <component glyphName="w.sc" x="0" y="0" flags="0x204"/>
    </TTGlyph>
    <TTGlyph name="Wacute" xMin="20" yMin="0" xMax="1256" yMax="957">
      <component glyphName="W" x="0" y="0" flags="0x204"/>
      <component glyphName="acute" x="462" y="136" flags="0x4"/>
    </TTGlyph>
    <TTGlyph name="Wacute.sc" xMin="22" yMin="0" xMax="1064" yMax="865">
      <component glyphName="wacute.sc" x="0" y="0" flags="0x204"/>
    </TTGlyph>
    <TTGlyph name="Wcircumflex" xMin="20" yMin="0" xMax="1256" yMax="975">
      <component glyphName="W" x="0" y="0" flags="0x204"/>
      <component glyphName="circumflex" x="388" y="136" flags="0x4"/>
    </TTGlyph>
    <TTGlyph name="Wcircumflex.sc" xMin="22" yMin="0" xMax="1064" yMax="883">
      <component glyphName="wcircumflex.sc" x="0" y="0" flags="0x204"/>
    </TTGlyph>
    <TTGlyph name="Wdieresis" xMin="20" yMin="0" xMax="1256" yMax="974">
      <component glyphName="W" x="0" y="0" flags="0x204"/>
      <component glyphName="dieresis" x="388" y="136" flags="0x4"/>
    </TTGlyph>
    <TTGlyph name="Wdieresis.sc" xMin="22" yMin="0" xMax="1064" yMax="882">
      <component glyphName="wdieresis.sc" x="0" y="0" flags="0x204"/>
    </TTGlyph>
    <TTGlyph name="Wgrave" xMin="20" yMin="0" xMax="1256" yMax="957">
      <component glyphName="W" x="0" y="0" flags="0x204"/>
      <component glyphName="grave" x="329" y="136" flags="0x4"/>
    </TTGlyph>
    <TTGlyph name="Wgrave.sc" xMin="22" yMin="0" xMax="1064" yMax="865">
      <component glyphName="wgrave.sc" x="0" y="0" flags="0x204"/>
    </TTGlyph>
    <TTGlyph name="X" xMin="-5" yMin="0" xMax="895" yMax="700">
      <contour>
        <pt x="300" y="0" on="1"/>
        <pt x="-5" y="0" on="1"/>
        <pt x="-5" y="1" on="1"/>
        <pt x="277" y="359" on="1"/>
        <pt x="8" y="699" on="1"/>
        <pt x="8" y="700" on="1"/>
        <pt x="319" y="700" on="1"/>
        <pt x="449" y="533" on="1"/>
        <pt x="576" y="700" on="1"/>
        <pt x="881" y="700" on="1"/>
        <pt x="881" y="699" on="1"/>
        <pt x="613" y="358" on="1"/>
        <pt x="895" y="1" on="1"/>
        <pt x="895" y="0" on="1"/>
        <pt x="584" y="0" on="1"/>
        <pt x="441" y="185" on="1"/>
      </contour>
    </TTGlyph>
    <TTGlyph name="X.sc" xMin="-7" yMin="0" xMax="801" yMax="608">
      <component glyphName="x.sc" x="0" y="0" flags="0x204"/>
    </TTGlyph>
    <TTGlyph name="Y" xMin="-12" yMin="0" xMax="850" yMax="700">
      <contour>
        <pt x="288" y="0" on="1"/>
        <pt x="288" y="207" on="1"/>
        <pt x="-12" y="700" on="1"/>
        <pt x="275" y="700" on="1"/>
        <pt x="417" y="449" on="1"/>
        <pt x="426" y="449" on="1"/>
        <pt x="569" y="700" on="1"/>
        <pt x="850" y="700" on="1"/>
        <pt x="550" y="207" on="1"/>
        <pt x="550" y="0" on="1"/>
      </contour>
    </TTGlyph>
    <TTGlyph name="Y.sc" xMin="-13" yMin="0" xMax="752" yMax="608">
      <component glyphName="y.sc" x="0" y="0" flags="0x204"/>
    </TTGlyph>
    <TTGlyph name="Yacute" xMin="-12" yMin="0" xMax="850" yMax="933">
      <component glyphName="Y" x="0" y="0" flags="0x204"/>
      <component glyphName="acute" x="222" y="112" flags="0x4"/>
    </TTGlyph>
    <TTGlyph name="Yacute.sc" xMin="-13" yMin="0" xMax="752" yMax="841">
      <component glyphName="yacute.sc" x="0" y="0" flags="0x204"/>
    </TTGlyph>
    <TTGlyph name="Ycircumflex" xMin="-12" yMin="0" xMax="850" yMax="975">
      <component glyphName="Y" x="0" y="0" flags="0x204"/>
      <component glyphName="circumflex" x="169" y="136" flags="0x4"/>
    </TTGlyph>
    <TTGlyph name="Ycircumflex.sc" xMin="-13" yMin="0" xMax="752" yMax="883">
      <component glyphName="ycircumflex.sc" x="0" y="0" flags="0x204"/>
    </TTGlyph>
    <TTGlyph name="Ydieresis" xMin="-12" yMin="0" xMax="850" yMax="974">
      <component glyphName="Y" x="0" y="0" flags="0x204"/>
      <component glyphName="dieresis" x="169" y="136" flags="0x4"/>
    </TTGlyph>
    <TTGlyph name="Ydieresis.sc" xMin="-13" yMin="0" xMax="752" yMax="882">
      <component glyphName="ydieresis.sc" x="0" y="0" flags="0x204"/>
    </TTGlyph>
    <TTGlyph name="Ygrave" xMin="-12" yMin="0" xMax="850" yMax="933">
      <component glyphName="Y" x="0" y="0" flags="0x204"/>
      <component glyphName="grave" x="117" y="112" flags="0x4"/>
    </TTGlyph>
    <TTGlyph name="Ygrave.sc" xMin="-13" yMin="0" xMax="752" yMax="841">
      <component glyphName="ygrave.sc" x="0" y="0" flags="0x204"/>
    </TTGlyph>
    <TTGlyph name="Z" xMin="52" yMin="0" xMax="738" yMax="700">
      <contour>
        <pt x="52" y="0" on="1"/>
        <pt x="52" y="203" on="1"/>
        <pt x="386" y="495" on="1"/>
        <pt x="61" y="495" on="1"/>
        <pt x="72" y="700" on="1"/>
        <pt x="734" y="700" on="1"/>
        <pt x="734" y="511" on="1"/>
        <pt x="385" y="205" on="1"/>
        <pt x="738" y="205" on="1"/>
        <pt x="738" y="0" on="1"/>
      </contour>
    </TTGlyph>
    <TTGlyph name="Z.sc" xMin="52" yMin="0" xMax="667" yMax="608">
      <component glyphName="z.sc" x="0" y="0" flags="0x204"/>
    </TTGlyph>
    <TTGlyph name="Zacute" xMin="52" yMin="0" xMax="738" yMax="957">
      <component glyphName="Z" x="0" y="0" flags="0x204"/>
      <component glyphName="acute" x="202" y="136" flags="0x4"/>
    </TTGlyph>
    <TTGlyph name="Zacute.sc" xMin="52" yMin="0" xMax="667" yMax="865">
      <component glyphName="zacute.sc" x="0" y="0" flags="0x204"/>
    </TTGlyph>
    <TTGlyph name="Zcaron" xMin="52" yMin="0" xMax="738" yMax="975">
      <component glyphName="Z" x="0" y="0" flags="0x204"/>
      <component glyphName="caron" x="149" y="136" flags="0x4"/>
    </TTGlyph>
    <TTGlyph name="Zcaron.sc" xMin="52" yMin="0" xMax="667" yMax="883">
      <component glyphName="zcaron.sc" x="0" y="0" flags="0x204"/>
    </TTGlyph>
    <TTGlyph name="Zdotaccent" xMin="52" yMin="0" xMax="738" yMax="978">
      <component glyphName="Z" x="0" y="0" flags="0x204"/>
      <component glyphName="dotaccent" x="151" y="136" flags="0x4"/>
    </TTGlyph>
    <TTGlyph name="Zdotaccent.sc" xMin="52" yMin="0" xMax="667" yMax="886">
      <component glyphName="zdotaccent.sc" x="0" y="0" flags="0x204"/>
    </TTGlyph>
    <TTGlyph name="a" xMin="24" yMin="-17" xMax="618" yMax="585">
      <contour>
        <pt x="203" y="-17" on="1"/>
        <pt x="118" y="-17" on="0"/>
        <pt x="24" y="63" on="0"/>
        <pt x="24" y="135" on="1"/>
        <pt x="24" y="165" on="0"/>
        <pt x="45" y="216" on="0"/>
        <pt x="66" y="237" on="1"/>
        <pt x="106" y="277" on="0"/>
        <pt x="261" y="325" on="0"/>
        <pt x="376" y="335" on="1"/>
        <pt x="372" y="364" on="0"/>
        <pt x="334" y="389" on="0"/>
        <pt x="294" y="389" on="1"/>
        <pt x="246" y="389" on="0"/>
        <pt x="129" y="358" on="0"/>
        <pt x="77" y="331" on="1"/>
        <pt x="76" y="331" on="1"/>
        <pt x="76" y="532" on="1"/>
        <pt x="136" y="558" on="0"/>
        <pt x="272" y="585" on="0"/>
        <pt x="341" y="585" on="1"/>
        <pt x="484" y="585" on="0"/>
        <pt x="618" y="467" on="0"/>
        <pt x="618" y="342" on="1"/>
        <pt x="618" y="0" on="1"/>
        <pt x="386" y="0" on="1"/>
        <pt x="384" y="63" on="1"/>
        <pt x="344" y="24" on="0"/>
        <pt x="252" y="-17" on="0"/>
      </contour>
      <contour>
        <pt x="303" y="140" on="1"/>
        <pt x="328" y="140" on="0"/>
        <pt x="369" y="160" on="0"/>
        <pt x="377" y="168" on="1"/>
        <pt x="377" y="234" on="1"/>
        <pt x="330" y="227" on="0"/>
        <pt x="276" y="209" on="0"/>
        <pt x="266" y="199" on="1"/>
        <pt x="262" y="195" on="0"/>
        <pt x="255" y="182" on="0"/>
        <pt x="255" y="175" on="1"/>
        <pt x="255" y="159" on="0"/>
        <pt x="280" y="140" on="0"/>
      </contour>
    </TTGlyph>
    <TTGlyph name="a.sc" xMin="19" yMin="0" xMax="798" yMax="608">
      <contour>
        <pt x="19" y="0" on="1"/>
        <pt x="207" y="608" on="1"/>
        <pt x="610" y="608" on="1"/>
        <pt x="798" y="0" on="1"/>
        <pt x="530" y="0" on="1"/>
        <pt x="506" y="94" on="1"/>
        <pt x="305" y="94" on="1"/>
        <pt x="281" y="0" on="1"/>
      </contour>
      <contour>
        <pt x="385" y="407" on="1"/>
        <pt x="342" y="253" on="1"/>
        <pt x="469" y="253" on="1"/>
        <pt x="426" y="407" on="1"/>
      </contour>
    </TTGlyph>
    <TTGlyph name="aacute" xMin="24" yMin="-17" xMax="618" yMax="821">
      <component glyphName="a" x="0" y="0" flags="0x204"/>
      <component glyphName="acute" x="146" y="0" flags="0x4"/>
    </TTGlyph>
    <TTGlyph name="aacute.sc" xMin="19" yMin="0" xMax="798" yMax="865">
      <component glyphName="a.sc" x="0" y="0" flags="0x204"/>
      <component glyphName="acute" x="210" y="44" flags="0x4"/>
    </TTGlyph>
    <TTGlyph name="abreve" xMin="24" yMin="-17" xMax="618" yMax="857">
      <component glyphName="a" x="0" y="0" flags="0x204"/>
      <component glyphName="breve" x="93" y="0" flags="0x4"/>
    </TTGlyph>
    <TTGlyph name="abreve.sc" xMin="19" yMin="0" xMax="798" yMax="901">
      <component glyphName="a.sc" x="0" y="0" flags="0x204"/>
      <component glyphName="breve" x="157" y="44" flags="0x4"/>
    </TTGlyph>
    <TTGlyph name="acircumflex" xMin="24" yMin="-17" xMax="618" yMax="839">
      <component glyphName="a" x="0" y="0" flags="0x204"/>
      <component glyphName="circumflex" x="93" y="0" flags="0x4"/>
    </TTGlyph>
    <TTGlyph name="acircumflex.sc" xMin="19" yMin="0" xMax="798" yMax="883">
      <component glyphName="a.sc" x="0" y="0" flags="0x204"/>
      <component glyphName="circumflex" x="157" y="44" flags="0x4"/>
    </TTGlyph>
    <TTGlyph name="acute" xMin="84" yMin="630" xMax="470" yMax="821">
      <contour>
        <pt x="84" y="630" on="1"/>
        <pt x="210" y="821" on="1"/>
        <pt x="470" y="821" on="1"/>
        <pt x="470" y="801" on="1"/>
        <pt x="293" y="630" on="1"/>
      </contour>
    </TTGlyph>
    <TTGlyph name="adieresis" xMin="24" yMin="-17" xMax="618" yMax="838">
      <component glyphName="a" x="0" y="0" flags="0x204"/>
      <component glyphName="dieresis" x="93" y="0" flags="0x4"/>
    </TTGlyph>
    <TTGlyph name="adieresis.sc" xMin="19" yMin="0" xMax="798" yMax="882">
      <component glyphName="a.sc" x="0" y="0" flags="0x204"/>
      <component glyphName="dieresis" x="157" y="44" flags="0x4"/>
    </TTGlyph>
    <TTGlyph name="ae" xMin="24" yMin="-21" xMax="1001" yMax="588">
      <contour>
        <pt x="963" y="28" on="1"/>
        <pt x="906" y="1" on="0"/>
        <pt x="778" y="-21" on="0"/>
        <pt x="719" y="-21" on="1"/>
        <pt x="632" y="-21" on="0"/>
        <pt x="496" y="25" on="0"/>
        <pt x="453" y="71" on="1"/>
        <pt x="403" y="28" on="0"/>
        <pt x="274" y="-17" on="0"/>
        <pt x="203" y="-17" on="1"/>
        <pt x="118" y="-17" on="0"/>
        <pt x="24" y="63" on="0"/>
        <pt x="24" y="135" on="1"/>
        <pt x="24" y="165" on="0"/>
        <pt x="45" y="216" on="0"/>
        <pt x="66" y="237" on="1"/>
        <pt x="105" y="276" on="0"/>
        <pt x="260" y="325" on="0"/>
        <pt x="376" y="335" on="1"/>
        <pt x="372" y="364" on="0"/>
        <pt x="334" y="389" on="0"/>
        <pt x="294" y="389" on="1"/>
        <pt x="246" y="389" on="0"/>
        <pt x="129" y="358" on="0"/>
        <pt x="77" y="331" on="1"/>
        <pt x="76" y="331" on="1"/>
        <pt x="76" y="532" on="1"/>
        <pt x="136" y="558" on="0"/>
        <pt x="272" y="585" on="0"/>
        <pt x="341" y="585" on="1"/>
        <pt x="401" y="585" on="0"/>
        <pt x="494" y="553" on="0"/>
        <pt x="526" y="520" on="1"/>
        <pt x="563" y="553" on="0"/>
        <pt x="660" y="588" on="0"/>
        <pt x="718" y="588" on="1"/>
        <pt x="785" y="588" on="0"/>
        <pt x="891" y="545" on="0"/>
        <pt x="963" y="469" on="0"/>
        <pt x="1001" y="362" on="0"/>
        <pt x="1001" y="298" on="1"/>
        <pt x="1001" y="282" on="0"/>
        <pt x="998" y="247" on="0"/>
        <pt x="996" y="231" on="1"/>
        <pt x="624" y="231" on="1"/>
        <pt x="634" y="188" on="0"/>
        <pt x="706" y="161" on="0"/>
        <pt x="763" y="161" on="1"/>
        <pt x="782" y="161" on="0"/>
        <pt x="833" y="167" on="0"/>
        <pt x="888" y="179" on="0"/>
        <pt x="941" y="196" on="0"/>
        <pt x="962" y="206" on="1"/>
        <pt x="963" y="206" on="1"/>
      </contour>
      <contour>
        <pt x="704" y="415" on="1"/>
        <pt x="666" y="415" on="0"/>
        <pt x="628" y="367" on="0"/>
        <pt x="623" y="330" on="1"/>
        <pt x="788" y="330" on="1"/>
        <pt x="784" y="365" on="0"/>
        <pt x="741" y="415" on="0"/>
      </contour>
      <contour>
        <pt x="255" y="175" on="1"/>
        <pt x="255" y="159" on="0"/>
        <pt x="280" y="140" on="0"/>
        <pt x="303" y="140" on="1"/>
        <pt x="337" y="140" on="0"/>
        <pt x="388" y="160" on="0"/>
        <pt x="397" y="167" on="1"/>
        <pt x="393" y="183" on="0"/>
        <pt x="385" y="216" on="0"/>
        <pt x="384" y="235" on="1"/>
        <pt x="334" y="228" on="0"/>
        <pt x="276" y="209" on="0"/>
        <pt x="266" y="199" on="1"/>
        <pt x="262" y="195" on="0"/>
        <pt x="255" y="182" on="0"/>
      </contour>
    </TTGlyph>
    <TTGlyph name="ae.sc" xMin="-14" yMin="0" xMax="1098" yMax="608">
      <contour>
        <pt x="513" y="0" on="1"/>
        <pt x="513" y="98" on="1"/>
        <pt x="308" y="98" on="1"/>
        <pt x="261" y="0" on="1"/>
        <pt x="-14" y="0" on="1"/>
        <pt x="301" y="608" on="1"/>
        <pt x="1080" y="608" on="1"/>
        <pt x="1091" y="432" on="1"/>
        <pt x="768" y="432" on="1"/>
        <pt x="768" y="373" on="1"/>
        <pt x="1011" y="373" on="1"/>
        <pt x="1011" y="232" on="1"/>
        <pt x="768" y="232" on="1"/>
        <pt x="768" y="176" on="1"/>
        <pt x="1098" y="176" on="1"/>
        <pt x="1087" y="0" on="1"/>
      </contour>
      <contour>
        <pt x="466" y="432" on="1"/>
        <pt x="384" y="261" on="1"/>
        <pt x="513" y="261" on="1"/>
        <pt x="513" y="432" on="1"/>
      </contour>
    </TTGlyph>
    <TTGlyph name="aeacute" xMin="24" yMin="-21" xMax="1001" yMax="828">
      <component glyphName="ae" x="0" y="0" flags="0x204"/>
      <component glyphName="acute" x="332" y="7" flags="0x4"/>
    </TTGlyph>
    <TTGlyph name="aeacute.sc" xMin="-14" yMin="0" xMax="1098" yMax="865">
      <component glyphName="ae.sc" x="0" y="0" flags="0x204"/>
      <component glyphName="acute" x="432" y="44" flags="0x4"/>
    </TTGlyph>
    <TTGlyph name="agrave" xMin="24" yMin="-17" xMax="618" yMax="821">
      <component glyphName="a" x="0" y="0" flags="0x204"/>
      <component glyphName="grave" x="41" y="0" flags="0x4"/>
    </TTGlyph>
    <TTGlyph name="agrave.sc" xMin="19" yMin="0" xMax="798" yMax="865">
      <component glyphName="a.sc" x="0" y="0" flags="0x204"/>
      <component glyphName="grave" x="105" y="44" flags="0x4"/>
    </TTGlyph>
    <TTGlyph name="amacron" xMin="24" yMin="-17" xMax="618" yMax="808">
      <component glyphName="a" x="0" y="0" flags="0x204"/>
      <component glyphName="macron" x="93" y="0" flags="0x4"/>
    </TTGlyph>
    <TTGlyph name="amacron.sc" xMin="19" yMin="0" xMax="798" yMax="852">
      <component glyphName="a.sc" x="0" y="0" flags="0x204"/>
      <component glyphName="macron" x="157" y="44" flags="0x4"/>
    </TTGlyph>
    <TTGlyph name="ampersand" xMin="21" yMin="-22" xMax="884" yMax="700">
      <contour>
        <pt x="272" y="-22" on="1"/>
        <pt x="161" y="-22" on="0"/>
        <pt x="23" y="85" on="0"/>
        <pt x="22" y="175" on="1"/>
        <pt x="21" y="258" on="0"/>
        <pt x="130" y="373" on="0"/>
        <pt x="228" y="427" on="1"/>
        <pt x="135" y="527" on="1"/>
        <pt x="135" y="700" on="1"/>
        <pt x="682" y="700" on="1"/>
        <pt x="693" y="519" on="1"/>
        <pt x="422" y="519" on="1"/>
        <pt x="592" y="331" on="1"/>
        <pt x="802" y="493" on="1"/>
        <pt x="803" y="490" on="1"/>
        <pt x="803" y="256" on="1"/>
        <pt x="717" y="187" on="1"/>
        <pt x="884" y="0" on="1"/>
        <pt x="617" y="0" on="1"/>
        <pt x="553" y="69" on="1"/>
        <pt x="490" y="30" on="0"/>
        <pt x="350" y="-22" on="0"/>
      </contour>
      <contour>
        <pt x="260" y="209" on="1"/>
        <pt x="260" y="191" on="0"/>
        <pt x="286" y="167" on="0"/>
        <pt x="311" y="167" on="1"/>
        <pt x="338" y="167" on="0"/>
        <pt x="398" y="194" on="0"/>
        <pt x="427" y="213" on="1"/>
        <pt x="350" y="295" on="1"/>
        <pt x="298" y="267" on="0"/>
        <pt x="260" y="228" on="0"/>
      </contour>
    </TTGlyph>
    <TTGlyph name="ampersand.sc" xMin="43" yMin="-21" xMax="839" yMax="608">
      <contour>
        <pt x="269" y="-21" on="1"/>
        <pt x="170" y="-21" on="0"/>
        <pt x="43" y="66" on="0"/>
        <pt x="43" y="147" on="1"/>
        <pt x="43" y="220" on="0"/>
        <pt x="129" y="311" on="0"/>
        <pt x="195" y="350" on="1"/>
        <pt x="224" y="367" on="1"/>
        <pt x="142" y="449" on="1"/>
        <pt x="142" y="608" on="1"/>
        <pt x="664" y="608" on="1"/>
        <pt x="675" y="437" on="1"/>
        <pt x="422" y="437" on="1"/>
        <pt x="571" y="281" on="1"/>
        <pt x="766" y="416" on="1"/>
        <pt x="767" y="416" on="1"/>
        <pt x="767" y="206" on="1"/>
        <pt x="692" y="154" on="1"/>
        <pt x="839" y="0" on="1"/>
        <pt x="592" y="0" on="1"/>
        <pt x="537" y="55" on="1"/>
        <pt x="475" y="19" on="0"/>
        <pt x="347" y="-21" on="0"/>
      </contour>
      <contour>
        <pt x="267" y="184" on="1"/>
        <pt x="267" y="170" on="0"/>
        <pt x="288" y="150" on="0"/>
        <pt x="312" y="150" on="1"/>
        <pt x="331" y="150" on="0"/>
        <pt x="377" y="163" on="0"/>
        <pt x="411" y="181" on="1"/>
        <pt x="339" y="253" on="1"/>
        <pt x="326" y="246" on="1"/>
        <pt x="287" y="224" on="0"/>
        <pt x="267" y="195" on="0"/>
      </contour>
    </TTGlyph>
    <TTGlyph name="aogonek" xMin="24" yMin="-326" xMax="644" yMax="585">
      <component glyphName="a" x="0" y="0" flags="0x204"/>
      <component glyphName="ogonek" x="216" y="0" flags="0x4"/>
    </TTGlyph>
    <TTGlyph name="aogonek.sc" xMin="19" yMin="-326" xMax="824" yMax="608">
      <component glyphName="a.sc" x="0" y="0" flags="0x204"/>
      <component glyphName="ogonek" x="396" y="0" flags="0x4"/>
    </TTGlyph>
    <TTGlyph name="aring" xMin="24" yMin="-17" xMax="618" yMax="961">
      <component glyphName="a" x="0" y="0" flags="0x204"/>
      <component glyphName="ring" x="37" y="0" flags="0x4"/>
    </TTGlyph>
    <TTGlyph name="aring.sc" xMin="19" yMin="0" xMax="798" yMax="1005">
      <component glyphName="a.sc" x="0" y="0" flags="0x204"/>
      <component glyphName="ring" x="101" y="44" flags="0x4"/>
    </TTGlyph>
    <TTGlyph name="aringacute" xMin="24" yMin="-17" xMax="618" yMax="1203">
      <component glyphName="a" x="0" y="0" flags="0x204"/>
      <component glyphName="ring" x="37" y="0" flags="0x4"/>
      <component glyphName="acute" x="146" y="382" flags="0x4"/>
    </TTGlyph>
    <TTGlyph name="aringacute.sc" xMin="19" yMin="0" xMax="798" yMax="1247">
      <component glyphName="a.sc" x="0" y="0" flags="0x204"/>
      <component glyphName="ring" x="101" y="44" flags="0x4"/>
      <component glyphName="acute" x="210" y="426" flags="0x4"/>
    </TTGlyph>
    <TTGlyph name="asciicircum" xMin="40" yMin="316" xMax="717" yMax="700">
      <contour>
        <pt x="40" y="316" on="1"/>
        <pt x="209" y="700" on="1"/>
        <pt x="548" y="700" on="1"/>
        <pt x="717" y="316" on="1"/>
        <pt x="476" y="316" on="1"/>
        <pt x="395" y="499" on="1"/>
        <pt x="362" y="499" on="1"/>
        <pt x="281" y="316" on="1"/>
      </contour>
    </TTGlyph>
    <TTGlyph name="asciicircum.tab" xMin="23" yMin="316" xMax="700" yMax="700">
      <component glyphName="asciicircum" x="-17" y="0" flags="0x4"/>
    </TTGlyph>
    <TTGlyph name="asciitilde" xMin="64" yMin="169" xMax="692" yMax="533">
      <contour>
        <pt x="64" y="424" on="1"/>
        <pt x="99" y="467" on="0"/>
        <pt x="186" y="521" on="0"/>
        <pt x="237" y="521" on="1"/>
        <pt x="287" y="521" on="0"/>
        <pt x="366" y="487" on="0"/>
        <pt x="413" y="461" on="1"/>
        <pt x="448" y="442" on="0"/>
        <pt x="497" y="422" on="0"/>
        <pt x="526" y="422" on="1"/>
        <pt x="573" y="422" on="0"/>
        <pt x="651" y="489" on="0"/>
        <pt x="691" y="533" on="1"/>
        <pt x="692" y="533" on="1"/>
        <pt x="692" y="278" on="1"/>
        <pt x="657" y="235" on="0"/>
        <pt x="570" y="181" on="0"/>
        <pt x="519" y="181" on="1"/>
        <pt x="469" y="181" on="0"/>
        <pt x="390" y="215" on="0"/>
        <pt x="343" y="241" on="1"/>
        <pt x="308" y="260" on="0"/>
        <pt x="259" y="280" on="0"/>
        <pt x="230" y="280" on="1"/>
        <pt x="183" y="280" on="0"/>
        <pt x="105" y="213" on="0"/>
        <pt x="65" y="169" on="1"/>
        <pt x="64" y="169" on="1"/>
      </contour>
    </TTGlyph>
    <TTGlyph name="asciitilde.tab" xMin="48" yMin="169" xMax="676" yMax="533">
      <component glyphName="asciitilde" x="-16" y="0" flags="0x4"/>
    </TTGlyph>
    <TTGlyph name="asterisk" xMin="69" yMin="215" xMax="556" yMax="715">
      <contour>
        <pt x="448" y="258" on="1"/>
        <pt x="340" y="297" on="1"/>
        <pt x="263" y="215" on="1"/>
        <pt x="232" y="222" on="1"/>
        <pt x="196" y="330" on="1"/>
        <pt x="83" y="340" on="1"/>
        <pt x="69" y="368" on="1"/>
        <pt x="132" y="465" on="1"/>
        <pt x="69" y="559" on="1"/>
        <pt x="82" y="588" on="1"/>
        <pt x="195" y="599" on="1"/>
        <pt x="230" y="707" on="1"/>
        <pt x="261" y="715" on="1"/>
        <pt x="341" y="632" on="1"/>
        <pt x="448" y="673" on="1"/>
        <pt x="473" y="653" on="1"/>
        <pt x="458" y="539" on="1"/>
        <pt x="556" y="481" on="1"/>
        <pt x="556" y="449" on="1"/>
        <pt x="457" y="390" on="1"/>
        <pt x="473" y="278" on="1"/>
      </contour>
    </TTGlyph>
    <TTGlyph name="at" xMin="59" yMin="-142" xMax="1080" yMax="822">
      <contour>
        <pt x="838" y="124" on="1"/>
        <pt x="784" y="124" on="0"/>
        <pt x="694" y="149" on="0"/>
        <pt x="656" y="190" on="1"/>
        <pt x="623" y="156" on="0"/>
        <pt x="540" y="118" on="0"/>
        <pt x="495" y="118" on="1"/>
        <pt x="431" y="118" on="0"/>
        <pt x="361" y="178" on="0"/>
        <pt x="361" y="231" on="1"/>
        <pt x="361" y="253" on="0"/>
        <pt x="377" y="292" on="0"/>
        <pt x="393" y="308" on="1"/>
        <pt x="422" y="338" on="0"/>
        <pt x="538" y="375" on="0"/>
        <pt x="624" y="382" on="1"/>
        <pt x="621" y="403" on="0"/>
        <pt x="593" y="422" on="0"/>
        <pt x="563" y="422" on="1"/>
        <pt x="527" y="422" on="0"/>
        <pt x="440" y="398" on="0"/>
        <pt x="401" y="378" on="1"/>
        <pt x="400" y="378" on="1"/>
        <pt x="400" y="528" on="1"/>
        <pt x="445" y="547" on="0"/>
        <pt x="546" y="568" on="0"/>
        <pt x="598" y="568" on="1"/>
        <pt x="704" y="568" on="0"/>
        <pt x="805" y="480" on="0"/>
        <pt x="805" y="387" on="1"/>
        <pt x="805" y="300" on="1"/>
        <pt x="805" y="275" on="0"/>
        <pt x="828" y="256" on="0"/>
        <pt x="848" y="256" on="1"/>
        <pt x="876" y="256" on="0"/>
        <pt x="907" y="312" on="0"/>
        <pt x="907" y="402" on="1"/>
        <pt x="907" y="527" on="0"/>
        <pt x="754" y="661" on="0"/>
        <pt x="599" y="661" on="1"/>
        <pt x="419" y="661" on="0"/>
        <pt x="242" y="489" on="0"/>
        <pt x="242" y="322" on="1"/>
        <pt x="242" y="168" on="0"/>
        <pt x="413" y="19" on="0"/>
        <pt x="597" y="19" on="1"/>
        <pt x="680" y="19" on="0"/>
        <pt x="818" y="51" on="0"/>
        <pt x="878" y="73" on="1"/>
        <pt x="874" y="-92" on="1"/>
        <pt x="822" y="-110" on="0"/>
        <pt x="674" y="-142" on="0"/>
        <pt x="584" y="-142" on="1"/>
        <pt x="333" y="-142" on="0"/>
        <pt x="59" y="85" on="0"/>
        <pt x="59" y="320" on="1"/>
        <pt x="59" y="435" on="0"/>
        <pt x="133" y="622" on="0"/>
        <pt x="271" y="751" on="0"/>
        <pt x="473" y="822" on="0"/>
        <pt x="600" y="822" on="1"/>
        <pt x="716" y="822" on="0"/>
        <pt x="896" y="765" on="0"/>
        <pt x="1017" y="660" on="0"/>
        <pt x="1080" y="509" on="0"/>
        <pt x="1080" y="417" on="1"/>
        <pt x="1080" y="267" on="0"/>
        <pt x="954" y="124" on="0"/>
      </contour>
      <contour>
        <pt x="570" y="235" on="1"/>
        <pt x="589" y="235" on="0"/>
        <pt x="619" y="250" on="0"/>
        <pt x="625" y="256" on="1"/>
        <pt x="625" y="306" on="1"/>
        <pt x="590" y="301" on="0"/>
        <pt x="549" y="287" on="0"/>
        <pt x="542" y="279" on="1"/>
        <pt x="538" y="276" on="0"/>
        <pt x="534" y="266" on="0"/>
        <pt x="534" y="261" on="1"/>
        <pt x="534" y="250" on="0"/>
        <pt x="552" y="235" on="0"/>
      </contour>
    </TTGlyph>
    <TTGlyph name="at.cap" xMin="59" yMin="-132" xMax="1080" yMax="832">
      <component glyphName="at" x="0" y="10" flags="0x4"/>
    </TTGlyph>
    <TTGlyph name="atilde" xMin="24" yMin="-17" xMax="618" yMax="855">
      <component glyphName="a" x="0" y="0" flags="0x204"/>
      <component glyphName="tilde" x="99" y="0" flags="0x4"/>
    </TTGlyph>
    <TTGlyph name="atilde.sc" xMin="19" yMin="0" xMax="798" yMax="899">
      <component glyphName="a.sc" x="0" y="0" flags="0x204"/>
      <component glyphName="tilde" x="163" y="44" flags="0x4"/>
    </TTGlyph>
    <TTGlyph name="b" xMin="58" yMin="-17" xMax="732" yMax="792">
      <contour>
        <pt x="315" y="792" on="1"/>
        <pt x="315" y="494" on="1"/>
        <pt x="343" y="534" on="0"/>
        <pt x="426" y="583" on="0"/>
        <pt x="489" y="583" on="1"/>
        <pt x="546" y="583" on="0"/>
        <pt x="637" y="542" on="0"/>
        <pt x="699" y="468" on="0"/>
        <pt x="732" y="365" on="0"/>
        <pt x="732" y="303" on="1"/>
        <pt x="732" y="229" on="0"/>
        <pt x="684" y="110" on="0"/>
        <pt x="597" y="27" on="0"/>
        <pt x="472" y="-17" on="0"/>
        <pt x="397" y="-17" on="1"/>
        <pt x="352" y="-17" on="0"/>
        <pt x="262" y="1" on="0"/>
        <pt x="219" y="20" on="1"/>
        <pt x="58" y="20" on="1"/>
        <pt x="58" y="792" on="1"/>
      </contour>
      <contour>
        <pt x="390" y="390" on="1"/>
        <pt x="367" y="390" on="0"/>
        <pt x="331" y="379" on="0"/>
        <pt x="315" y="370" on="1"/>
        <pt x="315" y="188" on="1"/>
        <pt x="334" y="179" on="0"/>
        <pt x="365" y="172" on="0"/>
        <pt x="378" y="172" on="1"/>
        <pt x="419" y="172" on="0"/>
        <pt x="475" y="228" on="0"/>
        <pt x="475" y="286" on="1"/>
        <pt x="475" y="335" on="0"/>
        <pt x="428" y="390" on="0"/>
      </contour>
    </TTGlyph>
    <TTGlyph name="b.sc" xMin="66" yMin="0" xMax="735" yMax="608">
      <contour>
        <pt x="66" y="0" on="1"/>
        <pt x="66" y="608" on="1"/>
        <pt x="509" y="608" on="1"/>
        <pt x="608" y="608" on="0"/>
        <pt x="722" y="530" on="0"/>
        <pt x="722" y="455" on="1"/>
        <pt x="722" y="404" on="0"/>
        <pt x="675" y="334" on="0"/>
        <pt x="618" y="314" on="1"/>
        <pt x="677" y="292" on="0"/>
        <pt x="735" y="225" on="0"/>
        <pt x="735" y="171" on="1"/>
        <pt x="735" y="124" on="0"/>
        <pt x="699" y="58" on="0"/>
        <pt x="636" y="18" on="0"/>
        <pt x="547" y="0" on="0"/>
        <pt x="495" y="0" on="1"/>
      </contour>
      <contour>
        <pt x="321" y="365" on="1"/>
        <pt x="410" y="365" on="1"/>
        <pt x="439" y="365" on="0"/>
        <pt x="464" y="386" on="0"/>
        <pt x="464" y="408" on="1"/>
        <pt x="464" y="429" on="0"/>
        <pt x="438" y="450" on="0"/>
        <pt x="410" y="450" on="1"/>
        <pt x="321" y="450" on="1"/>
      </contour>
      <contour>
        <pt x="321" y="159" on="1"/>
        <pt x="421" y="159" on="1"/>
        <pt x="451" y="159" on="0"/>
        <pt x="476" y="179" on="0"/>
        <pt x="476" y="202" on="1"/>
        <pt x="476" y="226" on="0"/>
        <pt x="449" y="246" on="0"/>
        <pt x="422" y="246" on="1"/>
        <pt x="321" y="246" on="1"/>
      </contour>
    </TTGlyph>
    <TTGlyph name="backslash" xMin="28" yMin="-214" xMax="608" yMax="792">
      <contour>
        <pt x="608" y="-214" on="1"/>
        <pt x="367" y="-214" on="1"/>
        <pt x="28" y="792" on="1"/>
        <pt x="269" y="792" on="1"/>
      </contour>
    </TTGlyph>
    <TTGlyph name="backslash.cap" xMin="30" yMin="-153" xMax="610" yMax="853">
      <component glyphName="backslash" x="2" y="61" flags="0x4"/>
    </TTGlyph>
    <TTGlyph name="bar" xMin="191" yMin="-214" xMax="422" yMax="792">
      <contour>
        <pt x="191" y="-214" on="1"/>
        <pt x="191" y="792" on="1"/>
        <pt x="422" y="792" on="1"/>
        <pt x="422" y="-214" on="1"/>
      </contour>
    </TTGlyph>
    <TTGlyph name="bar.cap" xMin="191" yMin="-153" xMax="422" yMax="853">
      <component glyphName="bar" x="0" y="61" flags="0x4"/>
    </TTGlyph>
    <TTGlyph name="bar.tab" xMin="156" yMin="-153" xMax="387" yMax="853">
      <component glyphName="bar" x="-35" y="61" flags="0x4"/>
    </TTGlyph>
    <TTGlyph name="braceleft" xMin="4" yMin="-238" xMax="581" yMax="816">
      <contour>
        <pt x="4" y="273" on="1"/>
        <pt x="4" y="305" on="1"/>
        <pt x="182" y="476" on="1"/>
        <pt x="176" y="521" on="1"/>
        <pt x="175" y="534" on="0"/>
        <pt x="173" y="558" on="0"/>
        <pt x="173" y="569" on="1"/>
        <pt x="173" y="682" on="0"/>
        <pt x="321" y="816" on="0"/>
        <pt x="450" y="816" on="1"/>
        <pt x="487" y="816" on="0"/>
        <pt x="549" y="808" on="0"/>
        <pt x="581" y="799" on="1"/>
        <pt x="581" y="610" on="1"/>
        <pt x="580" y="610" on="1"/>
        <pt x="562" y="617" on="0"/>
        <pt x="524" y="624" on="0"/>
        <pt x="506" y="624" on="1"/>
        <pt x="452" y="624" on="0"/>
        <pt x="395" y="563" on="0"/>
        <pt x="395" y="507" on="1"/>
        <pt x="395" y="498" on="0"/>
        <pt x="397" y="479" on="0"/>
        <pt x="398" y="469" on="1"/>
        <pt x="408" y="402" on="1"/>
        <pt x="265" y="289" on="1"/>
        <pt x="408" y="176" on="1"/>
        <pt x="398" y="109" on="1"/>
        <pt x="397" y="99" on="0"/>
        <pt x="395" y="80" on="0"/>
        <pt x="395" y="71" on="1"/>
        <pt x="395" y="15" on="0"/>
        <pt x="452" y="-46" on="0"/>
        <pt x="506" y="-46" on="1"/>
        <pt x="524" y="-46" on="0"/>
        <pt x="562" y="-39" on="0"/>
        <pt x="580" y="-32" on="1"/>
        <pt x="581" y="-32" on="1"/>
        <pt x="581" y="-221" on="1"/>
        <pt x="549" y="-230" on="0"/>
        <pt x="487" y="-238" on="0"/>
        <pt x="450" y="-238" on="1"/>
        <pt x="321" y="-238" on="0"/>
        <pt x="173" y="-104" on="0"/>
        <pt x="173" y="9" on="1"/>
        <pt x="173" y="20" on="0"/>
        <pt x="175" y="44" on="0"/>
        <pt x="176" y="57" on="1"/>
        <pt x="182" y="102" on="1"/>
      </contour>
    </TTGlyph>
    <TTGlyph name="braceleft.cap" xMin="4" yMin="-177" xMax="581" yMax="877">
      <component glyphName="braceleft" x="0" y="61" flags="0x4"/>
    </TTGlyph>
    <TTGlyph name="braceright" xMin="32" yMin="-247" xMax="609" yMax="807">
      <contour>
        <pt x="609" y="296" on="1"/>
        <pt x="609" y="264" on="1"/>
        <pt x="431" y="93" on="1"/>
        <pt x="437" y="48" on="1"/>
        <pt x="438" y="35" on="0"/>
        <pt x="440" y="11" on="0"/>
        <pt x="440" y="0" on="1"/>
        <pt x="440" y="-113" on="0"/>
        <pt x="292" y="-247" on="0"/>
        <pt x="163" y="-247" on="1"/>
        <pt x="126" y="-247" on="0"/>
        <pt x="64" y="-239" on="0"/>
        <pt x="32" y="-230" on="1"/>
        <pt x="32" y="-41" on="1"/>
        <pt x="33" y="-41" on="1"/>
        <pt x="51" y="-48" on="0"/>
        <pt x="89" y="-55" on="0"/>
        <pt x="107" y="-55" on="1"/>
        <pt x="161" y="-55" on="0"/>
        <pt x="218" y="6" on="0"/>
        <pt x="218" y="62" on="1"/>
        <pt x="218" y="71" on="0"/>
        <pt x="216" y="90" on="0"/>
        <pt x="215" y="100" on="1"/>
        <pt x="205" y="167" on="1"/>
        <pt x="348" y="280" on="1"/>
        <pt x="205" y="393" on="1"/>
        <pt x="215" y="460" on="1"/>
        <pt x="216" y="470" on="0"/>
        <pt x="218" y="489" on="0"/>
        <pt x="218" y="498" on="1"/>
        <pt x="218" y="554" on="0"/>
        <pt x="161" y="615" on="0"/>
        <pt x="107" y="615" on="1"/>
        <pt x="89" y="615" on="0"/>
        <pt x="51" y="608" on="0"/>
        <pt x="33" y="601" on="1"/>
        <pt x="32" y="601" on="1"/>
        <pt x="32" y="790" on="1"/>
        <pt x="64" y="799" on="0"/>
        <pt x="126" y="807" on="0"/>
        <pt x="163" y="807" on="1"/>
        <pt x="292" y="807" on="0"/>
        <pt x="440" y="673" on="0"/>
        <pt x="440" y="560" on="1"/>
        <pt x="440" y="549" on="0"/>
        <pt x="438" y="525" on="0"/>
        <pt x="437" y="512" on="1"/>
        <pt x="431" y="467" on="1"/>
      </contour>
    </TTGlyph>
    <TTGlyph name="braceright.cap" xMin="32" yMin="-177" xMax="609" yMax="877">
      <component glyphName="braceright" x="0" y="70" flags="0x4"/>
    </TTGlyph>
    <TTGlyph name="bracketleft" xMin="54" yMin="-214" xMax="478" yMax="792">
      <contour>
        <pt x="54" y="-214" on="1"/>
        <pt x="54" y="792" on="1"/>
        <pt x="478" y="792" on="1"/>
        <pt x="478" y="605" on="1"/>
        <pt x="283" y="605" on="1"/>
        <pt x="283" y="-27" on="1"/>
        <pt x="478" y="-27" on="1"/>
        <pt x="478" y="-214" on="1"/>
      </contour>
    </TTGlyph>
    <TTGlyph name="bracketleft.cap" xMin="54" yMin="-153" xMax="478" yMax="853">
      <component glyphName="bracketleft" x="0" y="61" flags="0x4"/>
    </TTGlyph>
    <TTGlyph name="bracketright" xMin="42" yMin="-214" xMax="466" yMax="792">
      <contour>
        <pt x="466" y="792" on="1"/>
        <pt x="466" y="-214" on="1"/>
        <pt x="42" y="-214" on="1"/>
        <pt x="42" y="-27" on="1"/>
        <pt x="237" y="-27" on="1"/>
        <pt x="237" y="605" on="1"/>
        <pt x="42" y="605" on="1"/>
        <pt x="42" y="792" on="1"/>
      </contour>
    </TTGlyph>
    <TTGlyph name="bracketright.cap" xMin="42" yMin="-153" xMax="466" yMax="853">
      <component glyphName="bracketright" x="0" y="61" flags="0x4"/>
    </TTGlyph>
    <TTGlyph name="breve" xMin="17" yMin="622" xMax="483" yMax="857">
      <contour>
        <pt x="250" y="622" on="1"/>
        <pt x="146" y="622" on="0"/>
        <pt x="17" y="703" on="0"/>
        <pt x="17" y="784" on="1"/>
        <pt x="17" y="802" on="0"/>
        <pt x="23" y="838" on="0"/>
        <pt x="27" y="857" on="1"/>
        <pt x="184" y="857" on="1"/>
        <pt x="183" y="848" on="0"/>
        <pt x="182" y="836" on="0"/>
        <pt x="182" y="829" on="1"/>
        <pt x="182" y="803" on="0"/>
        <pt x="213" y="778" on="0"/>
        <pt x="250" y="778" on="1"/>
        <pt x="287" y="778" on="0"/>
        <pt x="318" y="803" on="0"/>
        <pt x="318" y="829" on="1"/>
        <pt x="318" y="836" on="0"/>
        <pt x="317" y="848" on="0"/>
        <pt x="316" y="857" on="1"/>
        <pt x="473" y="857" on="1"/>
        <pt x="477" y="838" on="0"/>
        <pt x="483" y="802" on="0"/>
        <pt x="483" y="784" on="1"/>
        <pt x="483" y="703" on="0"/>
        <pt x="354" y="622" on="0"/>
      </contour>
    </TTGlyph>
    <TTGlyph name="bullet" xMin="41" yMin="140" xMax="424" yMax="504">
      <contour>
        <pt x="233" y="140" on="1"/>
        <pt x="186" y="140" on="0"/>
        <pt x="114" y="169" on="0"/>
        <pt x="66" y="219" on="0"/>
        <pt x="41" y="285" on="0"/>
        <pt x="41" y="321" on="1"/>
        <pt x="41" y="324" on="1"/>
        <pt x="41" y="360" on="0"/>
        <pt x="66" y="426" on="0"/>
        <pt x="114" y="475" on="0"/>
        <pt x="186" y="504" on="0"/>
        <pt x="233" y="504" on="1"/>
        <pt x="279" y="504" on="0"/>
        <pt x="350" y="475" on="0"/>
        <pt x="399" y="426" on="0"/>
        <pt x="424" y="360" on="0"/>
        <pt x="424" y="324" on="1"/>
        <pt x="424" y="321" on="1"/>
        <pt x="424" y="285" on="0"/>
        <pt x="399" y="219" on="0"/>
        <pt x="350" y="169" on="0"/>
        <pt x="279" y="140" on="0"/>
      </contour>
    </TTGlyph>
    <TTGlyph name="bullet.cap" xMin="41" yMin="168" xMax="424" yMax="532">
      <component glyphName="bullet" x="0" y="28" flags="0x4"/>
    </TTGlyph>
    <TTGlyph name="c" xMin="26" yMin="-22" xMax="568" yMax="585">
      <contour>
        <pt x="368" y="-22" on="1"/>
        <pt x="293" y="-22" on="0"/>
        <pt x="166" y="15" on="0"/>
        <pt x="76" y="89" on="0"/>
        <pt x="26" y="199" on="0"/>
        <pt x="26" y="272" on="1"/>
        <pt x="26" y="344" on="0"/>
        <pt x="76" y="460" on="0"/>
        <pt x="166" y="541" on="0"/>
        <pt x="293" y="585" on="0"/>
        <pt x="368" y="585" on="1"/>
        <pt x="422" y="585" on="0"/>
        <pt x="525" y="562" on="0"/>
        <pt x="568" y="537" on="1"/>
        <pt x="568" y="336" on="1"/>
        <pt x="567" y="336" on="1"/>
        <pt x="533" y="360" on="0"/>
        <pt x="448" y="385" on="0"/>
        <pt x="406" y="385" on="1"/>
        <pt x="355" y="385" on="0"/>
        <pt x="283" y="332" on="0"/>
        <pt x="283" y="278" on="1"/>
        <pt x="283" y="229" on="0"/>
        <pt x="351" y="179" on="0"/>
        <pt x="406" y="179" on="1"/>
        <pt x="448" y="179" on="0"/>
        <pt x="533" y="204" on="0"/>
        <pt x="567" y="227" on="1"/>
        <pt x="568" y="227" on="1"/>
        <pt x="568" y="26" on="1"/>
        <pt x="525" y="1" on="0"/>
        <pt x="422" y="-22" on="0"/>
      </contour>
    </TTGlyph>
    <TTGlyph name="c.sc" xMin="37" yMin="-19" xMax="631" yMax="627">
      <contour>
        <pt x="405" y="-19" on="1"/>
        <pt x="324" y="-19" on="0"/>
        <pt x="188" y="21" on="0"/>
        <pt x="91" y="101" on="0"/>
        <pt x="37" y="223" on="0"/>
        <pt x="37" y="303" on="1"/>
        <pt x="37" y="383" on="0"/>
        <pt x="92" y="505" on="0"/>
        <pt x="190" y="586" on="0"/>
        <pt x="325" y="627" on="0"/>
        <pt x="404" y="627" on="1"/>
        <pt x="476" y="627" on="0"/>
        <pt x="585" y="602" on="0"/>
        <pt x="631" y="581" on="1"/>
        <pt x="631" y="356" on="1"/>
        <pt x="629" y="356" on="1"/>
        <pt x="579" y="387" on="0"/>
        <pt x="489" y="418" on="0"/>
        <pt x="440" y="418" on="1"/>
        <pt x="379" y="418" on="0"/>
        <pt x="296" y="362" on="0"/>
        <pt x="296" y="305" on="1"/>
        <pt x="296" y="274" on="0"/>
        <pt x="320" y="231" on="0"/>
        <pt x="359" y="204" on="0"/>
        <pt x="410" y="191" on="0"/>
        <pt x="438" y="191" on="1"/>
        <pt x="489" y="191" on="0"/>
        <pt x="581" y="224" on="0"/>
        <pt x="629" y="255" on="1"/>
        <pt x="631" y="255" on="1"/>
        <pt x="631" y="27" on="1"/>
        <pt x="592" y="10" on="0"/>
        <pt x="476" y="-19" on="0"/>
      </contour>
    </TTGlyph>
    <TTGlyph name="cacute" xMin="26" yMin="-22" xMax="631" yMax="821">
      <component glyphName="c" x="0" y="0" flags="0x204"/>
      <component glyphName="acute" x="161" y="0" flags="0x4"/>
    </TTGlyph>
    <TTGlyph name="cacute.sc" xMin="37" yMin="-19" xMax="664" yMax="884">
      <component glyphName="c.sc" x="0" y="0" flags="0x204"/>
      <component glyphName="acute" x="194" y="63" flags="0x4"/>
    </TTGlyph>
    <TTGlyph name="caron" xMin="-12" yMin="630" xMax="512" yMax="839">
      <contour>
        <pt x="512" y="839" on="1"/>
        <pt x="386" y="630" on="1"/>
        <pt x="114" y="630" on="1"/>
        <pt x="-12" y="839" on="1"/>
        <pt x="183" y="839" on="1"/>
        <pt x="232" y="763" on="1"/>
        <pt x="270" y="763" on="1"/>
        <pt x="319" y="839" on="1"/>
      </contour>
    </TTGlyph>
    <TTGlyph name="caron.alt" xMin="189" yMin="606" xMax="399" yMax="792">
      <contour>
        <pt x="189" y="606" on="1"/>
        <pt x="189" y="792" on="1"/>
        <pt x="399" y="792" on="1"/>
        <pt x="399" y="760" on="1"/>
        <pt x="316" y="606" on="1"/>
      </contour>
    </TTGlyph>
    <TTGlyph name="ccaron" xMin="26" yMin="-22" xMax="620" yMax="839">
      <component glyphName="c" x="0" y="0" flags="0x204"/>
      <component glyphName="caron" x="108" y="0" flags="0x4"/>
    </TTGlyph>
    <TTGlyph name="ccaron.sc" xMin="37" yMin="-19" xMax="653" yMax="902">
      <component glyphName="c.sc" x="0" y="0" flags="0x204"/>
      <component glyphName="caron" x="141" y="63" flags="0x4"/>
    </TTGlyph>
    <TTGlyph name="ccedilla" xMin="26" yMin="-206" xMax="568" yMax="585">
      <contour>
        <pt x="568" y="26" on="1"/>
        <pt x="538" y="9" on="0"/>
        <pt x="469" y="-13" on="0"/>
        <pt x="432" y="-18" on="1"/>
        <pt x="359" y="-206" on="1"/>
        <pt x="86" y="-206" on="1"/>
        <pt x="86" y="-179" on="1"/>
        <pt x="246" y="-8" on="1"/>
        <pt x="146" y="17" on="0"/>
        <pt x="26" y="158" on="0"/>
        <pt x="26" y="272" on="1"/>
        <pt x="26" y="344" on="0"/>
        <pt x="76" y="460" on="0"/>
        <pt x="166" y="541" on="0"/>
        <pt x="293" y="585" on="0"/>
        <pt x="368" y="585" on="1"/>
        <pt x="422" y="585" on="0"/>
        <pt x="525" y="562" on="0"/>
        <pt x="568" y="537" on="1"/>
        <pt x="568" y="336" on="1"/>
        <pt x="567" y="336" on="1"/>
        <pt x="533" y="360" on="0"/>
        <pt x="448" y="385" on="0"/>
        <pt x="406" y="385" on="1"/>
        <pt x="355" y="385" on="0"/>
        <pt x="283" y="332" on="0"/>
        <pt x="283" y="278" on="1"/>
        <pt x="283" y="229" on="0"/>
        <pt x="351" y="179" on="0"/>
        <pt x="406" y="179" on="1"/>
        <pt x="448" y="179" on="0"/>
        <pt x="533" y="204" on="0"/>
        <pt x="567" y="227" on="1"/>
        <pt x="568" y="227" on="1"/>
      </contour>
    </TTGlyph>
    <TTGlyph name="ccedilla.sc" xMin="37" yMin="-203" xMax="631" yMax="627">
      <contour>
        <pt x="631" y="27" on="1"/>
        <pt x="601" y="14" on="0"/>
        <pt x="518" y="-10" on="0"/>
        <pt x="469" y="-16" on="1"/>
        <pt x="396" y="-203" on="1"/>
        <pt x="123" y="-203" on="1"/>
        <pt x="123" y="-176" on="1"/>
        <pt x="282" y="-6" on="1"/>
        <pt x="171" y="20" on="0"/>
        <pt x="37" y="175" on="0"/>
        <pt x="37" y="303" on="1"/>
        <pt x="37" y="383" on="0"/>
        <pt x="92" y="505" on="0"/>
        <pt x="190" y="586" on="0"/>
        <pt x="325" y="627" on="0"/>
        <pt x="404" y="627" on="1"/>
        <pt x="476" y="627" on="0"/>
        <pt x="585" y="602" on="0"/>
        <pt x="631" y="581" on="1"/>
        <pt x="631" y="356" on="1"/>
        <pt x="629" y="356" on="1"/>
        <pt x="579" y="387" on="0"/>
        <pt x="489" y="418" on="0"/>
        <pt x="440" y="418" on="1"/>
        <pt x="379" y="418" on="0"/>
        <pt x="296" y="362" on="0"/>
        <pt x="296" y="305" on="1"/>
        <pt x="296" y="274" on="0"/>
        <pt x="320" y="231" on="0"/>
        <pt x="359" y="204" on="0"/>
        <pt x="410" y="191" on="0"/>
        <pt x="438" y="191" on="1"/>
        <pt x="489" y="191" on="0"/>
        <pt x="581" y="224" on="0"/>
        <pt x="629" y="255" on="1"/>
        <pt x="631" y="255" on="1"/>
      </contour>
    </TTGlyph>
    <TTGlyph name="cdotaccent" xMin="26" yMin="-22" xMax="568" yMax="842">
      <component glyphName="c" x="0" y="0" flags="0x204"/>
      <component glyphName="dotaccent" x="110" y="0" flags="0x4"/>
    </TTGlyph>
    <TTGlyph name="cdotaccent.sc" xMin="37" yMin="-19" xMax="631" yMax="905">
      <component glyphName="c.sc" x="0" y="0" flags="0x204"/>
      <component glyphName="dotaccent" x="143" y="63" flags="0x4"/>
    </TTGlyph>
    <TTGlyph name="cedilla" xMin="13" yMin="-201" xMax="364" yMax="0">
      <contour>
        <pt x="364" y="0" on="1"/>
        <pt x="286" y="-201" on="1"/>
        <pt x="13" y="-201" on="1"/>
        <pt x="13" y="-174" on="1"/>
        <pt x="176" y="0" on="1"/>
      </contour>
    </TTGlyph>
    <TTGlyph name="cent" xMin="40" yMin="-43" xMax="555" yMax="723">
      <contour>
        <pt x="234" y="-43" on="1"/>
        <pt x="234" y="90" on="1"/>
        <pt x="145" y="116" on="0"/>
        <pt x="40" y="246" on="0"/>
        <pt x="40" y="344" on="1"/>
        <pt x="40" y="442" on="0"/>
        <pt x="145" y="572" on="0"/>
        <pt x="234" y="598" on="1"/>
        <pt x="234" y="723" on="1"/>
        <pt x="458" y="723" on="1"/>
        <pt x="458" y="604" on="1"/>
        <pt x="483" y="599" on="0"/>
        <pt x="533" y="581" on="0"/>
        <pt x="555" y="568" on="1"/>
        <pt x="555" y="388" on="1"/>
        <pt x="553" y="388" on="1"/>
        <pt x="517" y="412" on="0"/>
        <pt x="429" y="438" on="0"/>
        <pt x="388" y="438" on="1"/>
        <pt x="339" y="438" on="0"/>
        <pt x="269" y="390" on="0"/>
        <pt x="269" y="344" on="1"/>
        <pt x="269" y="293" on="0"/>
        <pt x="341" y="250" on="0"/>
        <pt x="395" y="250" on="1"/>
        <pt x="430" y="250" on="0"/>
        <pt x="517" y="276" on="0"/>
        <pt x="553" y="299" on="1"/>
        <pt x="555" y="299" on="1"/>
        <pt x="555" y="119" on="1"/>
        <pt x="533" y="107" on="0"/>
        <pt x="483" y="89" on="0"/>
        <pt x="458" y="83" on="1"/>
        <pt x="458" y="-29" on="1"/>
      </contour>
    </TTGlyph>
    <TTGlyph name="cent.tab" xMin="90" yMin="-43" xMax="621" yMax="722">
      <contour>
        <pt x="291" y="-43" on="1"/>
        <pt x="291" y="90" on="1"/>
        <pt x="199" y="115" on="0"/>
        <pt x="90" y="246" on="0"/>
        <pt x="90" y="344" on="1"/>
        <pt x="90" y="441" on="0"/>
        <pt x="200" y="572" on="0"/>
        <pt x="292" y="599" on="1"/>
        <pt x="292" y="722" on="1"/>
        <pt x="517" y="722" on="1"/>
        <pt x="517" y="604" on="1"/>
        <pt x="545" y="598" on="0"/>
        <pt x="598" y="577" on="0"/>
        <pt x="621" y="562" on="1"/>
        <pt x="621" y="387" on="1"/>
        <pt x="619" y="387" on="1"/>
        <pt x="581" y="411" on="0"/>
        <pt x="491" y="438" on="0"/>
        <pt x="448" y="438" on="1"/>
        <pt x="395" y="438" on="0"/>
        <pt x="320" y="389" on="0"/>
        <pt x="320" y="344" on="1"/>
        <pt x="320" y="294" on="0"/>
        <pt x="396" y="250" on="0"/>
        <pt x="454" y="250" on="1"/>
        <pt x="491" y="250" on="0"/>
        <pt x="581" y="276" on="0"/>
        <pt x="619" y="300" on="1"/>
        <pt x="621" y="300" on="1"/>
        <pt x="621" y="124" on="1"/>
        <pt x="597" y="110" on="0"/>
        <pt x="543" y="90" on="0"/>
        <pt x="515" y="83" on="1"/>
        <pt x="515" y="-29" on="1"/>
      </contour>
    </TTGlyph>
    <TTGlyph name="circle.checked" xMin="104" yMin="-46" xMax="974" yMax="746">
      <contour>
        <pt x="539" y="-46" on="1"/>
        <pt x="441" y="-46" on="0"/>
        <pt x="279" y="11" on="0"/>
        <pt x="166" y="113" on="0"/>
        <pt x="104" y="260" on="0"/>
        <pt x="104" y="350" on="1"/>
        <pt x="104" y="439" on="0"/>
        <pt x="166" y="586" on="0"/>
        <pt x="279" y="689" on="0"/>
        <pt x="441" y="746" on="0"/>
        <pt x="539" y="746" on="1"/>
        <pt x="638" y="746" on="0"/>
        <pt x="799" y="689" on="0"/>
        <pt x="912" y="587" on="0"/>
        <pt x="974" y="440" on="0"/>
        <pt x="974" y="350" on="1"/>
        <pt x="974" y="261" on="0"/>
        <pt x="912" y="114" on="0"/>
        <pt x="799" y="11" on="0"/>
        <pt x="637" y="-46" on="0"/>
      </contour>
      <contour>
        <pt x="539" y="168" on="1"/>
        <pt x="624" y="168" on="0"/>
        <pt x="731" y="271" on="0"/>
        <pt x="731" y="350" on="1"/>
        <pt x="731" y="429" on="0"/>
        <pt x="624" y="532" on="0"/>
        <pt x="539" y="532" on="1"/>
        <pt x="454" y="532" on="0"/>
        <pt x="347" y="429" on="0"/>
        <pt x="347" y="350" on="1"/>
        <pt x="347" y="271" on="0"/>
        <pt x="454" y="168" on="0"/>
      </contour>
      <contour>
        <pt x="539" y="233" on="1"/>
        <pt x="483" y="233" on="0"/>
        <pt x="414" y="299" on="0"/>
        <pt x="414" y="350" on="1"/>
        <pt x="414" y="401" on="0"/>
        <pt x="483" y="467" on="0"/>
        <pt x="539" y="467" on="1"/>
        <pt x="595" y="467" on="0"/>
        <pt x="664" y="401" on="0"/>
        <pt x="664" y="350" on="1"/>
        <pt x="664" y="299" on="0"/>
        <pt x="595" y="233" on="0"/>
      </contour>
    </TTGlyph>
    <TTGlyph name="circle.half" xMin="104" yMin="-46" xMax="974" yMax="746">
      <contour>
        <pt x="539" y="-46" on="1"/>
        <pt x="441" y="-46" on="0"/>
        <pt x="279" y="11" on="0"/>
        <pt x="166" y="113" on="0"/>
        <pt x="104" y="260" on="0"/>
        <pt x="104" y="350" on="1"/>
        <pt x="104" y="439" on="0"/>
        <pt x="166" y="586" on="0"/>
        <pt x="279" y="689" on="0"/>
        <pt x="441" y="746" on="0"/>
        <pt x="539" y="746" on="1"/>
        <pt x="638" y="746" on="0"/>
        <pt x="799" y="689" on="0"/>
        <pt x="912" y="587" on="0"/>
        <pt x="974" y="440" on="0"/>
        <pt x="974" y="350" on="1"/>
        <pt x="974" y="261" on="0"/>
        <pt x="912" y="114" on="0"/>
        <pt x="799" y="11" on="0"/>
        <pt x="637" y="-46" on="0"/>
      </contour>
      <contour>
        <pt x="514" y="158" on="1"/>
        <pt x="555" y="158" on="0"/>
        <pt x="629" y="183" on="0"/>
        <pt x="684" y="231" on="0"/>
        <pt x="717" y="303" on="0"/>
        <pt x="717" y="350" on="1"/>
        <pt x="717" y="397" on="0"/>
        <pt x="684" y="469" on="0"/>
        <pt x="629" y="517" on="0"/>
        <pt x="555" y="542" on="0"/>
        <pt x="514" y="542" on="1"/>
      </contour>
    </TTGlyph>
    <TTGlyph name="circle.open" xMin="104" yMin="-46" xMax="974" yMax="746">
      <contour>
        <pt x="539" y="-46" on="1"/>
        <pt x="441" y="-46" on="0"/>
        <pt x="279" y="11" on="0"/>
        <pt x="166" y="113" on="0"/>
        <pt x="104" y="260" on="0"/>
        <pt x="104" y="350" on="1"/>
        <pt x="104" y="439" on="0"/>
        <pt x="166" y="586" on="0"/>
        <pt x="279" y="689" on="0"/>
        <pt x="441" y="746" on="0"/>
        <pt x="539" y="746" on="1"/>
        <pt x="638" y="746" on="0"/>
        <pt x="799" y="689" on="0"/>
        <pt x="912" y="587" on="0"/>
        <pt x="974" y="440" on="0"/>
        <pt x="974" y="350" on="1"/>
        <pt x="974" y="261" on="0"/>
        <pt x="912" y="114" on="0"/>
        <pt x="799" y="11" on="0"/>
        <pt x="637" y="-46" on="0"/>
      </contour>
      <contour>
        <pt x="539" y="168" on="1"/>
        <pt x="620" y="168" on="0"/>
        <pt x="717" y="271" on="0"/>
        <pt x="717" y="350" on="1"/>
        <pt x="717" y="429" on="0"/>
        <pt x="620" y="532" on="0"/>
        <pt x="539" y="532" on="1"/>
        <pt x="458" y="532" on="0"/>
        <pt x="361" y="429" on="0"/>
        <pt x="361" y="350" on="1"/>
        <pt x="361" y="271" on="0"/>
        <pt x="458" y="168" on="0"/>
      </contour>
    </TTGlyph>
    <TTGlyph name="circle.solid" xMin="104" yMin="-46" xMax="974" yMax="746">
      <contour>
        <pt x="539" y="-46" on="1"/>
        <pt x="441" y="-46" on="0"/>
        <pt x="279" y="11" on="0"/>
        <pt x="166" y="113" on="0"/>
        <pt x="104" y="260" on="0"/>
        <pt x="104" y="350" on="1"/>
        <pt x="104" y="439" on="0"/>
        <pt x="166" y="586" on="0"/>
        <pt x="279" y="689" on="0"/>
        <pt x="441" y="746" on="0"/>
        <pt x="539" y="746" on="1"/>
        <pt x="638" y="746" on="0"/>
        <pt x="799" y="689" on="0"/>
        <pt x="912" y="587" on="0"/>
        <pt x="974" y="440" on="0"/>
        <pt x="974" y="350" on="1"/>
        <pt x="974" y="261" on="0"/>
        <pt x="912" y="114" on="0"/>
        <pt x="799" y="11" on="0"/>
        <pt x="637" y="-46" on="0"/>
      </contour>
    </TTGlyph>
    <TTGlyph name="circumflex" xMin="-12" yMin="630" xMax="512" yMax="839">
      <contour>
        <pt x="-12" y="630" on="1"/>
        <pt x="114" y="839" on="1"/>
        <pt x="386" y="839" on="1"/>
        <pt x="512" y="630" on="1"/>
        <pt x="317" y="630" on="1"/>
        <pt x="268" y="706" on="1"/>
        <pt x="230" y="706" on="1"/>
        <pt x="181" y="630" on="1"/>
      </contour>
    </TTGlyph>
    <TTGlyph name="colon" xMin="76" yMin="-11" xMax="351" yMax="575">
      <contour>
        <pt x="212" y="330" on="1"/>
        <pt x="149" y="330" on="0"/>
        <pt x="76" y="396" on="0"/>
        <pt x="76" y="452" on="1"/>
        <pt x="76" y="509" on="0"/>
        <pt x="149" y="575" on="0"/>
        <pt x="212" y="575" on="1"/>
        <pt x="276" y="575" on="0"/>
        <pt x="351" y="509" on="0"/>
        <pt x="351" y="453" on="1"/>
        <pt x="351" y="396" on="0"/>
        <pt x="276" y="330" on="0"/>
      </contour>
      <contour>
        <pt x="212" y="-11" on="1"/>
        <pt x="149" y="-11" on="0"/>
        <pt x="76" y="55" on="0"/>
        <pt x="76" y="111" on="1"/>
        <pt x="76" y="168" on="0"/>
        <pt x="149" y="234" on="0"/>
        <pt x="212" y="234" on="1"/>
        <pt x="276" y="234" on="0"/>
        <pt x="351" y="168" on="0"/>
        <pt x="351" y="112" on="1"/>
        <pt x="351" y="55" on="0"/>
        <pt x="276" y="-11" on="0"/>
      </contour>
    </TTGlyph>
    <TTGlyph name="colon.fig" xMin="76" yMin="57" xMax="351" yMax="643">
      <component glyphName="colon" x="0" y="68" flags="0x4"/>
    </TTGlyph>
    <TTGlyph name="colon.tab" xMin="43" yMin="-11" xMax="318" yMax="575">
      <component glyphName="colon" x="-33" y="0" flags="0x4"/>
    </TTGlyph>
    <TTGlyph name="colonmonetary" xMin="18" yMin="-110" xMax="702" yMax="805">
      <contour>
        <pt x="105" y="-110" on="1"/>
        <pt x="153" y="59" on="1"/>
        <pt x="90" y="107" on="0"/>
        <pt x="18" y="252" on="0"/>
        <pt x="18" y="342" on="1"/>
        <pt x="18" y="416" on="0"/>
        <pt x="64" y="542" on="0"/>
        <pt x="146" y="638" on="0"/>
        <pt x="263" y="701" on="0"/>
        <pt x="334" y="713" on="1"/>
        <pt x="360" y="805" on="1"/>
        <pt x="507" y="805" on="1"/>
        <pt x="482" y="716" on="1"/>
        <pt x="493" y="715" on="0"/>
        <pt x="517" y="711" on="0"/>
        <pt x="528" y="708" on="1"/>
        <pt x="555" y="805" on="1"/>
        <pt x="702" y="805" on="1"/>
        <pt x="609" y="473" on="1"/>
        <pt x="608" y="473" on="1"/>
        <pt x="574" y="491" on="0"/>
        <pt x="497" y="511" on="0"/>
        <pt x="454" y="511" on="1"/>
        <pt x="372" y="511" on="0"/>
        <pt x="275" y="422" on="0"/>
        <pt x="275" y="347" on="1"/>
        <pt x="275" y="274" on="0"/>
        <pt x="373" y="188" on="0"/>
        <pt x="454" y="188" on="1"/>
        <pt x="498" y="188" on="0"/>
        <pt x="584" y="210" on="0"/>
        <pt x="624" y="229" on="1"/>
        <pt x="625" y="229" on="1"/>
        <pt x="625" y="22" on="1"/>
        <pt x="591" y="6" on="0"/>
        <pt x="513" y="-13" on="0"/>
        <pt x="473" y="-17" on="1"/>
        <pt x="447" y="-110" on="1"/>
        <pt x="300" y="-110" on="1"/>
        <pt x="327" y="-13" on="1"/>
        <pt x="316" y="-12" on="0"/>
        <pt x="293" y="-6" on="0"/>
        <pt x="282" y="-3" on="1"/>
        <pt x="252" y="-110" on="1"/>
      </contour>
    </TTGlyph>
    <TTGlyph name="comma" xMin="48" yMin="-179" xMax="352" yMax="192">
      <contour>
        <pt x="48" y="-179" on="1"/>
        <pt x="100" y="192" on="1"/>
        <pt x="352" y="192" on="1"/>
        <pt x="352" y="125" on="1"/>
        <pt x="192" y="-179" on="1"/>
      </contour>
    </TTGlyph>
    <TTGlyph name="comma.tab" xMin="23" yMin="-179" xMax="327" yMax="192">
      <component glyphName="comma" x="-25" y="0" flags="0x4"/>
    </TTGlyph>
    <TTGlyph name="copyright" xMin="30" yMin="-76" xMax="972" yMax="786">
      <contour>
        <pt x="501" y="-76" on="1"/>
        <pt x="397" y="-76" on="0"/>
        <pt x="223" y="-16" on="0"/>
        <pt x="99" y="94" on="0"/>
        <pt x="30" y="255" on="0"/>
        <pt x="30" y="355" on="1"/>
        <pt x="30" y="455" on="0"/>
        <pt x="99" y="616" on="0"/>
        <pt x="223" y="726" on="0"/>
        <pt x="397" y="786" on="0"/>
        <pt x="501" y="786" on="1"/>
        <pt x="605" y="786" on="0"/>
        <pt x="779" y="726" on="0"/>
        <pt x="903" y="616" on="0"/>
        <pt x="972" y="455" on="0"/>
        <pt x="972" y="355" on="1"/>
        <pt x="972" y="255" on="0"/>
        <pt x="903" y="94" on="0"/>
        <pt x="779" y="-16" on="0"/>
        <pt x="605" y="-76" on="0"/>
      </contour>
      <contour>
        <pt x="501" y="60" on="1"/>
        <pt x="648" y="60" on="0"/>
        <pt x="810" y="210" on="0"/>
        <pt x="810" y="355" on="1"/>
        <pt x="810" y="500" on="0"/>
        <pt x="648" y="650" on="0"/>
        <pt x="501" y="650" on="1"/>
        <pt x="354" y="650" on="0"/>
        <pt x="192" y="500" on="0"/>
        <pt x="192" y="355" on="1"/>
        <pt x="192" y="210" on="0"/>
        <pt x="354" y="60" on="0"/>
      </contour>
      <contour>
        <pt x="524" y="165" on="1"/>
        <pt x="428" y="165" on="0"/>
        <pt x="308" y="260" on="0"/>
        <pt x="308" y="354" on="1"/>
        <pt x="308" y="401" on="0"/>
        <pt x="340" y="473" on="0"/>
        <pt x="398" y="521" on="0"/>
        <pt x="477" y="545" on="0"/>
        <pt x="523" y="545" on="1"/>
        <pt x="567" y="545" on="0"/>
        <pt x="633" y="528" on="0"/>
        <pt x="661" y="515" on="1"/>
        <pt x="661" y="389" on="1"/>
        <pt x="659" y="389" on="1"/>
        <pt x="628" y="406" on="0"/>
        <pt x="573" y="421" on="0"/>
        <pt x="545" y="421" on="1"/>
        <pt x="510" y="421" on="0"/>
        <pt x="462" y="389" on="0"/>
        <pt x="462" y="356" on="1"/>
        <pt x="462" y="321" on="0"/>
        <pt x="512" y="291" on="0"/>
        <pt x="545" y="291" on="1"/>
        <pt x="574" y="291" on="0"/>
        <pt x="630" y="307" on="0"/>
        <pt x="659" y="324" on="1"/>
        <pt x="661" y="324" on="1"/>
        <pt x="661" y="195" on="1"/>
        <pt x="639" y="184" on="0"/>
        <pt x="567" y="165" on="0"/>
      </contour>
    </TTGlyph>
    <TTGlyph name="d" xMin="26" yMin="-20" xMax="700" yMax="792">
      <contour>
        <pt x="700" y="792" on="1"/>
        <pt x="700" y="0" on="1"/>
        <pt x="451" y="0" on="1"/>
        <pt x="449" y="82" on="1"/>
        <pt x="418" y="33" on="0"/>
        <pt x="332" y="-20" on="0"/>
        <pt x="269" y="-20" on="1"/>
        <pt x="212" y="-20" on="0"/>
        <pt x="121" y="21" on="0"/>
        <pt x="59" y="95" on="0"/>
        <pt x="26" y="198" on="0"/>
        <pt x="26" y="260" on="1"/>
        <pt x="26" y="334" on="0"/>
        <pt x="70" y="452" on="0"/>
        <pt x="148" y="535" on="0"/>
        <pt x="255" y="579" on="0"/>
        <pt x="317" y="579" on="1"/>
        <pt x="354" y="579" on="0"/>
        <pt x="415" y="566" on="0"/>
        <pt x="443" y="551" on="1"/>
        <pt x="443" y="792" on="1"/>
      </contour>
      <contour>
        <pt x="378" y="391" on="1"/>
        <pt x="338" y="391" on="0"/>
        <pt x="283" y="335" on="0"/>
        <pt x="283" y="277" on="1"/>
        <pt x="283" y="228" on="0"/>
        <pt x="330" y="173" on="0"/>
        <pt x="368" y="173" on="1"/>
        <pt x="391" y="173" on="0"/>
        <pt x="427" y="185" on="0"/>
        <pt x="443" y="197" on="1"/>
        <pt x="443" y="373" on="1"/>
        <pt x="429" y="382" on="0"/>
        <pt x="397" y="391" on="0"/>
      </contour>
    </TTGlyph>
    <TTGlyph name="d.sc" xMin="66" yMin="0" xMax="747" yMax="608">
      <contour>
        <pt x="66" y="0" on="1"/>
        <pt x="66" y="608" on="1"/>
        <pt x="435" y="608" on="1"/>
        <pt x="578" y="608" on="0"/>
        <pt x="747" y="453" on="0"/>
        <pt x="747" y="304" on="1"/>
        <pt x="747" y="155" on="0"/>
        <pt x="578" y="0" on="0"/>
        <pt x="435" y="0" on="1"/>
      </contour>
      <contour>
        <pt x="322" y="190" on="1"/>
        <pt x="389" y="190" on="1"/>
        <pt x="435" y="190" on="0"/>
        <pt x="491" y="241" on="0"/>
        <pt x="491" y="304" on="1"/>
        <pt x="491" y="367" on="0"/>
        <pt x="435" y="418" on="0"/>
        <pt x="389" y="418" on="1"/>
        <pt x="322" y="418" on="1"/>
      </contour>
    </TTGlyph>
    <TTGlyph name="dagger" xMin="38" yMin="168" xMax="498" yMax="700">
      <contour>
        <pt x="177" y="168" on="1"/>
        <pt x="177" y="426" on="1"/>
        <pt x="38" y="426" on="1"/>
        <pt x="49" y="585" on="1"/>
        <pt x="177" y="585" on="1"/>
        <pt x="177" y="700" on="1"/>
        <pt x="365" y="700" on="1"/>
        <pt x="365" y="585" on="1"/>
        <pt x="498" y="585" on="1"/>
        <pt x="498" y="426" on="1"/>
        <pt x="365" y="426" on="1"/>
        <pt x="365" y="168" on="1"/>
      </contour>
    </TTGlyph>
    <TTGlyph name="daggerdbl" xMin="38" yMin="101" xMax="504" yMax="700">
      <contour>
        <pt x="177" y="101" on="1"/>
        <pt x="177" y="214" on="1"/>
        <pt x="44" y="214" on="1"/>
        <pt x="44" y="356" on="1"/>
        <pt x="177" y="356" on="1"/>
        <pt x="177" y="445" on="1"/>
        <pt x="38" y="445" on="1"/>
        <pt x="49" y="587" on="1"/>
        <pt x="177" y="587" on="1"/>
        <pt x="177" y="700" on="1"/>
        <pt x="365" y="700" on="1"/>
        <pt x="365" y="587" on="1"/>
        <pt x="498" y="587" on="1"/>
        <pt x="498" y="445" on="1"/>
        <pt x="365" y="445" on="1"/>
        <pt x="365" y="356" on="1"/>
        <pt x="504" y="356" on="1"/>
        <pt x="493" y="214" on="1"/>
        <pt x="365" y="214" on="1"/>
        <pt x="365" y="101" on="1"/>
      </contour>
    </TTGlyph>
    <TTGlyph name="dcaron" xMin="26" yMin="-20" xMax="980" yMax="792">
      <component glyphName="d" x="0" y="0" flags="0x204"/>
      <component glyphName="caron.alt" x="581" y="0" flags="0x4"/>
    </TTGlyph>
    <TTGlyph name="dcaron.sc" xMin="66" yMin="0" xMax="747" yMax="883">
      <component glyphName="d.sc" x="0" y="0" flags="0x204"/>
      <component glyphName="caron" x="125" y="44" flags="0x4"/>
    </TTGlyph>
    <TTGlyph name="dcroat" xMin="26" yMin="-20" xMax="792" yMax="792">
      <contour>
        <pt x="792" y="579" on="1"/>
        <pt x="700" y="579" on="1"/>
        <pt x="700" y="0" on="1"/>
        <pt x="451" y="0" on="1"/>
        <pt x="449" y="81" on="1"/>
        <pt x="416" y="30" on="0"/>
        <pt x="332" y="-20" on="0"/>
        <pt x="269" y="-20" on="1"/>
        <pt x="212" y="-20" on="0"/>
        <pt x="121" y="18" on="0"/>
        <pt x="59" y="87" on="0"/>
        <pt x="26" y="183" on="0"/>
        <pt x="26" y="241" on="1"/>
        <pt x="26" y="310" on="0"/>
        <pt x="70" y="422" on="0"/>
        <pt x="148" y="500" on="0"/>
        <pt x="255" y="542" on="0"/>
        <pt x="317" y="542" on="1"/>
        <pt x="354" y="542" on="0"/>
        <pt x="415" y="529" on="0"/>
        <pt x="443" y="514" on="1"/>
        <pt x="443" y="579" on="1"/>
        <pt x="290" y="579" on="1"/>
        <pt x="290" y="710" on="1"/>
        <pt x="443" y="710" on="1"/>
        <pt x="443" y="792" on="1"/>
        <pt x="700" y="792" on="1"/>
        <pt x="700" y="710" on="1"/>
        <pt x="781" y="710" on="1"/>
      </contour>
      <contour>
        <pt x="378" y="354" on="1"/>
        <pt x="338" y="354" on="0"/>
        <pt x="283" y="307" on="0"/>
        <pt x="283" y="258" on="1"/>
        <pt x="283" y="218" on="0"/>
        <pt x="330" y="173" on="0"/>
        <pt x="368" y="173" on="1"/>
        <pt x="391" y="173" on="0"/>
        <pt x="427" y="185" on="0"/>
        <pt x="443" y="197" on="1"/>
        <pt x="443" y="336" on="1"/>
        <pt x="429" y="345" on="0"/>
        <pt x="397" y="354" on="0"/>
      </contour>
    </TTGlyph>
    <TTGlyph name="dcroat.sc" xMin="29" yMin="0" xMax="808" yMax="608">
      <component glyphName="eth.sc" x="0" y="0" flags="0x204"/>
    </TTGlyph>
    <TTGlyph name="degree" xMin="32" yMin="266" xMax="540" yMax="726">
      <contour>
        <pt x="286" y="266" on="1"/>
        <pt x="170" y="266" on="0"/>
        <pt x="32" y="390" on="0"/>
        <pt x="32" y="496" on="1"/>
        <pt x="32" y="602" on="0"/>
        <pt x="170" y="726" on="0"/>
        <pt x="286" y="726" on="1"/>
        <pt x="402" y="726" on="0"/>
        <pt x="540" y="602" on="0"/>
        <pt x="540" y="496" on="1"/>
        <pt x="540" y="390" on="0"/>
        <pt x="402" y="266" on="0"/>
      </contour>
      <contour>
        <pt x="286" y="415" on="1"/>
        <pt x="326" y="415" on="0"/>
        <pt x="365" y="460" on="0"/>
        <pt x="365" y="496" on="1"/>
        <pt x="365" y="532" on="0"/>
        <pt x="326" y="577" on="0"/>
        <pt x="286" y="577" on="1"/>
        <pt x="246" y="577" on="0"/>
        <pt x="207" y="532" on="0"/>
        <pt x="207" y="496" on="1"/>
        <pt x="207" y="460" on="0"/>
        <pt x="246" y="415" on="0"/>
      </contour>
    </TTGlyph>
    <TTGlyph name="degree.tab" xMin="63" yMin="266" xMax="571" yMax="726">
      <component glyphName="degree" x="31" y="0" flags="0x4"/>
    </TTGlyph>
    <TTGlyph name="dieresis" xMin="-6" yMin="622" xMax="507" yMax="838">
      <contour>
        <pt x="110" y="622" on="1"/>
        <pt x="57" y="622" on="0"/>
        <pt x="-6" y="679" on="0"/>
        <pt x="-6" y="730" on="1"/>
        <pt x="-6" y="781" on="0"/>
        <pt x="58" y="838" on="0"/>
        <pt x="111" y="838" on="1"/>
        <pt x="163" y="838" on="0"/>
        <pt x="226" y="781" on="0"/>
        <pt x="226" y="730" on="1"/>
        <pt x="226" y="679" on="0"/>
        <pt x="163" y="622" on="0"/>
      </contour>
      <contour>
        <pt x="391" y="622" on="1"/>
        <pt x="338" y="622" on="0"/>
        <pt x="275" y="679" on="0"/>
        <pt x="275" y="730" on="1"/>
        <pt x="275" y="781" on="0"/>
        <pt x="338" y="838" on="0"/>
        <pt x="391" y="838" on="1"/>
        <pt x="444" y="838" on="0"/>
        <pt x="507" y="781" on="0"/>
        <pt x="507" y="730" on="1"/>
        <pt x="507" y="679" on="0"/>
        <pt x="444" y="622" on="0"/>
      </contour>
    </TTGlyph>
    <TTGlyph name="divide" xMin="66" yMin="14" xMax="690" yMax="688">
      <contour>
        <pt x="378" y="688" on="1"/>
        <pt x="438" y="688" on="0"/>
        <pt x="504" y="630" on="0"/>
        <pt x="504" y="582" on="1"/>
        <pt x="504" y="533" on="0"/>
        <pt x="438" y="475" on="0"/>
        <pt x="378" y="475" on="1"/>
        <pt x="319" y="475" on="0"/>
        <pt x="252" y="533" on="0"/>
        <pt x="252" y="581" on="1"/>
        <pt x="252" y="630" on="0"/>
        <pt x="319" y="688" on="0"/>
      </contour>
      <contour>
        <pt x="66" y="261" on="1"/>
        <pt x="66" y="441" on="1"/>
        <pt x="690" y="441" on="1"/>
        <pt x="690" y="261" on="1"/>
      </contour>
      <contour>
        <pt x="378" y="14" on="1"/>
        <pt x="319" y="14" on="0"/>
        <pt x="252" y="72" on="0"/>
        <pt x="252" y="120" on="1"/>
        <pt x="252" y="169" on="0"/>
        <pt x="319" y="227" on="0"/>
        <pt x="378" y="227" on="1"/>
        <pt x="438" y="227" on="0"/>
        <pt x="504" y="169" on="0"/>
        <pt x="504" y="121" on="1"/>
        <pt x="504" y="72" on="0"/>
        <pt x="438" y="14" on="0"/>
      </contour>
    </TTGlyph>
    <TTGlyph name="divide.tab" xMin="50" yMin="14" xMax="674" yMax="688">
      <component glyphName="divide" x="-16" y="0" flags="0x4"/>
    </TTGlyph>
    <TTGlyph name="dollar" xMin="69" yMin="-120" xMax="700" yMax="805">
      <contour>
        <pt x="269" y="-120" on="1"/>
        <pt x="269" y="16" on="1"/>
        <pt x="223" y="22" on="0"/>
        <pt x="129" y="45" on="0"/>
        <pt x="75" y="64" on="1"/>
        <pt x="75" y="268" on="1"/>
        <pt x="76" y="268" on="1"/>
        <pt x="167" y="224" on="0"/>
        <pt x="330" y="186" on="0"/>
        <pt x="391" y="186" on="1"/>
        <pt x="429" y="186" on="0"/>
        <pt x="467" y="199" on="0"/>
        <pt x="467" y="217" on="1"/>
        <pt x="467" y="226" on="0"/>
        <pt x="460" y="238" on="0"/>
        <pt x="434" y="249" on="0"/>
        <pt x="382" y="259" on="0"/>
        <pt x="337" y="266" on="1"/>
        <pt x="194" y="287" on="0"/>
        <pt x="69" y="379" on="0"/>
        <pt x="69" y="476" on="1"/>
        <pt x="69" y="552" on="0"/>
        <pt x="173" y="657" on="0"/>
        <pt x="269" y="678" on="1"/>
        <pt x="269" y="805" on="1"/>
        <pt x="499" y="805" on="1"/>
        <pt x="499" y="684" on="1"/>
        <pt x="536" y="679" on="0"/>
        <pt x="613" y="660" on="0"/>
        <pt x="654" y="646" on="1"/>
        <pt x="654" y="445" on="1"/>
        <pt x="653" y="445" on="1"/>
        <pt x="624" y="461" on="0"/>
        <pt x="553" y="487" on="0"/>
        <pt x="480" y="504" on="0"/>
        <pt x="410" y="514" on="0"/>
        <pt x="381" y="514" on="1"/>
        <pt x="338" y="514" on="0"/>
        <pt x="305" y="499" on="0"/>
        <pt x="305" y="483" on="1"/>
        <pt x="305" y="474" on="0"/>
        <pt x="313" y="462" on="0"/>
        <pt x="341" y="453" on="0"/>
        <pt x="395" y="443" on="0"/>
        <pt x="442" y="436" on="1"/>
        <pt x="580" y="416" on="0"/>
        <pt x="700" y="323" on="0"/>
        <pt x="700" y="223" on="1"/>
        <pt x="700" y="146" on="0"/>
        <pt x="598" y="40" on="0"/>
        <pt x="499" y="20" on="1"/>
        <pt x="499" y="-105" on="1"/>
      </contour>
    </TTGlyph>
    <TTGlyph name="dollar.tab" xMin="62" yMin="-120" xMax="686" yMax="805">
      <contour>
        <pt x="259" y="-120" on="1"/>
        <pt x="259" y="16" on="1"/>
        <pt x="214" y="22" on="0"/>
        <pt x="121" y="46" on="0"/>
        <pt x="68" y="64" on="1"/>
        <pt x="68" y="268" on="1"/>
        <pt x="69" y="268" on="1"/>
        <pt x="159" y="224" on="0"/>
        <pt x="320" y="186" on="0"/>
        <pt x="381" y="186" on="1"/>
        <pt x="418" y="186" on="0"/>
        <pt x="454" y="198" on="0"/>
        <pt x="454" y="217" on="1"/>
        <pt x="454" y="226" on="0"/>
        <pt x="447" y="238" on="0"/>
        <pt x="422" y="248" on="0"/>
        <pt x="371" y="258" on="0"/>
        <pt x="327" y="265" on="1"/>
        <pt x="184" y="286" on="0"/>
        <pt x="62" y="379" on="0"/>
        <pt x="62" y="476" on="1"/>
        <pt x="62" y="553" on="0"/>
        <pt x="165" y="657" on="0"/>
        <pt x="259" y="678" on="1"/>
        <pt x="259" y="805" on="1"/>
        <pt x="489" y="805" on="1"/>
        <pt x="489" y="684" on="1"/>
        <pt x="526" y="679" on="0"/>
        <pt x="601" y="660" on="0"/>
        <pt x="641" y="646" on="1"/>
        <pt x="641" y="445" on="1"/>
        <pt x="640" y="445" on="1"/>
        <pt x="611" y="461" on="0"/>
        <pt x="541" y="487" on="0"/>
        <pt x="469" y="504" on="0"/>
        <pt x="399" y="514" on="0"/>
        <pt x="371" y="514" on="1"/>
        <pt x="329" y="514" on="0"/>
        <pt x="297" y="499" on="0"/>
        <pt x="297" y="483" on="1"/>
        <pt x="297" y="474" on="0"/>
        <pt x="305" y="462" on="0"/>
        <pt x="332" y="453" on="0"/>
        <pt x="385" y="444" on="0"/>
        <pt x="431" y="437" on="1"/>
        <pt x="570" y="417" on="0"/>
        <pt x="686" y="323" on="0"/>
        <pt x="686" y="223" on="1"/>
        <pt x="686" y="145" on="0"/>
        <pt x="585" y="40" on="0"/>
        <pt x="489" y="21" on="1"/>
        <pt x="489" y="-105" on="1"/>
      </contour>
    </TTGlyph>
    <TTGlyph name="dotaccent" xMin="103" yMin="622" xMax="394" yMax="842">
      <contour>
        <pt x="248" y="622" on="1"/>
        <pt x="175" y="622" on="0"/>
        <pt x="103" y="681" on="0"/>
        <pt x="103" y="732" on="1"/>
        <pt x="103" y="783" on="0"/>
        <pt x="175" y="842" on="0"/>
        <pt x="249" y="842" on="1"/>
        <pt x="322" y="842" on="0"/>
        <pt x="394" y="783" on="0"/>
        <pt x="394" y="732" on="1"/>
        <pt x="394" y="681" on="0"/>
        <pt x="322" y="622" on="0"/>
      </contour>
    </TTGlyph>
    <TTGlyph name="dotlessi" xMin="56" yMin="0" xMax="313" yMax="564">
      <contour>
        <pt x="56" y="0" on="1"/>
        <pt x="56" y="564" on="1"/>
        <pt x="313" y="564" on="1"/>
        <pt x="313" y="0" on="1"/>
      </contour>
    </TTGlyph>
    <TTGlyph name="dotlessi.sc" xMin="67" yMin="0" xMax="324" yMax="608">
      <component glyphName="i.sc" x="0" y="0" flags="0x204"/>
    </TTGlyph>
    <TTGlyph name="dotmath" xMin="70" yMin="227" xMax="345" yMax="472">
      <contour>
        <pt x="206" y="227" on="1"/>
        <pt x="143" y="227" on="0"/>
        <pt x="70" y="293" on="0"/>
        <pt x="70" y="349" on="1"/>
        <pt x="70" y="406" on="0"/>
        <pt x="143" y="472" on="0"/>
        <pt x="206" y="472" on="1"/>
        <pt x="270" y="472" on="0"/>
        <pt x="345" y="406" on="0"/>
        <pt x="345" y="350" on="1"/>
        <pt x="345" y="293" on="0"/>
        <pt x="270" y="227" on="0"/>
      </contour>
    </TTGlyph>
    <TTGlyph name="dotmath.tab" xMin="43" yMin="227" xMax="318" yMax="472">
      <component glyphName="dotmath" x="-27" y="0" flags="0x4"/>
    </TTGlyph>
    <TTGlyph name="e" xMin="26" yMin="-21" xMax="654" yMax="588">
      <contour>
        <pt x="354" y="588" on="1"/>
        <pt x="427" y="588" on="0"/>
        <pt x="540" y="545" on="0"/>
        <pt x="615" y="469" on="0"/>
        <pt x="654" y="362" on="0"/>
        <pt x="654" y="298" on="1"/>
        <pt x="654" y="282" on="0"/>
        <pt x="651" y="247" on="0"/>
        <pt x="649" y="231" on="1"/>
        <pt x="277" y="231" on="1"/>
        <pt x="287" y="188" on="0"/>
        <pt x="359" y="161" on="0"/>
        <pt x="416" y="161" on="1"/>
        <pt x="435" y="161" on="0"/>
        <pt x="486" y="167" on="0"/>
        <pt x="541" y="179" on="0"/>
        <pt x="594" y="196" on="0"/>
        <pt x="615" y="206" on="1"/>
        <pt x="616" y="206" on="1"/>
        <pt x="616" y="28" on="1"/>
        <pt x="559" y="1" on="0"/>
        <pt x="431" y="-21" on="0"/>
        <pt x="372" y="-21" on="1"/>
        <pt x="294" y="-21" on="0"/>
        <pt x="166" y="14" on="0"/>
        <pt x="76" y="87" on="0"/>
        <pt x="26" y="197" on="0"/>
        <pt x="26" y="272" on="1"/>
        <pt x="26" y="344" on="0"/>
        <pt x="74" y="461" on="0"/>
        <pt x="161" y="543" on="0"/>
        <pt x="282" y="588" on="0"/>
      </contour>
      <contour>
        <pt x="357" y="415" on="1"/>
        <pt x="319" y="415" on="0"/>
        <pt x="281" y="367" on="0"/>
        <pt x="276" y="330" on="1"/>
        <pt x="441" y="330" on="1"/>
        <pt x="437" y="365" on="0"/>
        <pt x="394" y="415" on="0"/>
      </contour>
    </TTGlyph>
    <TTGlyph name="e.sc" xMin="66" yMin="0" xMax="651" yMax="608">
      <contour>
        <pt x="66" y="0" on="1"/>
        <pt x="66" y="608" on="1"/>
        <pt x="633" y="608" on="1"/>
        <pt x="644" y="432" on="1"/>
        <pt x="321" y="432" on="1"/>
        <pt x="321" y="373" on="1"/>
        <pt x="564" y="373" on="1"/>
        <pt x="564" y="232" on="1"/>
        <pt x="321" y="232" on="1"/>
        <pt x="321" y="176" on="1"/>
        <pt x="651" y="176" on="1"/>
        <pt x="640" y="0" on="1"/>
      </contour>
    </TTGlyph>
    <TTGlyph name="eacute" xMin="26" yMin="-21" xMax="654" yMax="821">
      <component glyphName="e" x="0" y="0" flags="0x204"/>
      <component glyphName="acute" x="158" y="0" flags="0x4"/>
    </TTGlyph>
    <TTGlyph name="eacute.sc" xMin="66" yMin="0" xMax="651" yMax="865">
      <component glyphName="e.sc" x="0" y="0" flags="0x204"/>
      <component glyphName="acute" x="158" y="44" flags="0x4"/>
    </TTGlyph>
    <TTGlyph name="ebreve" xMin="26" yMin="-21" xMax="654" yMax="857">
      <component glyphName="e" x="0" y="0" flags="0x204"/>
      <component glyphName="breve" x="105" y="0" flags="0x4"/>
    </TTGlyph>
    <TTGlyph name="ebreve.sc" xMin="66" yMin="0" xMax="651" yMax="901">
      <component glyphName="e.sc" x="0" y="0" flags="0x204"/>
      <component glyphName="breve" x="105" y="44" flags="0x4"/>
    </TTGlyph>
    <TTGlyph name="ecaron" xMin="26" yMin="-21" xMax="654" yMax="839">
      <component glyphName="e" x="0" y="0" flags="0x204"/>
      <component glyphName="caron" x="105" y="0" flags="0x4"/>
    </TTGlyph>
    <TTGlyph name="ecaron.sc" xMin="66" yMin="0" xMax="651" yMax="883">
      <component glyphName="e.sc" x="0" y="0" flags="0x204"/>
      <component glyphName="caron" x="105" y="44" flags="0x4"/>
    </TTGlyph>
    <TTGlyph name="ecircumflex" xMin="26" yMin="-21" xMax="654" yMax="839">
      <component glyphName="e" x="0" y="0" flags="0x204"/>
      <component glyphName="circumflex" x="105" y="0" flags="0x4"/>
    </TTGlyph>
    <TTGlyph name="ecircumflex.sc" xMin="66" yMin="0" xMax="651" yMax="883">
      <component glyphName="e.sc" x="0" y="0" flags="0x204"/>
      <component glyphName="circumflex" x="105" y="44" flags="0x4"/>
    </TTGlyph>
    <TTGlyph name="edieresis" xMin="26" yMin="-21" xMax="654" yMax="838">
      <component glyphName="e" x="0" y="0" flags="0x204"/>
      <component glyphName="dieresis" x="105" y="0" flags="0x4"/>
    </TTGlyph>
    <TTGlyph name="edieresis.sc" xMin="66" yMin="0" xMax="651" yMax="882">
      <component glyphName="e.sc" x="0" y="0" flags="0x204"/>
      <component glyphName="dieresis" x="105" y="44" flags="0x4"/>
    </TTGlyph>
    <TTGlyph name="edotaccent" xMin="26" yMin="-21" xMax="654" yMax="842">
      <component glyphName="e" x="0" y="0" flags="0x204"/>
      <component glyphName="dotaccent" x="107" y="0" flags="0x4"/>
    </TTGlyph>
    <TTGlyph name="edotaccent.sc" xMin="66" yMin="0" xMax="651" yMax="886">
      <component glyphName="e.sc" x="0" y="0" flags="0x204"/>
      <component glyphName="dotaccent" x="107" y="44" flags="0x4"/>
    </TTGlyph>
    <TTGlyph name="egrave" xMin="26" yMin="-21" xMax="654" yMax="821">
      <component glyphName="e" x="0" y="0" flags="0x204"/>
      <component glyphName="grave" x="53" y="0" flags="0x4"/>
    </TTGlyph>
    <TTGlyph name="egrave.sc" xMin="66" yMin="0" xMax="651" yMax="865">
      <component glyphName="e.sc" x="0" y="0" flags="0x204"/>
      <component glyphName="grave" x="53" y="44" flags="0x4"/>
    </TTGlyph>
    <TTGlyph name="eight" xMin="30" yMin="-24" xMax="726" yMax="724">
      <contour>
        <pt x="378" y="-24" on="1"/>
        <pt x="209" y="-24" on="0"/>
        <pt x="30" y="83" on="0"/>
        <pt x="30" y="185" on="1"/>
        <pt x="30" y="247" on="0"/>
        <pt x="100" y="330" on="0"/>
        <pt x="169" y="356" on="1"/>
        <pt x="109" y="380" on="0"/>
        <pt x="48" y="456" on="0"/>
        <pt x="48" y="512" on="1"/>
        <pt x="48" y="614" on="0"/>
        <pt x="222" y="724" on="0"/>
        <pt x="378" y="724" on="1"/>
        <pt x="534" y="724" on="0"/>
        <pt x="708" y="614" on="0"/>
        <pt x="708" y="512" on="1"/>
        <pt x="708" y="456" on="0"/>
        <pt x="647" y="380" on="0"/>
        <pt x="587" y="356" on="1"/>
        <pt x="656" y="330" on="0"/>
        <pt x="726" y="247" on="0"/>
        <pt x="726" y="185" on="1"/>
        <pt x="726" y="83" on="0"/>
        <pt x="547" y="-24" on="0"/>
      </contour>
      <contour>
        <pt x="378" y="422" on="1"/>
        <pt x="425" y="422" on="0"/>
        <pt x="476" y="454" on="0"/>
        <pt x="476" y="483" on="1"/>
        <pt x="476" y="513" on="0"/>
        <pt x="424" y="546" on="0"/>
        <pt x="378" y="546" on="1"/>
        <pt x="332" y="546" on="0"/>
        <pt x="280" y="513" on="0"/>
        <pt x="280" y="483" on="1"/>
        <pt x="280" y="454" on="0"/>
        <pt x="331" y="422" on="0"/>
      </contour>
      <contour>
        <pt x="378" y="156" on="1"/>
        <pt x="427" y="156" on="0"/>
        <pt x="484" y="191" on="0"/>
        <pt x="484" y="223" on="1"/>
        <pt x="484" y="254" on="0"/>
        <pt x="430" y="285" on="0"/>
        <pt x="378" y="285" on="1"/>
        <pt x="326" y="285" on="0"/>
        <pt x="272" y="254" on="0"/>
        <pt x="272" y="223" on="1"/>
        <pt x="272" y="191" on="0"/>
        <pt x="329" y="156" on="0"/>
      </contour>
    </TTGlyph>
    <TTGlyph name="eight.den" xMin="9" yMin="-15" xMax="425" yMax="443">
      <component glyphName="eight.small" x="0" y="0" flags="0x204"/>
    </TTGlyph>
    <TTGlyph name="eight.inf" xMin="9" yMin="-229" xMax="425" yMax="229">
      <component glyphName="eight.small" x="0" y="-214" flags="0x4"/>
    </TTGlyph>
    <TTGlyph name="eight.num" xMin="9" yMin="258" xMax="425" yMax="716">
      <component glyphName="eight.small" x="0" y="273" flags="0x4"/>
    </TTGlyph>
    <TTGlyph name="eight.osf" xMin="28" yMin="-25" xMax="685" yMax="723">
      <contour>
        <pt x="356" y="-25" on="1"/>
        <pt x="288" y="-25" on="0"/>
        <pt x="168" y="-2" on="0"/>
        <pt x="80" y="48" on="0"/>
        <pt x="28" y="130" on="0"/>
        <pt x="28" y="187" on="1"/>
        <pt x="28" y="256" on="0"/>
        <pt x="102" y="333" on="0"/>
        <pt x="162" y="356" on="1"/>
        <pt x="110" y="377" on="0"/>
        <pt x="45" y="448" on="0"/>
        <pt x="45" y="510" on="1"/>
        <pt x="45" y="565" on="0"/>
        <pt x="93" y="646" on="0"/>
        <pt x="176" y="698" on="0"/>
        <pt x="290" y="723" on="0"/>
        <pt x="356" y="723" on="1"/>
        <pt x="422" y="723" on="0"/>
        <pt x="537" y="698" on="0"/>
        <pt x="620" y="646" on="0"/>
        <pt x="668" y="565" on="0"/>
        <pt x="668" y="510" on="1"/>
        <pt x="668" y="448" on="0"/>
        <pt x="602" y="377" on="0"/>
        <pt x="551" y="356" on="1"/>
        <pt x="611" y="333" on="0"/>
        <pt x="685" y="256" on="0"/>
        <pt x="685" y="187" on="1"/>
        <pt x="685" y="130" on="0"/>
        <pt x="633" y="48" on="0"/>
        <pt x="545" y="-2" on="0"/>
        <pt x="424" y="-25" on="0"/>
      </contour>
      <contour>
        <pt x="356" y="419" on="1"/>
        <pt x="399" y="419" on="0"/>
        <pt x="445" y="448" on="0"/>
        <pt x="445" y="481" on="1"/>
        <pt x="445" y="512" on="0"/>
        <pt x="400" y="545" on="0"/>
        <pt x="356" y="545" on="1"/>
        <pt x="313" y="545" on="0"/>
        <pt x="268" y="511" on="0"/>
        <pt x="268" y="481" on="1"/>
        <pt x="268" y="449" on="0"/>
        <pt x="313" y="419" on="0"/>
      </contour>
      <contour>
        <pt x="356" y="155" on="1"/>
        <pt x="403" y="155" on="0"/>
        <pt x="452" y="190" on="0"/>
        <pt x="452" y="223" on="1"/>
        <pt x="452" y="256" on="0"/>
        <pt x="402" y="286" on="0"/>
        <pt x="356" y="286" on="1"/>
        <pt x="312" y="286" on="0"/>
        <pt x="261" y="256" on="0"/>
        <pt x="261" y="223" on="1"/>
        <pt x="261" y="190" on="0"/>
        <pt x="310" y="155" on="0"/>
      </contour>
    </TTGlyph>
    <TTGlyph name="eight.small" xMin="9" yMin="-15" xMax="425" yMax="443">
      <contour>
        <pt x="217" y="-15" on="1"/>
        <pt x="112" y="-15" on="0"/>
        <pt x="9" y="50" on="0"/>
        <pt x="9" y="115" on="1"/>
        <pt x="9" y="152" on="0"/>
        <pt x="51" y="203" on="0"/>
        <pt x="93" y="218" on="1"/>
        <pt x="56" y="231" on="0"/>
        <pt x="20" y="278" on="0"/>
        <pt x="20" y="311" on="1"/>
        <pt x="20" y="376" on="0"/>
        <pt x="121" y="443" on="0"/>
        <pt x="217" y="443" on="1"/>
        <pt x="313" y="443" on="0"/>
        <pt x="414" y="376" on="0"/>
        <pt x="414" y="311" on="1"/>
        <pt x="414" y="278" on="0"/>
        <pt x="378" y="231" on="0"/>
        <pt x="341" y="218" on="1"/>
        <pt x="383" y="203" on="0"/>
        <pt x="425" y="152" on="0"/>
        <pt x="425" y="115" on="1"/>
        <pt x="425" y="50" on="0"/>
        <pt x="322" y="-15" on="0"/>
      </contour>
      <contour>
        <pt x="217" y="260" on="1"/>
        <pt x="243" y="260" on="0"/>
        <pt x="265" y="276" on="0"/>
        <pt x="265" y="292" on="1"/>
        <pt x="265" y="308" on="0"/>
        <pt x="243" y="325" on="0"/>
        <pt x="217" y="325" on="1"/>
        <pt x="191" y="325" on="0"/>
        <pt x="169" y="308" on="0"/>
        <pt x="169" y="292" on="1"/>
        <pt x="169" y="276" on="0"/>
        <pt x="191" y="260" on="0"/>
      </contour>
      <contour>
        <pt x="217" y="103" on="1"/>
        <pt x="245" y="103" on="0"/>
        <pt x="269" y="121" on="0"/>
        <pt x="269" y="138" on="1"/>
        <pt x="269" y="154" on="0"/>
        <pt x="245" y="171" on="0"/>
        <pt x="217" y="171" on="1"/>
        <pt x="189" y="171" on="0"/>
        <pt x="165" y="155" on="0"/>
        <pt x="165" y="138" on="1"/>
        <pt x="165" y="121" on="0"/>
        <pt x="189" y="103" on="0"/>
      </contour>
    </TTGlyph>
    <TTGlyph name="eight.sup" xMin="9" yMin="350" xMax="425" yMax="808">
      <component glyphName="eight.small" x="0" y="365" flags="0x4"/>
    </TTGlyph>
    <TTGlyph name="eight.tab" xMin="23" yMin="-24" xMax="702" yMax="724">
      <contour>
        <pt x="362" y="-24" on="1"/>
        <pt x="193" y="-24" on="0"/>
        <pt x="23" y="85" on="0"/>
        <pt x="23" y="187" on="1"/>
        <pt x="23" y="247" on="0"/>
        <pt x="92" y="330" on="0"/>
        <pt x="166" y="356" on="1"/>
        <pt x="101" y="380" on="0"/>
        <pt x="41" y="454" on="0"/>
        <pt x="41" y="510" on="1"/>
        <pt x="41" y="611" on="0"/>
        <pt x="206" y="724" on="0"/>
        <pt x="362" y="724" on="1"/>
        <pt x="517" y="724" on="0"/>
        <pt x="684" y="610" on="0"/>
        <pt x="684" y="510" on="1"/>
        <pt x="684" y="454" on="0"/>
        <pt x="624" y="380" on="0"/>
        <pt x="559" y="356" on="1"/>
        <pt x="633" y="330" on="0"/>
        <pt x="702" y="247" on="0"/>
        <pt x="702" y="187" on="1"/>
        <pt x="702" y="86" on="0"/>
        <pt x="531" y="-24" on="0"/>
      </contour>
      <contour>
        <pt x="362" y="420" on="1"/>
        <pt x="411" y="420" on="0"/>
        <pt x="453" y="452" on="0"/>
        <pt x="453" y="481" on="1"/>
        <pt x="453" y="511" on="0"/>
        <pt x="410" y="544" on="0"/>
        <pt x="362" y="544" on="1"/>
        <pt x="313" y="544" on="0"/>
        <pt x="271" y="511" on="0"/>
        <pt x="271" y="481" on="1"/>
        <pt x="271" y="452" on="0"/>
        <pt x="313" y="420" on="0"/>
      </contour>
      <contour>
        <pt x="362" y="156" on="1"/>
        <pt x="413" y="156" on="0"/>
        <pt x="461" y="191" on="0"/>
        <pt x="461" y="223" on="1"/>
        <pt x="461" y="253" on="0"/>
        <pt x="415" y="285" on="0"/>
        <pt x="362" y="285" on="1"/>
        <pt x="308" y="285" on="0"/>
        <pt x="263" y="254" on="0"/>
        <pt x="263" y="223" on="1"/>
        <pt x="263" y="191" on="0"/>
        <pt x="310" y="156" on="0"/>
      </contour>
    </TTGlyph>
    <TTGlyph name="ellipsis" xMin="67" yMin="-11" xMax="1140" yMax="234">
      <component glyphName="period" x="0" y="0" flags="0x4"/>
      <component glyphName="period" x="399" y="0" flags="0x4"/>
      <component glyphName="period" x="798" y="0" flags="0x4"/>
    </TTGlyph>
    <TTGlyph name="emacron" xMin="26" yMin="-21" xMax="654" yMax="808">
      <component glyphName="e" x="0" y="0" flags="0x204"/>
      <component glyphName="macron" x="105" y="0" flags="0x4"/>
    </TTGlyph>
    <TTGlyph name="emacron.sc" xMin="66" yMin="0" xMax="651" yMax="852">
      <component glyphName="e.sc" x="0" y="0" flags="0x204"/>
      <component glyphName="macron" x="105" y="44" flags="0x4"/>
    </TTGlyph>
    <TTGlyph name="emdash" xMin="50" yMin="224" xMax="824" yMax="430">
      <contour>
        <pt x="50" y="224" on="1"/>
        <pt x="50" y="430" on="1"/>
        <pt x="824" y="430" on="1"/>
        <pt x="824" y="224" on="1"/>
      </contour>
    </TTGlyph>
    <TTGlyph name="emdash.cap" xMin="50" yMin="247" xMax="824" yMax="453">
      <component glyphName="emdash" x="0" y="23" flags="0x4"/>
    </TTGlyph>
    <TTGlyph name="endash" xMin="50" yMin="224" xMax="623" yMax="430">
      <contour>
        <pt x="50" y="224" on="1"/>
        <pt x="50" y="430" on="1"/>
        <pt x="623" y="430" on="1"/>
        <pt x="623" y="224" on="1"/>
      </contour>
    </TTGlyph>
    <TTGlyph name="endash.cap" xMin="50" yMin="247" xMax="623" yMax="453">
      <component glyphName="endash" x="0" y="23" flags="0x4"/>
    </TTGlyph>
    <TTGlyph name="endash.tab" xMin="76" yMin="249" xMax="649" yMax="455">
      <contour>
        <pt x="76" y="249" on="1"/>
        <pt x="76" y="455" on="1"/>
        <pt x="649" y="455" on="1"/>
        <pt x="649" y="249" on="1"/>
      </contour>
    </TTGlyph>
    <TTGlyph name="eogonek" xMin="26" yMin="-326" xMax="654" yMax="588">
      <contour>
        <pt x="372" y="-21" on="1"/>
        <pt x="294" y="-21" on="0"/>
        <pt x="166" y="14" on="0"/>
        <pt x="76" y="87" on="0"/>
        <pt x="26" y="197" on="0"/>
        <pt x="26" y="272" on="1"/>
        <pt x="26" y="344" on="0"/>
        <pt x="74" y="461" on="0"/>
        <pt x="161" y="543" on="0"/>
        <pt x="282" y="588" on="0"/>
        <pt x="354" y="588" on="1"/>
        <pt x="427" y="588" on="0"/>
        <pt x="540" y="545" on="0"/>
        <pt x="615" y="469" on="0"/>
        <pt x="654" y="362" on="0"/>
        <pt x="654" y="298" on="1"/>
        <pt x="654" y="282" on="0"/>
        <pt x="651" y="247" on="0"/>
        <pt x="649" y="231" on="1"/>
        <pt x="277" y="231" on="1"/>
        <pt x="287" y="188" on="0"/>
        <pt x="359" y="161" on="0"/>
        <pt x="416" y="161" on="1"/>
        <pt x="435" y="161" on="0"/>
        <pt x="486" y="167" on="0"/>
        <pt x="541" y="179" on="0"/>
        <pt x="594" y="196" on="0"/>
        <pt x="615" y="206" on="1"/>
        <pt x="616" y="206" on="1"/>
        <pt x="616" y="28" on="1"/>
        <pt x="547" y="-43" on="1"/>
        <pt x="514" y="-77" on="0"/>
        <pt x="485" y="-112" on="0"/>
        <pt x="485" y="-129" on="1"/>
        <pt x="485" y="-146" on="0"/>
        <pt x="512" y="-163" on="0"/>
        <pt x="542" y="-163" on="1"/>
        <pt x="558" y="-163" on="0"/>
        <pt x="602" y="-157" on="0"/>
        <pt x="625" y="-148" on="1"/>
        <pt x="625" y="-304" on="1"/>
        <pt x="590" y="-315" on="0"/>
        <pt x="530" y="-326" on="0"/>
        <pt x="492" y="-326" on="1"/>
        <pt x="426" y="-326" on="0"/>
        <pt x="342" y="-301" on="0"/>
        <pt x="295" y="-264" on="0"/>
        <pt x="278" y="-219" on="0"/>
        <pt x="278" y="-200" on="1"/>
        <pt x="278" y="-152" on="0"/>
        <pt x="353" y="-70" on="0"/>
        <pt x="443" y="-17" on="1"/>
        <pt x="425" y="-19" on="0"/>
        <pt x="389" y="-21" on="0"/>
      </contour>
      <contour>
        <pt x="357" y="415" on="1"/>
        <pt x="319" y="415" on="0"/>
        <pt x="281" y="367" on="0"/>
        <pt x="276" y="330" on="1"/>
        <pt x="441" y="330" on="1"/>
        <pt x="437" y="365" on="0"/>
        <pt x="394" y="415" on="0"/>
      </contour>
    </TTGlyph>
    <TTGlyph name="eogonek.sc" xMin="66" yMin="-326" xMax="666" yMax="608">
      <component glyphName="e.sc" x="0" y="0" flags="0x204"/>
      <component glyphName="ogonek" x="238" y="0" flags="0x4"/>
    </TTGlyph>
    <TTGlyph name="equal" xMin="75" yMin="119" xMax="653" yMax="583">
      <contour>
        <pt x="75" y="391" on="1"/>
        <pt x="75" y="583" on="1"/>
        <pt x="653" y="583" on="1"/>
        <pt x="653" y="391" on="1"/>
      </contour>
      <contour>
        <pt x="75" y="119" on="1"/>
        <pt x="75" y="311" on="1"/>
        <pt x="653" y="311" on="1"/>
        <pt x="653" y="119" on="1"/>
      </contour>
    </TTGlyph>
    <TTGlyph name="equal.tab" xMin="73" yMin="119" xMax="651" yMax="583">
      <component glyphName="equal" x="-2" y="0" flags="0x4"/>
    </TTGlyph>
    <TTGlyph name="eth" xMin="22" yMin="-24" xMax="704" yMax="792">
      <contour>
        <pt x="346" y="-24" on="1"/>
        <pt x="195" y="-24" on="0"/>
        <pt x="22" y="123" on="0"/>
        <pt x="22" y="245" on="1"/>
        <pt x="22" y="312" on="0"/>
        <pt x="67" y="411" on="0"/>
        <pt x="141" y="476" on="0"/>
        <pt x="238" y="507" on="0"/>
        <pt x="289" y="507" on="1"/>
        <pt x="340" y="507" on="0"/>
        <pt x="418" y="479" on="0"/>
        <pt x="446" y="454" on="1"/>
        <pt x="436" y="483" on="0"/>
        <pt x="396" y="549" on="0"/>
        <pt x="368" y="583" on="1"/>
        <pt x="168" y="531" on="1"/>
        <pt x="168" y="658" on="1"/>
        <pt x="265" y="683" on="1"/>
        <pt x="231" y="711" on="0"/>
        <pt x="155" y="761" on="0"/>
        <pt x="112" y="782" on="1"/>
        <pt x="112" y="792" on="1"/>
        <pt x="406" y="792" on="1"/>
        <pt x="426" y="781" on="0"/>
        <pt x="466" y="755" on="0"/>
        <pt x="485" y="740" on="1"/>
        <pt x="683" y="792" on="1"/>
        <pt x="683" y="665" on="1"/>
        <pt x="590" y="641" on="1"/>
        <pt x="641" y="581" on="0"/>
        <pt x="704" y="427" on="0"/>
        <pt x="704" y="337" on="1"/>
        <pt x="704" y="241" on="0"/>
        <pt x="650" y="103" on="0"/>
        <pt x="555" y="16" on="0"/>
        <pt x="423" y="-24" on="0"/>
      </contour>
      <contour>
        <pt x="270" y="256" on="1"/>
        <pt x="270" y="214" on="0"/>
        <pt x="318" y="166" on="0"/>
        <pt x="356" y="166" on="1"/>
        <pt x="409" y="166" on="0"/>
        <pt x="456" y="234" on="0"/>
        <pt x="456" y="285" on="1"/>
        <pt x="456" y="295" on="0"/>
        <pt x="454" y="313" on="0"/>
        <pt x="453" y="323" on="1"/>
        <pt x="434" y="336" on="0"/>
        <pt x="389" y="351" on="0"/>
        <pt x="365" y="351" on="1"/>
        <pt x="319" y="351" on="0"/>
        <pt x="270" y="296" on="0"/>
      </contour>
    </TTGlyph>
    <TTGlyph name="eth.sc" xMin="29" yMin="0" xMax="808" yMax="608">
      <contour>
        <pt x="127" y="0" on="1"/>
        <pt x="127" y="223" on="1"/>
        <pt x="29" y="223" on="1"/>
        <pt x="40" y="388" on="1"/>
        <pt x="127" y="388" on="1"/>
        <pt x="127" y="608" on="1"/>
        <pt x="496" y="608" on="1"/>
        <pt x="639" y="608" on="0"/>
        <pt x="808" y="453" on="0"/>
        <pt x="808" y="304" on="1"/>
        <pt x="808" y="155" on="0"/>
        <pt x="639" y="0" on="0"/>
        <pt x="496" y="0" on="1"/>
      </contour>
      <contour>
        <pt x="379" y="186" on="1"/>
        <pt x="450" y="186" on="1"/>
        <pt x="496" y="186" on="0"/>
        <pt x="552" y="238" on="0"/>
        <pt x="552" y="304" on="1"/>
        <pt x="552" y="370" on="0"/>
        <pt x="496" y="422" on="0"/>
        <pt x="450" y="422" on="1"/>
        <pt x="379" y="422" on="1"/>
        <pt x="379" y="370" on="1"/>
        <pt x="473" y="370" on="1"/>
        <pt x="473" y="239" on="1"/>
        <pt x="379" y="239" on="1"/>
      </contour>
    </TTGlyph>
    <TTGlyph name="exclam" xMin="62" yMin="-11" xMax="366" yMax="700">
      <contour>
        <pt x="121" y="289" on="1"/>
        <pt x="62" y="667" on="1"/>
        <pt x="62" y="700" on="1"/>
        <pt x="366" y="700" on="1"/>
        <pt x="366" y="667" on="1"/>
        <pt x="307" y="289" on="1"/>
      </contour>
      <contour>
        <pt x="213" y="-11" on="1"/>
        <pt x="150" y="-11" on="0"/>
        <pt x="77" y="55" on="0"/>
        <pt x="77" y="111" on="1"/>
        <pt x="77" y="168" on="0"/>
        <pt x="150" y="234" on="0"/>
        <pt x="213" y="234" on="1"/>
        <pt x="277" y="234" on="0"/>
        <pt x="352" y="168" on="0"/>
        <pt x="352" y="112" on="1"/>
        <pt x="352" y="55" on="0"/>
        <pt x="277" y="-11" on="0"/>
      </contour>
    </TTGlyph>
    <TTGlyph name="exclamdown" xMin="62" yMin="-123" xMax="366" yMax="588">
      <contour>
        <pt x="215" y="588" on="1"/>
        <pt x="278" y="588" on="0"/>
        <pt x="351" y="522" on="0"/>
        <pt x="351" y="466" on="1"/>
        <pt x="351" y="409" on="0"/>
        <pt x="278" y="343" on="0"/>
        <pt x="215" y="343" on="1"/>
        <pt x="151" y="343" on="0"/>
        <pt x="76" y="409" on="0"/>
        <pt x="76" y="465" on="1"/>
        <pt x="76" y="522" on="0"/>
        <pt x="151" y="588" on="0"/>
      </contour>
      <contour>
        <pt x="307" y="288" on="1"/>
        <pt x="366" y="-90" on="1"/>
        <pt x="366" y="-123" on="1"/>
        <pt x="62" y="-123" on="1"/>
        <pt x="62" y="-90" on="1"/>
        <pt x="121" y="288" on="1"/>
      </contour>
    </TTGlyph>
    <TTGlyph name="exclamdown.cap" xMin="62" yMin="0" xMax="366" yMax="711">
      <contour>
        <pt x="215" y="711" on="1"/>
        <pt x="278" y="711" on="0"/>
        <pt x="351" y="645" on="0"/>
        <pt x="351" y="589" on="1"/>
        <pt x="351" y="532" on="0"/>
        <pt x="278" y="466" on="0"/>
        <pt x="215" y="466" on="1"/>
        <pt x="151" y="466" on="0"/>
        <pt x="76" y="532" on="0"/>
        <pt x="76" y="588" on="1"/>
        <pt x="76" y="645" on="0"/>
        <pt x="151" y="711" on="0"/>
      </contour>
      <contour>
        <pt x="307" y="411" on="1"/>
        <pt x="366" y="33" on="1"/>
        <pt x="366" y="0" on="1"/>
        <pt x="62" y="0" on="1"/>
        <pt x="62" y="33" on="1"/>
        <pt x="121" y="411" on="1"/>
      </contour>
    </TTGlyph>
    <TTGlyph name="f" xMin="6" yMin="0" xMax="515" yMax="807">
      <contour>
        <pt x="122" y="0" on="1"/>
        <pt x="122" y="384" on="1"/>
        <pt x="6" y="384" on="1"/>
        <pt x="36" y="564" on="1"/>
        <pt x="122" y="564" on="1"/>
        <pt x="123" y="673" on="0"/>
        <pt x="240" y="807" on="0"/>
        <pt x="386" y="807" on="1"/>
        <pt x="418" y="807" on="0"/>
        <pt x="480" y="797" on="0"/>
        <pt x="505" y="790" on="1"/>
        <pt x="505" y="621" on="1"/>
        <pt x="504" y="621" on="1"/>
        <pt x="489" y="625" on="0"/>
        <pt x="454" y="631" on="0"/>
        <pt x="441" y="631" on="1"/>
        <pt x="406" y="631" on="0"/>
        <pt x="373" y="603" on="0"/>
        <pt x="373" y="564" on="1"/>
        <pt x="515" y="564" on="1"/>
        <pt x="515" y="384" on="1"/>
        <pt x="373" y="384" on="1"/>
        <pt x="373" y="0" on="1"/>
      </contour>
    </TTGlyph>
    <TTGlyph name="f.sc" xMin="66" yMin="0" xMax="634" yMax="608">
      <contour>
        <pt x="66" y="0" on="1"/>
        <pt x="66" y="608" on="1"/>
        <pt x="623" y="608" on="1"/>
        <pt x="634" y="418" on="1"/>
        <pt x="323" y="418" on="1"/>
        <pt x="323" y="337" on="1"/>
        <pt x="576" y="337" on="1"/>
        <pt x="576" y="184" on="1"/>
        <pt x="323" y="184" on="1"/>
        <pt x="323" y="0" on="1"/>
      </contour>
    </TTGlyph>
    <TTGlyph name="five" xMin="52" yMin="-23" xMax="672" yMax="700">
      <contour>
        <pt x="340" y="-23" on="1"/>
        <pt x="264" y="-23" on="0"/>
        <pt x="118" y="-4" on="0"/>
        <pt x="52" y="18" on="1"/>
        <pt x="52" y="226" on="1"/>
        <pt x="53" y="226" on="1"/>
        <pt x="113" y="205" on="0"/>
        <pt x="264" y="178" on="0"/>
        <pt x="328" y="178" on="1"/>
        <pt x="391" y="178" on="0"/>
        <pt x="421" y="212" on="0"/>
        <pt x="421" y="225" on="1"/>
        <pt x="421" y="232" on="0"/>
        <pt x="416" y="243" on="0"/>
        <pt x="411" y="248" on="1"/>
        <pt x="396" y="263" on="0"/>
        <pt x="299" y="272" on="0"/>
        <pt x="195" y="272" on="1"/>
        <pt x="66" y="272" on="1"/>
        <pt x="76" y="700" on="1"/>
        <pt x="618" y="700" on="1"/>
        <pt x="629" y="505" on="1"/>
        <pt x="291" y="505" on="1"/>
        <pt x="290" y="441" on="1"/>
        <pt x="302" y="441" on="1"/>
        <pt x="409" y="441" on="0"/>
        <pt x="568" y="416" on="0"/>
        <pt x="618" y="365" on="1"/>
        <pt x="645" y="337" on="0"/>
        <pt x="672" y="265" on="0"/>
        <pt x="672" y="219" on="1"/>
        <pt x="672" y="159" on="0"/>
        <pt x="624" y="67" on="0"/>
        <pt x="537" y="7" on="0"/>
        <pt x="414" y="-23" on="0"/>
      </contour>
    </TTGlyph>
    <TTGlyph name="five.den" xMin="41" yMin="-16" xMax="413" yMax="427">
      <component glyphName="five.small" x="0" y="0" flags="0x204"/>
    </TTGlyph>
    <TTGlyph name="five.inf" xMin="41" yMin="-230" xMax="413" yMax="213">
      <component glyphName="five.small" x="0" y="-214" flags="0x4"/>
    </TTGlyph>
    <TTGlyph name="five.num" xMin="41" yMin="257" xMax="413" yMax="700">
      <component glyphName="five.small" x="0" y="273" flags="0x4"/>
    </TTGlyph>
    <TTGlyph name="five.osf" xMin="52" yMin="-117" xMax="620" yMax="608">
      <contour>
        <pt x="314" y="-117" on="1"/>
        <pt x="233" y="-117" on="0"/>
        <pt x="115" y="-96" on="0"/>
        <pt x="52" y="-81" on="1"/>
        <pt x="52" y="125" on="1"/>
        <pt x="53" y="125" on="1"/>
        <pt x="109" y="106" on="0"/>
        <pt x="238" y="78" on="0"/>
        <pt x="290" y="78" on="1"/>
        <pt x="323" y="78" on="0"/>
        <pt x="360" y="90" on="0"/>
        <pt x="379" y="107" on="0"/>
        <pt x="383" y="125" on="0"/>
        <pt x="383" y="131" on="1"/>
        <pt x="383" y="141" on="0"/>
        <pt x="378" y="154" on="0"/>
        <pt x="374" y="158" on="1"/>
        <pt x="367" y="165" on="0"/>
        <pt x="346" y="174" on="0"/>
        <pt x="307" y="179" on="0"/>
        <pt x="242" y="180" on="0"/>
        <pt x="192" y="180" on="1"/>
        <pt x="66" y="180" on="1"/>
        <pt x="76" y="608" on="1"/>
        <pt x="573" y="608" on="1"/>
        <pt x="584" y="415" on="1"/>
        <pt x="289" y="415" on="1"/>
        <pt x="288" y="347" on="1"/>
        <pt x="330" y="347" on="1"/>
        <pt x="469" y="347" on="0"/>
        <pt x="620" y="249" on="0"/>
        <pt x="620" y="127" on="1"/>
        <pt x="620" y="65" on="0"/>
        <pt x="575" y="-27" on="0"/>
        <pt x="494" y="-87" on="0"/>
        <pt x="381" y="-117" on="0"/>
      </contour>
    </TTGlyph>
    <TTGlyph name="five.small" xMin="41" yMin="-16" xMax="413" yMax="427">
      <contour>
        <pt x="215" y="-16" on="1"/>
        <pt x="164" y="-16" on="0"/>
        <pt x="77" y="-4" on="0"/>
        <pt x="41" y="7" on="1"/>
        <pt x="41" y="140" on="1"/>
        <pt x="42" y="140" on="1"/>
        <pt x="76" y="132" on="0"/>
        <pt x="159" y="120" on="0"/>
        <pt x="193" y="120" on="1"/>
        <pt x="236" y="120" on="0"/>
        <pt x="256" y="130" on="0"/>
        <pt x="256" y="139" on="1"/>
        <pt x="256" y="143" on="0"/>
        <pt x="252" y="152" on="0"/>
        <pt x="245" y="155" on="1"/>
        <pt x="235" y="160" on="0"/>
        <pt x="185" y="166" on="0"/>
        <pt x="136" y="166" on="1"/>
        <pt x="46" y="166" on="1"/>
        <pt x="52" y="427" on="1"/>
        <pt x="387" y="427" on="1"/>
        <pt x="393" y="295" on="1"/>
        <pt x="191" y="295" on="1"/>
        <pt x="190" y="264" on="1"/>
        <pt x="194" y="264" on="1"/>
        <pt x="270" y="264" on="0"/>
        <pt x="355" y="245" on="0"/>
        <pt x="380" y="220" on="1"/>
        <pt x="397" y="203" on="0"/>
        <pt x="413" y="157" on="0"/>
        <pt x="413" y="129" on="1"/>
        <pt x="413" y="60" on="0"/>
        <pt x="307" y="-16" on="0"/>
      </contour>
    </TTGlyph>
    <TTGlyph name="five.sup" xMin="41" yMin="349" xMax="413" yMax="792">
      <component glyphName="five.small" x="0" y="365" flags="0x4"/>
    </TTGlyph>
    <TTGlyph name="five.tab" xMin="69" yMin="-23" xMax="687" yMax="700">
      <contour>
        <pt x="356" y="-23" on="1"/>
        <pt x="278" y="-23" on="0"/>
        <pt x="135" y="-1" on="0"/>
        <pt x="69" y="21" on="1"/>
        <pt x="69" y="231" on="1"/>
        <pt x="70" y="231" on="1"/>
        <pt x="130" y="209" on="0"/>
        <pt x="278" y="178" on="0"/>
        <pt x="344" y="178" on="1"/>
        <pt x="376" y="178" on="0"/>
        <pt x="415" y="189" on="0"/>
        <pt x="434" y="203" on="0"/>
        <pt x="439" y="220" on="0"/>
        <pt x="439" y="226" on="1"/>
        <pt x="439" y="233" on="0"/>
        <pt x="435" y="245" on="0"/>
        <pt x="430" y="250" on="1"/>
        <pt x="415" y="265" on="0"/>
        <pt x="325" y="270" on="0"/>
        <pt x="232" y="270" on="1"/>
        <pt x="79" y="270" on="1"/>
        <pt x="89" y="700" on="1"/>
        <pt x="644" y="700" on="1"/>
        <pt x="652" y="505" on="1"/>
        <pt x="304" y="505" on="1"/>
        <pt x="303" y="437" on="1"/>
        <pt x="326" y="437" on="1"/>
        <pt x="453" y="437" on="0"/>
        <pt x="594" y="403" on="0"/>
        <pt x="633" y="363" on="1"/>
        <pt x="657" y="338" on="0"/>
        <pt x="687" y="269" on="0"/>
        <pt x="687" y="218" on="1"/>
        <pt x="687" y="158" on="0"/>
        <pt x="639" y="67" on="0"/>
        <pt x="553" y="7" on="0"/>
        <pt x="430" y="-23" on="0"/>
      </contour>
    </TTGlyph>
    <TTGlyph name="fiveeighths" xMin="41" yMin="-15" xMax="1147" yMax="700">
      <component glyphName="five.num" x="0" y="0" flags="0x4"/>
      <component glyphName="fraction" x="431" y="0" flags="0x4"/>
      <component glyphName="eight.den" x="722" y="0" flags="0x4"/>
    </TTGlyph>
    <TTGlyph name="fiveeighths.tab" xMin="41" yMin="-15" xMax="1077" yMax="700">
      <component glyphName="five.num" x="0" y="0" flags="0x4"/>
      <component glyphName="fraction.tab" x="434" y="0" flags="0x4"/>
      <component glyphName="eight.den" x="652" y="0" flags="0x4"/>
    </TTGlyph>
    <TTGlyph name="four" xMin="29" yMin="0" xMax="768" yMax="700">
      <contour>
        <pt x="420" y="0" on="1"/>
        <pt x="420" y="129" on="1"/>
        <pt x="29" y="129" on="1"/>
        <pt x="29" y="303" on="1"/>
        <pt x="218" y="700" on="1"/>
        <pt x="657" y="700" on="1"/>
        <pt x="657" y="324" on="1"/>
        <pt x="768" y="324" on="1"/>
        <pt x="757" y="129" on="1"/>
        <pt x="657" y="129" on="1"/>
        <pt x="657" y="0" on="1"/>
      </contour>
      <contour>
        <pt x="427" y="515" on="1"/>
        <pt x="368" y="515" on="1"/>
        <pt x="281" y="319" on="1"/>
        <pt x="427" y="319" on="1"/>
      </contour>
    </TTGlyph>
    <TTGlyph name="four.den" xMin="8" yMin="0" xMax="433" yMax="427">
      <component glyphName="four.small" x="0" y="0" flags="0x204"/>
    </TTGlyph>
    <TTGlyph name="four.inf" xMin="8" yMin="-214" xMax="433" yMax="213">
      <component glyphName="four.small" x="0" y="-214" flags="0x4"/>
    </TTGlyph>
    <TTGlyph name="four.num" xMin="8" yMin="273" xMax="433" yMax="700">
      <component glyphName="four.small" x="0" y="273" flags="0x4"/>
    </TTGlyph>
    <TTGlyph name="four.osf" xMin="34" yMin="-92" xMax="747" yMax="608">
      <contour>
        <pt x="402" y="-92" on="1"/>
        <pt x="402" y="37" on="1"/>
        <pt x="34" y="37" on="1"/>
        <pt x="34" y="214" on="1"/>
        <pt x="199" y="608" on="1"/>
        <pt x="637" y="608" on="1"/>
        <pt x="637" y="226" on="1"/>
        <pt x="747" y="226" on="1"/>
        <pt x="736" y="37" on="1"/>
        <pt x="637" y="37" on="1"/>
        <pt x="637" y="-92" on="1"/>
      </contour>
      <contour>
        <pt x="279" y="220" on="1"/>
        <pt x="409" y="220" on="1"/>
        <pt x="409" y="422" on="1"/>
        <pt x="355" y="422" on="1"/>
      </contour>
    </TTGlyph>
    <TTGlyph name="four.small" xMin="8" yMin="0" xMax="433" yMax="427">
      <contour>
        <pt x="228" y="0" on="1"/>
        <pt x="228" y="72" on="1"/>
        <pt x="8" y="72" on="1"/>
        <pt x="8" y="191" on="1"/>
        <pt x="102" y="427" on="1"/>
        <pt x="385" y="427" on="1"/>
        <pt x="385" y="195" on="1"/>
        <pt x="433" y="195" on="1"/>
        <pt x="424" y="72" on="1"/>
        <pt x="385" y="72" on="1"/>
        <pt x="385" y="0" on="1"/>
      </contour>
      <contour>
        <pt x="158" y="191" on="1"/>
        <pt x="236" y="191" on="1"/>
        <pt x="236" y="304" on="1"/>
        <pt x="199" y="304" on="1"/>
      </contour>
    </TTGlyph>
    <TTGlyph name="four.sup" xMin="8" yMin="365" xMax="433" yMax="792">
      <component glyphName="four.small" x="0" y="365" flags="0x4"/>
    </TTGlyph>
    <TTGlyph name="four.tab" xMin="22" yMin="0" xMax="715" yMax="700">
      <contour>
        <pt x="400" y="0" on="1"/>
        <pt x="400" y="119" on="1"/>
        <pt x="22" y="119" on="1"/>
        <pt x="22" y="298" on="1"/>
        <pt x="178" y="700" on="1"/>
        <pt x="628" y="700" on="1"/>
        <pt x="628" y="311" on="1"/>
        <pt x="715" y="311" on="1"/>
        <pt x="703" y="119" on="1"/>
        <pt x="628" y="119" on="1"/>
        <pt x="628" y="0" on="1"/>
      </contour>
      <contour>
        <pt x="262" y="306" on="1"/>
        <pt x="407" y="306" on="1"/>
        <pt x="407" y="515" on="1"/>
        <pt x="337" y="515" on="1"/>
      </contour>
    </TTGlyph>
    <TTGlyph name="fraction" xMin="-201" yMin="0" xMax="487" yMax="700">
      <contour>
        <pt x="-201" y="1" on="1"/>
        <pt x="327" y="700" on="1"/>
        <pt x="487" y="700" on="1"/>
        <pt x="487" y="699" on="1"/>
        <pt x="-41" y="0" on="1"/>
        <pt x="-201" y="0" on="1"/>
      </contour>
    </TTGlyph>
    <TTGlyph name="fraction.tab" xMin="-235" yMin="0" xMax="453" yMax="700">
      <contour>
        <pt x="-235" y="1" on="1"/>
        <pt x="293" y="700" on="1"/>
        <pt x="453" y="700" on="1"/>
        <pt x="453" y="699" on="1"/>
        <pt x="-75" y="0" on="1"/>
        <pt x="-235" y="0" on="1"/>
      </contour>
    </TTGlyph>
    <TTGlyph name="g" xMin="-4" yMin="-248" xMax="687" yMax="671">
      <contour>
        <pt x="334" y="169" on="1"/>
        <pt x="326" y="169" on="0"/>
        <pt x="310" y="169" on="0"/>
        <pt x="302" y="170" on="1"/>
        <pt x="297" y="132" on="1"/>
        <pt x="403" y="122" on="0"/>
        <pt x="549" y="90" on="0"/>
        <pt x="638" y="44" on="0"/>
        <pt x="677" y="-18" on="0"/>
        <pt x="677" y="-57" on="1"/>
        <pt x="677" y="-89" on="0"/>
        <pt x="645" y="-157" on="0"/>
        <pt x="566" y="-212" on="0"/>
        <pt x="428" y="-248" on="0"/>
        <pt x="324" y="-248" on="1"/>
        <pt x="159" y="-248" on="0"/>
        <pt x="-4" y="-166" on="0"/>
        <pt x="-4" y="-100" on="1"/>
        <pt x="-4" y="-61" on="0"/>
        <pt x="45" y="-9" on="0"/>
        <pt x="99" y="14" on="1"/>
        <pt x="140" y="202" on="1"/>
        <pt x="91" y="224" on="0"/>
        <pt x="32" y="304" on="0"/>
        <pt x="32" y="364" on="1"/>
        <pt x="32" y="421" on="0"/>
        <pt x="80" y="504" on="0"/>
        <pt x="160" y="557" on="0"/>
        <pt x="268" y="582" on="0"/>
        <pt x="328" y="582" on="1"/>
        <pt x="347" y="582" on="0"/>
        <pt x="384" y="578" on="0"/>
        <pt x="401" y="575" on="1"/>
        <pt x="447" y="671" on="1"/>
        <pt x="687" y="671" on="1"/>
        <pt x="687" y="646" on="1"/>
        <pt x="547" y="519" on="1"/>
        <pt x="592" y="492" on="0"/>
        <pt x="635" y="421" on="0"/>
        <pt x="635" y="372" on="1"/>
        <pt x="635" y="316" on="0"/>
        <pt x="587" y="239" on="0"/>
        <pt x="506" y="191" on="0"/>
        <pt x="396" y="169" on="0"/>
      </contour>
      <contour>
        <pt x="334" y="305" on="1"/>
        <pt x="365" y="305" on="0"/>
        <pt x="404" y="338" on="0"/>
        <pt x="404" y="374" on="1"/>
        <pt x="404" y="410" on="0"/>
        <pt x="365" y="442" on="0"/>
        <pt x="334" y="442" on="1"/>
        <pt x="303" y="442" on="0"/>
        <pt x="264" y="409" on="0"/>
        <pt x="264" y="373" on="1"/>
        <pt x="264" y="337" on="0"/>
        <pt x="303" y="305" on="0"/>
      </contour>
      <contour>
        <pt x="353" y="-116" on="1"/>
        <pt x="399" y="-116" on="0"/>
        <pt x="461" y="-97" on="0"/>
        <pt x="461" y="-80" on="1"/>
        <pt x="461" y="-65" on="0"/>
        <pt x="338" y="-32" on="0"/>
        <pt x="183" y="-25" on="1"/>
        <pt x="181" y="-31" on="0"/>
        <pt x="179" y="-40" on="0"/>
        <pt x="179" y="-46" on="1"/>
        <pt x="179" y="-67" on="0"/>
        <pt x="208" y="-94" on="0"/>
        <pt x="257" y="-110" on="0"/>
        <pt x="320" y="-116" on="0"/>
      </contour>
    </TTGlyph>
    <TTGlyph name="g.sc" xMin="37" yMin="-23" xMax="741" yMax="627">
      <contour>
        <pt x="402" y="-23" on="1"/>
        <pt x="318" y="-23" on="0"/>
        <pt x="182" y="17" on="0"/>
        <pt x="88" y="97" on="0"/>
        <pt x="37" y="215" on="0"/>
        <pt x="37" y="293" on="1"/>
        <pt x="37" y="366" on="0"/>
        <pt x="89" y="489" on="0"/>
        <pt x="188" y="578" on="0"/>
        <pt x="333" y="627" on="0"/>
        <pt x="425" y="627" on="1"/>
        <pt x="490" y="627" on="0"/>
        <pt x="619" y="606" on="0"/>
        <pt x="669" y="587" on="1"/>
        <pt x="669" y="385" on="1"/>
        <pt x="668" y="385" on="1"/>
        <pt x="602" y="407" on="0"/>
        <pt x="500" y="424" on="0"/>
        <pt x="448" y="424" on="1"/>
        <pt x="371" y="424" on="0"/>
        <pt x="292" y="356" on="0"/>
        <pt x="292" y="288" on="1"/>
        <pt x="292" y="223" on="0"/>
        <pt x="364" y="164" on="0"/>
        <pt x="430" y="164" on="1"/>
        <pt x="462" y="164" on="0"/>
        <pt x="522" y="185" on="0"/>
        <pt x="523" y="216" on="1"/>
        <pt x="384" y="216" on="1"/>
        <pt x="384" y="359" on="1"/>
        <pt x="736" y="359" on="1"/>
        <pt x="738" y="338" on="0"/>
        <pt x="741" y="293" on="0"/>
        <pt x="741" y="271" on="1"/>
        <pt x="741" y="131" on="0"/>
        <pt x="571" y="-23" on="0"/>
      </contour>
    </TTGlyph>
    <TTGlyph name="gbreve" xMin="-4" yMin="-248" xMax="687" yMax="928">
      <component glyphName="g" x="0" y="0" flags="0x204"/>
      <component glyphName="breve" x="94" y="71" flags="0x4"/>
    </TTGlyph>
    <TTGlyph name="gbreve.sc" xMin="37" yMin="-23" xMax="741" yMax="920">
      <component glyphName="g.sc" x="0" y="0" flags="0x204"/>
      <component glyphName="breve" x="165" y="63" flags="0x4"/>
    </TTGlyph>
    <TTGlyph name="gdotaccent" xMin="-4" yMin="-248" xMax="687" yMax="913">
      <component glyphName="g" x="0" y="0" flags="0x204"/>
      <component glyphName="dotaccent" x="96" y="71" flags="0x4"/>
    </TTGlyph>
    <TTGlyph name="gdotaccent.sc" xMin="37" yMin="-23" xMax="741" yMax="905">
      <component glyphName="g.sc" x="0" y="0" flags="0x204"/>
      <component glyphName="dotaccent" x="167" y="63" flags="0x4"/>
    </TTGlyph>
    <TTGlyph name="germandbls" xMin="6" yMin="-15" xMax="829" yMax="807">
      <contour>
        <pt x="6" y="384" on="1"/>
        <pt x="36" y="564" on="1"/>
        <pt x="129" y="564" on="1"/>
        <pt x="151" y="677" on="0"/>
        <pt x="329" y="807" on="0"/>
        <pt x="466" y="807" on="1"/>
        <pt x="538" y="807" on="0"/>
        <pt x="651" y="772" on="0"/>
        <pt x="735" y="711" on="0"/>
        <pt x="796" y="631" on="0"/>
        <pt x="816" y="586" on="1"/>
        <pt x="660" y="419" on="1"/>
        <pt x="755" y="372" on="0"/>
        <pt x="829" y="275" on="0"/>
        <pt x="829" y="202" on="1"/>
        <pt x="829" y="101" on="0"/>
        <pt x="693" y="-15" on="0"/>
        <pt x="582" y="-15" on="1"/>
        <pt x="531" y="-15" on="0"/>
        <pt x="457" y="-5" on="0"/>
        <pt x="426" y="5" on="1"/>
        <pt x="426" y="188" on="1"/>
        <pt x="427" y="188" on="1"/>
        <pt x="451" y="178" on="0"/>
        <pt x="497" y="169" on="0"/>
        <pt x="519" y="169" on="1"/>
        <pt x="550" y="169" on="0"/>
        <pt x="576" y="200" on="0"/>
        <pt x="576" y="222" on="1"/>
        <pt x="576" y="249" on="0"/>
        <pt x="538" y="281" on="0"/>
        <pt x="491" y="298" on="1"/>
        <pt x="445" y="315" on="1"/>
        <pt x="441" y="433" on="1"/>
        <pt x="558" y="565" on="1"/>
        <pt x="546" y="581" on="0"/>
        <pt x="506" y="604" on="0"/>
        <pt x="478" y="604" on="1"/>
        <pt x="424" y="604" on="0"/>
        <pt x="375" y="533" on="0"/>
        <pt x="375" y="463" on="1"/>
        <pt x="375" y="0" on="1"/>
        <pt x="122" y="0" on="1"/>
        <pt x="122" y="384" on="1"/>
      </contour>
    </TTGlyph>
    <TTGlyph name="germandbls.sc" xMin="54" yMin="-19" xMax="1369" yMax="627">
      <component glyphName="s.sc" x="0" y="0" flags="0x4"/>
      <component glyphName="s.sc" x="699" y="0" flags="0x4"/>
    </TTGlyph>
    <TTGlyph name="grave" xMin="32" yMin="630" xMax="420" yMax="821">
      <contour>
        <pt x="420" y="630" on="1"/>
        <pt x="209" y="630" on="1"/>
        <pt x="32" y="801" on="1"/>
        <pt x="32" y="821" on="1"/>
        <pt x="294" y="821" on="1"/>
      </contour>
    </TTGlyph>
    <TTGlyph name="greater" xMin="82" yMin="4" xMax="610" yMax="696">
      <contour>
        <pt x="82" y="696" on="1"/>
        <pt x="610" y="468" on="1"/>
        <pt x="610" y="232" on="1"/>
        <pt x="82" y="4" on="1"/>
        <pt x="82" y="241" on="1"/>
        <pt x="337" y="350" on="1"/>
        <pt x="82" y="459" on="1"/>
      </contour>
    </TTGlyph>
    <TTGlyph name="greater.tab" xMin="111" yMin="6" xMax="639" yMax="698">
      <component glyphName="greater" x="29" y="2" flags="0x4"/>
    </TTGlyph>
    <TTGlyph name="guillemotleft" xMin="24" yMin="39" xMax="792" yMax="525">
      <contour>
        <pt x="438" y="525" on="1"/>
        <pt x="263" y="282" on="1"/>
        <pt x="438" y="39" on="1"/>
        <pt x="190" y="39" on="1"/>
        <pt x="24" y="269" on="1"/>
        <pt x="24" y="295" on="1"/>
        <pt x="190" y="525" on="1"/>
      </contour>
      <contour>
        <pt x="792" y="525" on="1"/>
        <pt x="617" y="282" on="1"/>
        <pt x="792" y="39" on="1"/>
        <pt x="544" y="39" on="1"/>
        <pt x="378" y="269" on="1"/>
        <pt x="378" y="295" on="1"/>
        <pt x="544" y="525" on="1"/>
      </contour>
    </TTGlyph>
    <TTGlyph name="guillemotleft.cap" xMin="24" yMin="107" xMax="792" yMax="593">
      <component glyphName="guillemotleft" x="0" y="68" flags="0x4"/>
    </TTGlyph>
    <TTGlyph name="guillemotright" xMin="36" yMin="39" xMax="804" yMax="525">
      <contour>
        <pt x="390" y="39" on="1"/>
        <pt x="565" y="282" on="1"/>
        <pt x="390" y="525" on="1"/>
        <pt x="638" y="525" on="1"/>
        <pt x="804" y="295" on="1"/>
        <pt x="804" y="269" on="1"/>
        <pt x="638" y="39" on="1"/>
      </contour>
      <contour>
        <pt x="36" y="39" on="1"/>
        <pt x="211" y="282" on="1"/>
        <pt x="36" y="525" on="1"/>
        <pt x="284" y="525" on="1"/>
        <pt x="450" y="295" on="1"/>
        <pt x="450" y="269" on="1"/>
        <pt x="284" y="39" on="1"/>
      </contour>
    </TTGlyph>
    <TTGlyph name="guillemotright.cap" xMin="36" yMin="107" xMax="804" yMax="593">
      <component glyphName="guillemotright" x="0" y="68" flags="0x4"/>
    </TTGlyph>
    <TTGlyph name="guilsinglleft" xMin="24" yMin="39" xMax="470" yMax="525">
      <contour>
        <pt x="470" y="39" on="1"/>
        <pt x="190" y="39" on="1"/>
        <pt x="24" y="269" on="1"/>
        <pt x="24" y="295" on="1"/>
        <pt x="190" y="525" on="1"/>
        <pt x="470" y="525" on="1"/>
        <pt x="295" y="282" on="1"/>
      </contour>
    </TTGlyph>
    <TTGlyph name="guilsinglleft.cap" xMin="24" yMin="107" xMax="470" yMax="593">
      <component glyphName="guilsinglleft" x="0" y="68" flags="0x4"/>
    </TTGlyph>
    <TTGlyph name="guilsinglright" xMin="36" yMin="39" xMax="482" yMax="525">
      <contour>
        <pt x="36" y="525" on="1"/>
        <pt x="316" y="525" on="1"/>
        <pt x="482" y="295" on="1"/>
        <pt x="482" y="269" on="1"/>
        <pt x="316" y="39" on="1"/>
        <pt x="36" y="39" on="1"/>
        <pt x="211" y="282" on="1"/>
      </contour>
    </TTGlyph>
    <TTGlyph name="guilsinglright.cap" xMin="36" yMin="107" xMax="482" yMax="593">
      <component glyphName="guilsinglright" x="0" y="68" flags="0x4"/>
    </TTGlyph>
    <TTGlyph name="h" xMin="56" yMin="0" xMax="696" yMax="792">
      <contour>
        <pt x="56" y="0" on="1"/>
        <pt x="56" y="792" on="1"/>
        <pt x="313" y="792" on="1"/>
        <pt x="313" y="484" on="1"/>
        <pt x="352" y="533" on="0"/>
        <pt x="446" y="586" on="0"/>
        <pt x="510" y="586" on="1"/>
        <pt x="600" y="586" on="0"/>
        <pt x="696" y="476" on="0"/>
        <pt x="696" y="386" on="1"/>
        <pt x="696" y="0" on="1"/>
        <pt x="439" y="0" on="1"/>
        <pt x="439" y="311" on="1"/>
        <pt x="439" y="346" on="0"/>
        <pt x="411" y="374" on="0"/>
        <pt x="386" y="374" on="1"/>
        <pt x="366" y="374" on="0"/>
        <pt x="329" y="360" on="0"/>
        <pt x="313" y="347" on="1"/>
        <pt x="313" y="0" on="1"/>
      </contour>
    </TTGlyph>
    <TTGlyph name="h.sc" xMin="66" yMin="0" xMax="750" yMax="608">
      <contour>
        <pt x="66" y="0" on="1"/>
        <pt x="66" y="608" on="1"/>
        <pt x="323" y="608" on="1"/>
        <pt x="323" y="408" on="1"/>
        <pt x="492" y="408" on="1"/>
        <pt x="492" y="608" on="1"/>
        <pt x="750" y="608" on="1"/>
        <pt x="750" y="0" on="1"/>
        <pt x="492" y="0" on="1"/>
        <pt x="492" y="203" on="1"/>
        <pt x="323" y="203" on="1"/>
        <pt x="323" y="0" on="1"/>
      </contour>
    </TTGlyph>
    <TTGlyph name="hbar" xMin="-26" yMin="0" xMax="706" yMax="792">
      <contour>
        <pt x="66" y="0" on="1"/>
        <pt x="66" y="579" on="1"/>
        <pt x="-26" y="579" on="1"/>
        <pt x="-15" y="710" on="1"/>
        <pt x="66" y="710" on="1"/>
        <pt x="66" y="792" on="1"/>
        <pt x="323" y="792" on="1"/>
        <pt x="323" y="710" on="1"/>
        <pt x="476" y="710" on="1"/>
        <pt x="476" y="579" on="1"/>
        <pt x="323" y="579" on="1"/>
        <pt x="323" y="447" on="1"/>
        <pt x="362" y="496" on="0"/>
        <pt x="456" y="549" on="0"/>
        <pt x="520" y="549" on="1"/>
        <pt x="610" y="549" on="0"/>
        <pt x="706" y="439" on="0"/>
        <pt x="706" y="349" on="1"/>
        <pt x="706" y="0" on="1"/>
        <pt x="449" y="0" on="1"/>
        <pt x="449" y="274" on="1"/>
        <pt x="449" y="309" on="0"/>
        <pt x="421" y="337" on="0"/>
        <pt x="396" y="337" on="1"/>
        <pt x="376" y="337" on="0"/>
        <pt x="339" y="323" on="0"/>
        <pt x="323" y="310" on="1"/>
        <pt x="323" y="0" on="1"/>
      </contour>
    </TTGlyph>
    <TTGlyph name="hbar.sc" xMin="29" yMin="0" xMax="908" yMax="608">
      <contour>
        <pt x="127" y="0" on="1"/>
        <pt x="127" y="395" on="1"/>
        <pt x="29" y="395" on="1"/>
        <pt x="40" y="560" on="1"/>
        <pt x="127" y="560" on="1"/>
        <pt x="127" y="608" on="1"/>
        <pt x="380" y="608" on="1"/>
        <pt x="380" y="544" on="1"/>
        <pt x="557" y="544" on="1"/>
        <pt x="557" y="608" on="1"/>
        <pt x="810" y="608" on="1"/>
        <pt x="810" y="560" on="1"/>
        <pt x="897" y="560" on="1"/>
        <pt x="908" y="395" on="1"/>
        <pt x="810" y="395" on="1"/>
        <pt x="810" y="0" on="1"/>
        <pt x="557" y="0" on="1"/>
        <pt x="557" y="166" on="1"/>
        <pt x="380" y="166" on="1"/>
        <pt x="380" y="0" on="1"/>
      </contour>
      <contour>
        <pt x="380" y="351" on="1"/>
        <pt x="557" y="351" on="1"/>
        <pt x="557" y="411" on="1"/>
        <pt x="380" y="411" on="1"/>
      </contour>
    </TTGlyph>
</ttFont>
